<?xml version="1.0" standalone="no"?>
<!DOCTYPE svg PUBLIC "-//W3C//DTD SVG 1.1//EN" "http://www.w3.org/Graphics/SVG/1.1/DTD/svg11.dtd" >
<svg xmlns="http://www.w3.org/2000/svg">
<metadata></metadata>
<defs>
<font id="apple_garamondbold_italic" horiz-adv-x="1024" >
<font-face units-per-em="2048" ascent="1638" descent="-410" />
<missing-glyph horiz-adv-x="479" />
<glyph horiz-adv-x="2048" />
<glyph horiz-adv-x="2048" />
<glyph unicode="&#xd;" />
<glyph unicode=" "  horiz-adv-x="479" />
<glyph unicode="&#x09;" horiz-adv-x="479" />
<glyph unicode="&#xa0;" horiz-adv-x="479" />
<glyph unicode="!" horiz-adv-x="530" d="M10 109q0 -66 28 -100t77 -34q53 0 92 45.5t39 120.5q0 66 -29 100.5t-74 34.5q-53 0 -93 -46t-40 -121zM152 395q0 -49 28 -49q31 0 61.5 73t90.5 220q90 221 143 358.5t53 202.5q0 59 -31.5 94t-84.5 35q-47 0 -80 -21.5t-55.5 -63.5t-37 -102.5t-22.5 -137.5 q-35 -303 -50 -454t-15 -155z" />
<glyph unicode="&#x22;" horiz-adv-x="694" d="M84 1333q0 -8 2 -18l74 -459h39l73 459q2 10 2 18v21q0 109 -96 108q-94 0 -94 -108v-21zM420 1333q0 -8 2 -18l74 -459h39l73 459q2 10 3 20.5t1 20.5q0 51 -25.5 78.5t-70.5 27.5t-70.5 -27.5t-25.5 -80.5v-21z" />
<glyph unicode="#" horiz-adv-x="1574" d="M70 428h301l-156 -434h184l154 434h268l-155 -434h184l154 434h307l59 168h-307l92 262h291l59 166h-291l156 436h-182l-156 -436h-268l156 436h-183l-155 -436h-318l-61 -166h319l-92 -262h-301zM608 594l94 264h275l-94 -264h-275z" />
<glyph unicode="$" horiz-adv-x="960" d="M25 207q0 -86 284 -162l-78 -311h78l78 305q86 10 157.5 50t123 97.5t80 128t28.5 144.5q0 102 -48 183t-146 171l96 373q49 -12 72.5 -41t33.5 -82q4 -23 5.5 -43.5t4.5 -35.5t9 -24.5t22 -9.5q10 0 21.5 13.5t17.5 42.5l35 151q2 10 2 19q0 49 -203 96l72 278h-78 l-71 -274q-94 -4 -169 -33t-127.5 -78t-80 -114.5t-27.5 -141.5q0 -55 14.5 -100t43 -87t68.5 -85t93 -94l-102 -402q-49 8 -83 21.5t-56.5 34t-36 50t-21.5 70.5q-6 29 -8 54.5t-4 44t-7 30t-18 11.5q-23 0 -32 -41l-39 -176q-4 -10 -4 -19v-14zM414 143l88 349 q78 -66 78 -152q0 -35 -12.5 -68.5t-35 -60.5t-52 -44t-66.5 -24zM432 1028q0 72 45 115t123 47l-82 -318q-43 41 -64.5 76t-21.5 80z" />
<glyph unicode="%" horiz-adv-x="1193" d="M53 928q0 -125 58.5 -198t156.5 -73q63 0 123 31t104 85t70.5 126t26.5 154q0 133 -60.5 204.5t-162.5 71.5q-63 0 -121 -31.5t-101 -86t-68.5 -128t-25.5 -155.5zM127 -39h92l832 1366h-95zM195 846q0 84 18 161.5t46 138t59.5 96.5t60.5 36q76 0 76 -145 q0 -78 -16.5 -153t-43 -134.5t-59.5 -95t-66 -35.5q-76 0 -75 131zM584 229q0 -123 58 -196.5t157 -73.5q63 0 122.5 30.5t103.5 85t70.5 126t26.5 153.5q0 133 -59 206t-164 73q-63 0 -120.5 -32t-100.5 -86t-68.5 -128t-25.5 -158zM723 145q0 84 18.5 162t46 138.5 t59 96.5t60.5 36q35 0 55.5 -37t20.5 -97q0 -86 -17.5 -163.5t-44 -138t-59.5 -95.5t-63 -35q-76 0 -76 133z" />
<glyph unicode="&#x26;" horiz-adv-x="1218" d="M39 397q0 -94 32.5 -174t92 -137t142.5 -90t183 -33q104 0 192.5 32t154 83t102.5 115.5t37 130.5q0 23 -5 43t-14 43q68 2 113 26.5t72.5 62.5t39 86t11.5 99q0 53 -39 53q-23 0 -34 -24.5t-23 -40.5q-29 -37 -70 -45.5t-98 -8.5h-35q-197 0 -289 -100 q-41 -45 -63.5 -103.5t-22.5 -90.5q0 -31 27 -31q16 0 24.5 23.5t35 48t69.5 41t90 16.5q129 0 129 -103q0 -37 -22.5 -75.5t-60.5 -69.5t-91 -50.5t-115 -19.5q-74 0 -135 29t-106.5 79t-70 119.5t-24.5 151.5q0 188 146 267q53 -35 99 -57.5t97 -22.5q45 0 70 22.5 t25 57.5q0 88 -166 88q-15 -1 -97 -7q-18 29 -28.5 55.5t-10.5 55.5q0 37 15.5 71t41 58.5t59.5 38.5t73 14q121 0 178 -120q12 -25 20.5 -39.5t30.5 -14.5q14 0 29.5 17.5t30 47t23.5 65.5t9 73q0 68 -69.5 118t-192.5 50q-78 0 -142.5 -24.5t-110.5 -67.5t-71.5 -99.5 t-25.5 -119.5q0 -100 74 -201q-162 -39 -249 -147.5t-87 -264.5z" />
<glyph unicode="'" horiz-adv-x="358" d="M84 1333q0 -8 2 -18l74 -459h39l73 459q2 10 2 18v21q0 109 -96 108q-94 0 -94 -108v-21z" />
<glyph unicode="(" horiz-adv-x="686" d="M61 262q0 -180 48.5 -325.5t134.5 -241.5q55 -61 104 -90t68 -29q31 0 30 27q0 29 -26.5 46t-54.5 52q-78 96 -78 340q0 111 24.5 258t79.5 334q41 141 89 252.5t106 195.5q49 72 93 110t78 59.5t53 32.5t19 30q1 28 -38 28q-10 0 -46 -12t-88.5 -37.5t-114 -66.5 t-120.5 -99q-172 -164 -266.5 -389t-94.5 -475z" />
<glyph unicode=")" horiz-adv-x="686" d="M-195 -395q0 -29 35 -29q12 0 49 12.5t88.5 38t112 65.5t119.5 97q172 164 267 390.5t95 475.5q0 168 -43 306.5t-120 236.5q-55 72 -113 107.5t-78 35.5q-31 0 -31 -26q0 -29 27 -46.5t55 -51.5q78 -96 78 -338q0 -111 -24.5 -259.5t-79.5 -334.5q-45 -147 -93.5 -259 t-101.5 -190q-49 -72 -93 -110.5t-77 -60t-52.5 -33t-19.5 -27.5z" />
<glyph unicode="*" horiz-adv-x="819" d="M121 836q0 -53 23.5 -87t60.5 -34q27 0 46 19.5t43.5 47t56.5 57t83 52.5q-12 -53 -33.5 -93t-43 -73t-37 -63.5t-15.5 -63.5q0 -41 28.5 -67.5t63.5 -26.5q33 0 56.5 28.5t23.5 69.5t-13 91t-13 112q0 35 6 82q39 -51 57 -103.5t31.5 -95.5t31 -69.5t54.5 -26.5 q35 0 61.5 35t26.5 75q0 51 -22.5 72t-57.5 36t-79 34.5t-87 66.5q41 10 74 11q51 0 89 -9.5t66 -9.5q29 0 50.5 27.5t21.5 70.5q0 51 -23.5 83t-58.5 32q-29 0 -49 -19.5t-44 -47t-55.5 -58.5t-80.5 -51q12 55 34.5 97t43 74t36 59.5t15.5 56.5q0 47 -26.5 74.5t-65.5 27.5 q-80 0 -80 -127q0 -10 13 -56t13 -132q0 -10 -6 -68q-43 57 -61.5 109.5t-30.5 93.5t-28.5 65.5t-53.5 24.5q-35 0 -62.5 -35t-27.5 -74q0 -49 21.5 -70.5t57.5 -36.5t80 -35.5t89 -65.5q-41 -12 -74 -13q-53 0 -87 9.5t-56 9.5q-37 0 -61.5 -25.5t-24.5 -66.5z" />
<glyph unicode="+" horiz-adv-x="1705" d="M254 528h514v-528h170v528h514v166h-514v527h-170v-527h-514v-166z" />
<glyph unicode="," horiz-adv-x="479" d="M-78 -324q0 -35 25 -34q37 0 151 141q59 76 90 150.5t31 158.5q0 90 -34 137t-87 47t-91 -47t-38 -108q0 -94 68 -113q37 -10 53 -13t16 -34q0 -37 -22.5 -79t-67.5 -95q-18 -23 -35.5 -37t-29.5 -26.5t-20.5 -22.5t-8.5 -25z" />
<glyph unicode="-" horiz-adv-x="477" d="M0 348q0 -12 12 -12h348q6 0 14.5 7t12.5 19l51 187q4 12 4 14q0 10 -14 10h-348q-6 0 -14.5 -7t-12.5 -19l-51 -185q-2 -6 -2 -14z" />
<glyph unicode="." horiz-adv-x="479" d="M-16 106q0 -59 30.5 -94t77.5 -35q55 0 94 47.5t39 122.5q0 59 -29.5 93t-76.5 34q-55 0 -95 -47t-40 -121z" />
<glyph unicode="/" horiz-adv-x="454" d="M-63 -190h100l514 1517h-98z" />
<glyph unicode="0" horiz-adv-x="960" d="M18 430q0 -113 24 -201t63.5 -149.5t95 -94t118.5 -32.5q100 0 210 72.5t208 214.5q92 135 140.5 291.5t48.5 316.5q0 115 -22.5 205t-62.5 152.5t-94.5 95t-117.5 32.5q-96 0 -212 -72.5t-212 -218.5q-88 -135 -137.5 -295.5t-49.5 -316.5zM236 211q0 104 30.5 286.5 t108.5 417.5q114 355 241 355q49 0 71 -50.5t22 -158.5q0 -96 -32 -280.5t-108 -413.5q-117 -348 -233 -349q-100 0 -100 193z" />
<glyph unicode="1" horiz-adv-x="960" d="M37 27q0 -39 49 -39q20 0 120.5 11t285.5 11q80 0 129 -6t67 -6q55 0 55 45q0 33 -49 37q-72 4 -113.5 16.5t-41.5 61.5q0 16 5 47t17 78l234 952q12 49 12 63q0 35 -27 35q-20 0 -107 -42t-261 -103q-39 -14 -72 -24.5t-55.5 -20.5t-35.5 -22.5t-13 -30.5q0 -33 30 -33 q20 0 47 9t54.5 20.5t52 20.5t43.5 9q31 0 31 -16q0 -8 -5.5 -41t-17.5 -86l-184 -766q-16 -70 -44 -96.5t-93 -34.5q-53 -6 -83 -10.5t-30 -38.5z" />
<glyph unicode="2" horiz-adv-x="960" d="M-74 29q0 -33 47 -33q20 0 51 3t72 3h502q4 0 15.5 -1t29.5 -1q27 0 35 17.5t14 41.5l49 205q16 70 17 84q0 10 -8.5 18.5t-16.5 8.5q-16 0 -25.5 -18.5t-23.5 -42t-38.5 -42t-74.5 -18.5h-366q72 78 142.5 135t133 100t115.5 76t90 64q195 152 195 366 q0 145 -92.5 234.5t-245.5 89.5q-86 0 -163 -34t-136 -99q-25 -27 -42.5 -54.5t-29.5 -52t-17 -43t-5 -26.5q0 -29 22 -29q18 0 34.5 28.5t49.5 77.5q41 61 92 93t103 32q72 0 113.5 -51t41.5 -149q0 -78 -24.5 -152t-72.5 -148.5t-115.5 -153.5t-153.5 -165 q-154 -156 -234 -241.5t-80 -122.5z" />
<glyph unicode="3" horiz-adv-x="960" d="M-119 -47q0 -78 66.5 -124t183.5 -46q137 0 259 47t211 127t141.5 185.5t52.5 224.5q0 154 -89.5 246t-254.5 92q-14 0 -44 -2.5t-75 -6.5q129 43 225 83t160.5 85t96.5 98.5t32 122.5q0 113 -79 179.5t-224 66.5q-80 0 -144.5 -27.5t-108.5 -64.5t-68.5 -73t-24.5 -52 q0 -29 28 -29q16 0 38 24t49.5 53.5t63.5 53t83 23.5q57 0 91 -41t34 -113q0 -98 -71 -188t-194 -143q-49 -23 -90 -39.5t-70.5 -30.5t-46 -28.5t-16.5 -34.5q0 -16 8.5 -24.5t18.5 -8.5q8 0 24.5 7t42 15t58.5 15.5t71 7.5q94 0 147.5 -67.5t53.5 -196.5 q0 -102 -31.5 -194.5t-79 -163t-100.5 -112.5t-98 -42q-39 0 -58.5 25.5t-48.5 74.5q-31 51 -60.5 77.5t-68.5 26.5q-41 0 -67.5 -29.5t-26.5 -78.5z" />
<glyph unicode="4" horiz-adv-x="960" d="M0 455q0 -33 19.5 -39t54.5 -6h350q33 0 33 -17q0 -4 -1 -15t-5 -28l-50 -198q-10 -35 -28.5 -54.5t-57.5 -23.5q-37 -4 -63.5 -7.5t-26.5 -35.5q0 -35 39 -35q14 0 95 7t235 7q53 0 87 -4t52 -4q35 0 35 31q0 27 -19.5 33t-42 8t-42 9t-19.5 38q0 16 6 39l49 205 q8 29 11.5 37t31.5 8h101q16 0 21 8t9 24l15 56q0 4 1 5t1 5q0 14 -27 14h-88q-29 0 -28 21v12t4 18l88 367q6 25 6 47q0 25 -31 25q-12 0 -43 -8l-110 -33q-43 -12 -58.5 -34t-23.5 -54l-78 -320q-6 -29 -12.5 -35t-34.5 -6h-338q182 217 328.5 371t249 254t157.5 152.5 t55 64.5q0 23 -30 22h-29q-37 0 -51.5 -9t-30.5 -25l-690 -768q-31 -35 -53.5 -65t-22.5 -64z" />
<glyph unicode="5" horiz-adv-x="960" d="M-92 -131q0 -23 14.5 -30t59.5 -7q203 0 355 49t255.5 134t156 199t52.5 241q0 154 -76 262t-215 149q-47 14 -90 17.5t-76 3.5t-52.5 2t-19.5 14q0 80 32 102.5t81 26.5l367 39q37 4 58 7t34.5 8.5t19.5 16.5t13 30l36 135q6 23 8.5 36t2.5 15q0 16 -27 16h-10 q-6 0 -17 -2l-530 -63q-43 -6 -53 -47l-154 -521q-4 -12 -5 -23t-1 -15q0 -14 29 -15q373 0 372 -278q0 -150 -94 -264.5t-264 -165.5q-61 -18 -110.5 -22.5t-83 -7.5t-51 -10t-17.5 -32z" />
<glyph unicode="6" horiz-adv-x="960" d="M23 438q0 -111 28.5 -199.5t78.5 -150t121 -95.5t155 -34q94 0 181 40t151.5 110.5t103.5 167t39 210.5q0 86 -26 156t-68 118t-95 73.5t-110 25.5q-78 0 -126 -23.5t-48 -52.5q0 -23 22 -22q16 0 32.5 4t35.5 4q145 0 145 -283q0 -98 -15.5 -180t-44 -142.5t-68.5 -93 t-89 -32.5q-78 0 -123 74.5t-45 218.5q0 154 35 296t97.5 265t150.5 220t194 161q74 43 133.5 60.5t100.5 26.5t63.5 17t22.5 35q0 18 -13.5 24.5t-42.5 6.5q-14 0 -84.5 -12.5t-181.5 -51.5q-86 -29 -168 -68.5t-168 -109.5q-180 -145 -277 -346t-97 -418z" />
<glyph unicode="7" horiz-adv-x="960" d="M152 1036q0 -29 13 -35t46 -6h467q59 0 59 -26q0 -10 -4 -17l-479 -1050q-6 -12 -6 -15q0 -16 41 -16q27 0 36 5t15 18l16 36q29 66 86.5 194t151.5 318l373 758q27 53 26 74q0 14 -30 14h-687q-41 0 -56 9.5t-19 9.5q-16 0 -23 -50l-24 -184q-2 -10 -2 -18v-19z" />
<glyph unicode="8" horiz-adv-x="960" d="M-2 313q0 -80 27.5 -144.5t77 -110.5t117 -71.5t147.5 -25.5q106 0 194 37t151.5 99.5t98.5 143.5t35 169q0 104 -47.5 177.5t-151.5 141.5q143 25 215 96.5t72 186.5q0 139 -97.5 219t-271.5 80q-90 0 -163.5 -30t-127 -81t-83 -118.5t-29.5 -143.5q0 -82 37 -153.5 t108 -125.5q-80 -25 -138 -56.5t-96 -72.5t-56.5 -94t-18.5 -123zM188 291q0 57 13.5 109.5t37 93.5t54 70.5t65.5 41.5q125 -63 186.5 -131.5t61.5 -161.5q0 -59 -18.5 -108t-49 -86t-71.5 -57.5t-86 -20.5q-82 0 -137.5 66.5t-55.5 183.5zM395 1028q0 45 16.5 84t45 68.5 t65.5 46t78 16.5q72 0 116 -52t44 -142q0 -98 -46 -168t-132 -99q-94 53 -140.5 112.5t-46.5 133.5z" />
<glyph unicode="9" horiz-adv-x="960" d="M-96 -154q0 -23 15 -29.5t50 -6.5q55 0 121 11t134.5 33.5t136 56.5t128.5 79q96 72 174 168t133.5 206.5t85 230.5t29.5 241q0 113 -29.5 203.5t-83 155.5t-128 99.5t-162.5 34.5q-92 0 -173 -38t-141.5 -103.5t-95.5 -151.5t-35 -184q0 -88 25 -157.5t69 -119t102 -76 t126 -26.5q72 0 114 27.5t42 52.5q0 20 -21 20q-8 0 -25.5 -9t-48.5 -9q-70 0 -108.5 63.5t-38.5 182.5q0 98 18.5 182t50 145.5t75.5 96.5t94 35q143 0 143 -263q0 -119 -31 -273.5t-90 -303.5q-109 -268 -313 -414q-66 -47 -133.5 -74.5t-143.5 -37.5q-33 -4 -49 -12.5 t-16 -35.5z" />
<glyph unicode=":" horiz-adv-x="520" d="M6 106q0 -61 31 -95t78 -34q53 0 93 48.5t40 121.5q0 59 -31 93t-78 34q-55 0 -94 -46t-39 -122zM117 618q0 -59 30.5 -94t77.5 -35q55 0 94 47.5t39 122.5q0 59 -30.5 93t-77.5 34q-55 0 -94 -47t-39 -121z" />
<glyph unicode=";" horiz-adv-x="520" d="M-53 -324q0 -14 8 -24t18 -10q37 0 152 141q59 76 90 149.5t31 159.5q0 88 -34 136t-87 48t-91 -47t-38 -108q0 -94 67 -113q37 -10 53.5 -13t16.5 -32q0 -37 -22.5 -79t-67.5 -95q-39 -45 -67.5 -65.5t-28.5 -47.5zM111 616q0 -59 30.5 -93t77.5 -34q55 0 94 48.5 t39 121.5q0 59 -30.5 93t-77.5 34q-55 0 -94 -46t-39 -124z" />
<glyph unicode="&#x3c;" horiz-adv-x="1705" d="M264 530l1178 -483v182l-934 381l934 381v185l-1178 -486v-160z" />
<glyph unicode="=" horiz-adv-x="1705" d="M254 322h1198v165h-1198v-165zM254 733h1198v168h-1198v-168z" />
<glyph unicode="&#x3e;" horiz-adv-x="1705" d="M264 47l1178 483v160l-1178 486v-185l934 -381l-934 -381v-182z" />
<glyph unicode="?" horiz-adv-x="626" d="M33 106q0 -63 27.5 -97t76.5 -34q53 0 92 45.5t39 118.5q0 66 -28.5 101.5t-73.5 35.5q-53 0 -93 -48t-40 -122zM152 1122q0 -29 15 -47t36 -18q35 0 59.5 20.5t56.5 59.5q41 49 72 79.5t66 30.5q31 0 53 -26.5t22 -69.5q0 -90 -56 -155.5t-161 -129.5q-35 -20 -55 -33.5 t-32.5 -32t-19.5 -49t-13 -87.5l-33 -269v-18q0 -39 26 -39q18 0 23.5 18.5t15 46t27.5 62.5t65 67q25 18 57 37t64.5 41.5t67.5 54t65 74.5q47 63 70 134t23 145q0 72 -21.5 130t-58.5 100t-84 64.5t-99 22.5q-121 0 -186 -59t-65 -154z" />
<glyph unicode="@" horiz-adv-x="2019" d="M139 537q0 -199 79 -362t231 -277q115 -86 272.5 -133.5t349.5 -47.5q365 0 662 224l-37 47q-295 -209 -625 -209q-164 0 -304 47t-245 135q-240 199 -239 541q0 393 245 643q119 123 273.5 186.5t328.5 63.5q156 0 285 -45t219 -126t140.5 -196t50.5 -254 q0 -164 -58.5 -297t-169.5 -221q-47 -39 -97 -58.5t-79 -19.5q-82 0 -82 103q0 25 5.5 48t11.5 48l172 616h-172l-51 -170q-35 186 -218 187q-82 0 -160.5 -34t-148.5 -99q-94 -90 -142 -197t-48 -217q0 -156 77.5 -248t213.5 -92q94 0 166.5 49t136.5 154q6 -100 60 -152.5 t153 -52.5q135 0 262 110q109 98 168 235.5t59 299.5q0 156 -54 283t-154.5 218t-242 140t-315.5 49q-186 0 -347 -57.5t-296 -167.5q-166 -137 -251 -314.5t-85 -379.5zM772 367q0 78 28.5 179t88.5 216q51 98 103 145t120 47q61 0 99 -48t38 -134q0 -84 -31.5 -196.5 t-91.5 -217.5q-53 -88 -105 -131t-118 -43q-55 0 -93 48.5t-38 134.5z" />
<glyph unicode="A" horiz-adv-x="1005" d="M-106 43q0 -23 13 -30t40 -7q18 0 47 3t69 3q51 0 85 -3t55 -3h12q55 0 55 41q0 23 -20.5 32t-44 18t-44 23.5t-20.5 45.5q0 8 5.5 31.5t21.5 60.5l76 178h309l29 -221q4 -20 4 -33v-16q0 -57 -58 -70q-35 -6 -55 -19.5t-20 -45.5q0 -33 55 -33q20 0 79.5 7t162.5 7 q57 0 87.5 -4t41.5 -4q51 0 51 45q0 23 -11.5 30t-25.5 16t-28.5 27.5t-20.5 65.5l-135 1039q-8 59 -12.5 80.5t-41.5 21.5t-55 -17.5t-49 -78.5l-514 -1040q-18 -39 -44 -57.5t-47.5 -31t-36.5 -24.5t-15 -37zM289 543q45 98 94 199t106 210l50 -409h-250z" />
<glyph unicode="B" horiz-adv-x="1081" d="M-96 35q0 -43 53 -43q23 0 72 10t133 10q90 0 184 -9t193 -9q211 0 319.5 100.5t108.5 282.5q0 307 -314 319v15q182 2 285.5 93t103.5 230q0 127 -70.5 192.5t-211.5 65.5q-70 0 -128.5 -4t-107.5 -4q-141 0 -217 9.5t-88 9.5q-25 0 -36 -9.5t-11 -33.5q0 -35 16.5 -38 t44.5 -14q41 -16 41 -65q0 -16 -5 -51t-17 -86l-180 -797q-14 -59 -33 -85t-66 -36q-33 -6 -51 -13t-18 -40zM328 191.5q4 21.5 10 46.5l88 405q29 4 48.5 6t31.5 2q90 0 139 -58t49 -173q0 -76 -19.5 -139.5t-55 -109.5t-84 -71.5t-103.5 -25.5q-108 0 -108 79q0 17 4 38.5 zM449 745q20 117 42.5 226.5t51.5 214.5q70 12 100 12q133 0 133 -149q0 -70 -20.5 -127.5t-55 -97.5t-81 -62.5t-99.5 -22.5q-26 0 -71 6z" />
<glyph unicode="C" horiz-adv-x="1087" d="M39 471q0 -242 130 -379t363 -137q98 0 189.5 24.5t146.5 57.5q33 18 39 37.5t11 46.5l28 162q2 10 2 22v27q0 41 -30 41q-23 0 -39.5 -28t-40.5 -81q-23 -51 -42.5 -90t-44 -66.5t-59.5 -42t-88 -14.5q-139 0 -223 110.5t-84 311.5q0 158 61.5 308.5t176.5 271.5 q45 49 96 85t99 60.5t89 36.5t66 12q57 0 69.5 -32.5t12.5 -116.5v-62q0 -88 47 -88q27 0 34 22.5t15 63.5l29 133q6 29 7 51.5t1 34.5q0 41 -40 58.5t-132 17.5q-145 0 -284.5 -46t-258.5 -136q-346 -260 -346 -676z" />
<glyph unicode="D" horiz-adv-x="1253" d="M-104 33q0 -23 6 -29t22 -6t73.5 6t162.5 6q68 0 138.5 -5t147.5 -5q172 0 297 35t228 137q49 49 91 116.5t72.5 145.5t48 165t17.5 175q0 248 -128 381t-374 133q-53 0 -116.5 -4t-139.5 -4q-100 0 -157.5 5t-73.5 5q-25 0 -36 -7t-11 -30q0 -29 17.5 -37t39 -14 t38.5 -16t17 -41q0 -8 -1 -26.5t-7 -47.5l-190 -823q-14 -59 -26.5 -96t-51.5 -52q-47 -16 -75.5 -23t-28.5 -44zM328 176q0 23 3 38.5t7 29.5l184 819q8 39 17.5 66.5t24 43t37 22.5t58.5 7q129 0 200 -90t71 -254q0 -94 -14.5 -186t-38 -175t-56.5 -154t-69 -120 q-100 -137 -283 -137q-72 0 -106.5 12.5t-34.5 77.5z" />
<glyph unicode="E" horiz-adv-x="989" d="M-111 35q0 -43 60 -43q25 0 67.5 5t106.5 5h563q23 0 41 -2t35 -2q35 0 46 13.5t21 56.5q20 82 29.5 133t9.5 71t-10 35t-22 15q-16 0 -27.5 -12.5t-22 -33t-21.5 -44t-30 -46.5q-29 -35 -58.5 -54t-61 -28.5t-66.5 -11.5t-74 -2q-68 0 -106.5 9.5t-38.5 50.5q0 35 14 98 l88 395h115q76 0 113.5 -22.5t37.5 -81.5q0 -20 -4 -40t-4 -42q0 -16 12.5 -28.5t26.5 -12.5q31 0 40 42t22 107q23 127 44 199t21 100q0 45 -29 45q-18 0 -29.5 -13t-20.5 -32.5t-19 -41t-29 -40.5q-31 -29 -64.5 -36t-78.5 -7h-131l63 283q10 41 20.5 85t26.5 93h162 q119 0 147 -84q8 -27 10.5 -53.5t4.5 -49t10 -36.5t31 -14q25 0 32 20.5t15 50.5l51 209q2 8 2 19q0 29 -41 28h-641q-31 0 -62.5 1t-66.5 1q-47 0 -47 -41q0 -25 16.5 -33t35 -14t34.5 -19.5t16 -49.5q0 -29 -12 -84l-190 -844q-14 -63 -35 -87t-68 -32q-35 -6 -57.5 -12 t-22.5 -41z" />
<glyph unicode="F" horiz-adv-x="909" d="M-111 35q0 -43 56 -43q23 0 77 10t140 10q98 0 158.5 -7t82.5 -7q61 0 62 47q0 37 -23.5 42t-58.5 15q-51 16 -51 72q0 16 3 40t11 54l86 375h98q76 0 114 -21.5t38 -80.5q0 -23 -4 -43.5t-4 -42.5q0 -16 11 -27.5t28 -11.5q31 0 40 41t21 106q23 129 44.5 201t21.5 94 q0 51 -29 51q-18 0 -29.5 -13t-20.5 -33.5t-19.5 -42t-28.5 -40.5q-29 -29 -64 -35t-80 -6h-114l63 283q10 41 20.5 85t26.5 93h131q119 0 148 -84q8 -27 10 -53.5t4 -49t10.5 -36.5t30.5 -14q25 0 32 20.5t15 50.5l51 209q2 8 2 19q0 29 -41 28h-610q-31 0 -62.5 1t-66.5 1 q-47 0 -47 -41q0 -25 16.5 -33t35 -14t34.5 -19.5t16 -49.5q0 -33 -22 -136l-176 -784q-16 -68 -38 -93.5t-69 -33.5q-35 -6 -57.5 -12t-22.5 -41z" />
<glyph unicode="G" horiz-adv-x="1191" d="M169 91q130 -136 363 -136q78 0 179.5 19.5t208.5 62.5l43 219q18 94 35.5 155.5t72.5 88.5q14 6 29.5 9t29 7t21.5 12.5t8 26.5q0 37 -51 37q-18 0 -72.5 -8.5t-148.5 -8.5q-98 0 -151.5 6.5t-65.5 6.5q-55 0 -56 -37q0 -16 6.5 -23.5t17.5 -10.5t24.5 -4t27.5 -5 q41 -10 41 -66q0 -43 -15.5 -140t-62.5 -236q-51 -23 -92 -23q-53 0 -98 28.5t-80 83t-54.5 130t-19.5 172.5q0 166 63.5 319.5t186.5 276.5q49 49 102.5 85t103.5 60.5t92 36.5t71 12q33 0 50 -8t25.5 -28.5t9.5 -55.5t1 -86v-25q0 -79 48 -79h1q25 0 33 20.5t18 56.5 l45 189q6 31 6 43q0 53 -178 53q-334 0 -584 -180q-364 -259 -364 -676q0 -244 130 -380z" />
<glyph unicode="H" horiz-adv-x="1284" d="M-111 35q0 -43 54 -43q20 0 68 10t132 10q102 0 167 -8t89 -8q43 0 43 41q0 18 -6 26.5t-15 11.5t-22 3q-12 0 -26 4q-51 14 -51 63q0 6 1 12.5t3 14.5l100 459h416l-90 -424q-14 -63 -35 -87t-68 -32q-37 -6 -59.5 -12t-22.5 -41q0 -43 56 -43q18 0 75.5 10t155.5 10 q88 0 140.5 -7t70.5 -7q25 0 36 7t11 32t-16.5 32t-37 13t-36.5 15t-16 38q0 10 4 48t18 102l152 719q16 84 33.5 128t52.5 58q14 6 29.5 7t27.5 6t19.5 15.5t7.5 32.5q0 39 -45 39q-16 0 -66.5 -9t-142.5 -9q-90 0 -145.5 7t-80.5 7q-23 0 -33 -8t-10 -31q0 -35 18.5 -38 t51.5 -11q47 -10 47 -61q0 -25 -12 -86l-72 -332h-414l82 358q14 61 35 87t68 32q37 6 59.5 12t22.5 41q0 41 -56 41q-16 0 -72.5 -9t-158.5 -9q-94 0 -145.5 7t-61.5 7q-25 0 -36 -9t-11 -34q0 -16 4 -24.5t12.5 -11.5t19.5 -5t25 -8q41 -16 41 -66q0 -16 -5 -50t-17 -85 l-180 -786q-14 -61 -35 -86t-68 -33q-35 -6 -57.5 -12t-22.5 -41z" />
<glyph unicode="I" horiz-adv-x="638" d="M-90 35q0 -43 51 -43q16 0 62.5 9t132.5 9q115 0 178 -7t80 -7q41 0 41 41q0 33 -14.5 35t-37 8t-39 22.5t-16.5 32.5q0 18 3 47t9 58l193 837q14 57 33.5 87t62.5 40q33 8 53.5 13.5t20.5 35.5q0 37 -51 37q-12 0 -66.5 -8t-154.5 -8q-104 0 -153.5 6t-57.5 6 q-43 0 -43 -39q0 -23 15 -30t32.5 -12t33 -15t15.5 -41q0 -16 -10 -68l-201 -874q-6 -31 -14.5 -52.5t-19.5 -35t-27.5 -20.5t-38.5 -11q-35 -6 -53.5 -13t-18.5 -40z" />
<glyph unicode="J" horiz-adv-x="622" d="M-395 -256q0 -74 50 -122t128 -48q119 0 240.5 77t203.5 218q53 94 87 210t65 257l164 741q12 59 30.5 83t59.5 34q18 6 36.5 8t33 7t23.5 13.5t9 24.5q0 23 -12 33t-45 10q-20 0 -78.5 -7t-157.5 -7q-109 0 -162 5t-63 5q-31 0 -45 -9t-14 -34q0 -18 6 -26.5t17.5 -11.5 t25.5 -4t31 -5q49 -12 49 -63q0 -12 -2 -35t-9 -51l-243 -1070q-35 -154 -64.5 -231.5t-79.5 -77.5q-31 0 -39 24.5t-14 63.5q-10 66 -41 98.5t-74 32.5q-47 0 -81.5 -40t-34.5 -103z" />
<glyph unicode="K" horiz-adv-x="1118" d="M-111 35q0 -43 52 -43q16 0 65 9t133 9q111 0 175.5 -7t84.5 -7q43 0 43 41q0 33 -16 36t-41 7q-29 4 -46 21.5t-17 35.5q0 23 5 46.5t11 52.5l76 346q20 10 32 10q25 0 45.5 -30t43.5 -89l131 -340q16 -43 26 -68.5t20.5 -40t24 -19.5t37.5 -5q29 0 62.5 5t74.5 5 q47 0 81 -8t59 -8q16 0 27.5 13t11.5 32q0 29 -20.5 35t-49.5 22q-45 25 -82 113l-197 459q-10 25 -24.5 55.5t-44.5 64.5l157 152q129 123 213 184.5t105 69.5q18 6 38.5 9t38 7t28 13.5t10.5 31.5q0 37 -52 37q-10 0 -41.5 -3t-89.5 -3q-92 0 -141 4t-59 4q-55 0 -56 -43 q0 -23 13.5 -28.5t31 -10t30.5 -10.5t13 -26q0 -29 -45 -72l-424 -418l58 268q23 98 38 154.5t48 73.5q18 10 40.5 12t41 6t32 14.5t13.5 34.5q0 41 -54 41q-10 0 -65 -8t-166 -8q-102 0 -151.5 6t-57.5 6q-49 0 -49 -43q0 -25 16.5 -33t36 -14t35.5 -18.5t16 -49.5 q0 -29 -22 -135l-180 -786q-14 -61 -35 -86t-68 -33q-35 -6 -57.5 -12t-22.5 -41z" />
<glyph unicode="L" horiz-adv-x="890" d="M-113 35q0 -41 54 -41q10 0 108 7t307 7q166 0 249 -6t95 -6q45 0 53.5 15.5t16.5 56.5q16 86 33.5 142t17.5 85q0 53 -35 53q-18 0 -29.5 -11t-20.5 -30.5t-21.5 -45t-32.5 -52.5q-53 -70 -112.5 -93.5t-153.5 -23.5q-92 0 -92 58q0 16 4 37.5t10 48.5l190 841 q14 61 35 87t68 32q37 6 59.5 12t22.5 41q0 41 -54 41q-10 0 -65 -8t-166 -8q-102 0 -151.5 6t-57.5 6q-49 0 -49 -43q0 -27 16.5 -34t36 -13t35.5 -18.5t16 -49.5q0 -29 -22 -135l-180 -786q-14 -63 -34 -87t-67 -32q-37 -6 -60.5 -12t-23.5 -41z" />
<glyph unicode="M" horiz-adv-x="1406" d="M-127 35q0 -43 55 -43q16 0 58.5 5t107.5 5q72 0 109 -3t45 -3q45 0 45 43q0 33 -25.5 36t-64.5 9q-53 10 -53 70q0 35 14 96t39 153l164 598l22 -804q2 -57 2 -86v-31v-23q0 -18 2 -29.5t10.5 -16.5t25.5 -7t48 -2q16 0 52 64.5t101.5 190.5t167 313.5t246.5 430.5 l-167 -794q-12 -57 -31 -82t-58 -35q-33 -8 -53 -13t-20 -40q0 -43 39 -43q16 0 63 8t133 8q109 0 168.5 -6t71.5 -6q25 0 36 7t11 32t-16.5 32t-37 13t-37 15t-16.5 38q0 10 4.5 47t18.5 103l168 790q20 100 80 117q12 2 25.5 4t24.5 7t17.5 14.5t6.5 25.5q0 47 -54 47 q-8 0 -56 -4t-146 -4h-89q-23 0 -33 -7t-20 -26l-434 -796l-16 782q0 29 -11.5 42t-42.5 13q-25 0 -51 -3t-55 -3q-76 0 -126 5t-79 5q-25 0 -37 -8t-12 -33q0 -47 49 -47q27 0 43.5 -16t16.5 -45q0 -27 -17 -88l-242 -834q-18 -61 -37.5 -91t-76.5 -42q-35 -8 -55.5 -14 t-20.5 -41z" />
<glyph unicode="N" horiz-adv-x="1148" d="M-104 39q0 -45 45 -45q20 0 58 4t95 4q61 0 95 -3t42 -3q43 0 43 43q0 33 -22.5 36t-58.5 9q-47 10 -48 70q0 2 5.5 44t17.5 115.5t33.5 178t56.5 231.5l82 305l381 -999q10 -29 24.5 -46.5t38.5 -17.5q25 0 38.5 13.5t22.5 45t18 83t26 126.5q125 602 190 836 q16 53 33.5 85t52.5 42q23 6 40.5 9t28.5 8.5t17 14.5t6 25q0 37 -49 37q-18 0 -60 -5t-108 -5q-45 0 -74.5 4t-45.5 4q-41 0 -41 -41q0 -31 21.5 -32t57.5 -7q51 -10 52 -63q0 -37 -37 -213t-123 -492q-86 205 -165 416t-155 434q-61 -6 -100 -6q-76 0 -126 6t-75 6 q-23 0 -35 -9t-12 -38q0 -25 15.5 -32t35 -13t35 -17t15.5 -42q0 -33 -9 -64l-208 -868q-25 -100 -74 -115q-45 -14 -70.5 -20t-25.5 -39z" />
<glyph unicode="O" horiz-adv-x="1255" d="M45 580q0 -143 38 -259t104.5 -197t157.5 -125t200 -44q262 0 454 215q203 225 203 541q0 137 -39 251.5t-107.5 195.5t-161.5 126t-202 45q-127 0 -244.5 -56t-206.5 -155.5t-142.5 -238t-53.5 -299.5zM311 410q0 160 35 320.5t94 299.5q49 111 121 170.5t150 59.5 q102 0 161.5 -94.5t59.5 -280.5q0 -63 -7 -135t-20.5 -145t-32 -143.5t-43.5 -131.5q-53 -143 -134 -215t-165 -72q-100 0 -159.5 93t-59.5 274z" />
<glyph unicode="P" horiz-adv-x="1091" d="M-96 33q0 -39 49 -39q12 0 60 7t137 7q119 0 183 -7t79 -7q45 0 45 43q0 31 -22.5 36t-63.5 15q-47 10 -47 59q0 16 5 39t11 52l70 313h67q133 0 233.5 14.5t172.5 48.5q96 47 152.5 145.5t56.5 215.5q0 143 -84 228t-222 85q-68 0 -133 -4t-129 -4q-143 0 -218 9t-87 9 q-47 0 -47 -41q0 -18 5 -26t13.5 -12.5t20.5 -5.5t25 -7q38 -14 38 -64q0 -25 -6 -58t-16 -80l-174 -783q-14 -66 -36 -94.5t-69 -38.5q-31 -6 -50 -13t-19 -42zM428 639l117 537q41 6 71.5 11t53.5 5q161 0 161 -195q0 -178 -80.5 -271t-238.5 -93q-41 0 -84 6z" />
<glyph unicode="Q" horiz-adv-x="1255" d="M-37 -274q0 -72 64 -72q43 0 77.5 21.5t64.5 46t52.5 46t40.5 21.5q25 0 60.5 -23.5t91.5 -62.5q45 -33 85 -61.5t77.5 -50t76.5 -35t84 -13.5q170 0 326 183q65 77 65 129q0 37 -30 36q-14 0 -27.5 -18t-35 -40.5t-54.5 -41t-84 -18.5q-45 0 -86 16t-83 36.5t-87 37 t-98 16.5h-43q-21 0 -41 -4q45 31 94 50.5t98 35.5t97.5 32.5t91.5 41.5q84 49 151.5 119.5t114.5 157.5t71.5 187.5t24.5 211.5q0 139 -40 252.5t-107.5 195.5t-158.5 126t-191 44q-137 0 -258 -57.5t-210.5 -158.5t-141.5 -241.5t-52 -304.5q0 -127 30.5 -232.5t88 -183 t139.5 -127t186 -63.5l-235 -88q-53 -18 -104.5 -27.5t-92.5 -20.5t-66.5 -32.5t-25.5 -66.5zM311 410q0 160 35 320.5t94 299.5q49 111 121 170.5t150 59.5q102 0 161.5 -94.5t59.5 -280.5q0 -63 -7 -135t-20.5 -145t-32 -143.5t-43.5 -131.5q-53 -143 -134 -215t-165 -72 q-100 0 -159.5 93t-59.5 274z" />
<glyph unicode="R" horiz-adv-x="1132" d="M-96 35q0 -41 49 -41q10 0 51 6t119 6q135 0 205.5 -6t83.5 -6q47 0 47 43q0 31 -23.5 36t-64.5 15q-47 10 -47 59q0 12 3 35t11 56l72 309q10 2 20 3t21 1q51 0 75.5 -29.5t40.5 -99.5l82 -332q10 -47 20.5 -67.5t37.5 -20.5q10 0 40.5 4t81.5 4q59 0 101.5 -5t64.5 -5 q45 0 45 39q0 31 -19.5 37t-53.5 16q-20 6 -33.5 36t-30.5 81l-90 285q-10 31 -23 66.5t-40 78.5q178 49 269 146.5t91 226.5t-76 203.5t-211 74.5q-66 0 -132 -5t-136 -5q-164 0 -245 9t-91 9q-47 0 -47 -41q0 -18 5 -26t13.5 -12.5t20.5 -5.5t25 -7q38 -14 38 -64 q0 -38 -22 -138l-176 -795q-14 -61 -38 -87t-65 -34q-31 -6 -50 -13t-19 -40zM428 639l121 537q82 16 121 16q161 0 161 -186q0 -82 -23.5 -150t-68.5 -117t-109.5 -76.5t-144.5 -27.5q-14 0 -27.5 1t-29.5 3z" />
<glyph unicode="S" horiz-adv-x="907" d="M0 109q0 -78 78 -115t244 -37q100 0 184 34t145.5 91t95 133t33.5 162q0 59 -14 110.5t-40 99.5t-60.5 94t-73.5 95q-68 86 -111 150.5t-43 130.5q0 78 53.5 130t126.5 52q133 0 158 -143q4 -27 6 -50.5t5.5 -42t11.5 -29.5t26 -11q29 0 39 55l21 110q4 25 6 40.5t2 21.5 q0 18 -24.5 41.5t-66.5 45t-99.5 36t-120.5 14.5q-82 0 -152 -27.5t-121 -75.5t-79.5 -114t-28.5 -143q0 -104 47 -194.5t129 -190.5q31 -39 59.5 -74t50 -71t33.5 -74.5t12 -83.5q0 -51 -17 -94.5t-48 -75t-73 -50t-91 -18.5q-76 0 -125 42t-65 120q-6 33 -8.5 62.5 t-7.5 51t-14 35t-28 13.5q-29 0 -39 -26t-12 -79l-4 -145v-6z" />
<glyph unicode="T" horiz-adv-x="985" d="M53 35q0 -43 53 -43q18 0 65.5 9t129.5 9q117 0 188.5 -7t102.5 -7q49 0 49 41q0 33 -20.5 36t-49.5 7q-33 4 -53 20.5t-20 34.5q0 14 3 40t11 61l121 538q45 209 104 418h115q66 0 88.5 -16.5t22.5 -69.5q0 -16 -1 -35.5t-1 -38.5q0 -47 32 -47q35 0 51 66l46 178 q10 45 18 70.5t8 35.5q0 37 -26 37q-23 0 -32 -17.5t-28 -33.5q-27 -23 -56.5 -27t-70.5 -4h-553q-76 0 -82 26.5t-9 51.5t-30 25q-29 0 -47 -64l-73 -254q-6 -18 -8.5 -30.5t-2.5 -18.5q0 -41 31 -41q23 0 37 31t53 90q18 27 34.5 44t37 26.5t44 12.5t56.5 3h80l-231 -981 q-16 -68 -38 -92.5t-69 -30.5q-37 -6 -58.5 -12t-21.5 -41z" />
<glyph unicode="U" horiz-adv-x="1161" d="M88 307q0 -168 102.5 -257t298.5 -89q115 0 193 33t131 98.5t90 164.5t68 232l108 465q23 92 38.5 149.5t49.5 78.5q16 10 36 12t36 6t26.5 14.5t10.5 34.5q0 41 -45 41q-25 0 -50.5 -5t-54.5 -5q-74 0 -119.5 4t-64.5 4q-47 0 -47 -39q0 -18 6 -27.5t17.5 -12.5t27 -4 t33.5 -5q53 -14 53 -63q0 -20 -7 -55l-17 -85l-117 -516q-47 -209 -129 -318.5t-227 -109.5q-96 0 -148.5 55.5t-52.5 157.5q0 41 11 105.5t34 156.5l135 549q16 61 34.5 86t67.5 33q37 6 58.5 12t21.5 41q0 41 -51 41q-10 0 -66.5 -8t-166.5 -8q-100 0 -149.5 6t-57.5 6 q-49 0 -49 -45q0 -25 16 -32t35.5 -13t36 -18.5t16.5 -49.5q0 -10 -4 -45.5t-18 -89.5l-99 -387q-23 -86 -37 -159.5t-14 -139.5z" />
<glyph unicode="V" horiz-adv-x="964" d="M33 1241q0 -20 12 -26.5t27.5 -15.5t31 -28.5t21.5 -66.5l149 -1038q8 -53 19.5 -81t58.5 -28q25 0 41.5 13.5t29.5 40t27.5 63.5t36.5 84l396 850q31 66 54.5 107.5t49.5 55.5q41 20 64.5 33t23.5 45q0 39 -51 39q-23 0 -53.5 -5t-73.5 -5t-80 5t-65 5q-53 0 -54 -43 q0 -27 18.5 -34t49.5 -17q29 -10 44 -25.5t15 -48.5q0 -31 -24 -86l-312 -667l-102 710q-2 14 -3 25.5t-1 23.5q0 61 59 70q37 6 55.5 18.5t18.5 45.5q0 34 -52 34h-3q-23 0 -82.5 -7t-157.5 -7q-61 0 -97 5t-50 5q-16 0 -28.5 -13t-12.5 -36z" />
<glyph unicode="W" horiz-adv-x="1388" d="M2 1243q0 -31 23.5 -38t42.5 -25q14 -12 19 -38t15 -65l226 -1011q6 -27 10 -47.5t10 -34t17.5 -19.5t31.5 -6q25 0 40.5 12.5t29.5 38t28.5 62.5t32.5 86l158 395l105 -533q12 -63 59 -63q23 0 37 13.5t26.5 39t25.5 62.5t32 86l284 743q35 94 66 160.5t80 103.5 q16 12 33.5 19.5t32 14.5t23.5 18.5t9 31.5q0 39 -49 39q-35 0 -67.5 -4t-65.5 -4q-35 0 -61.5 4t-49.5 4q-41 0 -41 -43q0 -23 13.5 -32t30 -16t29.5 -18.5t13 -39.5q0 -33 -26 -105l-254 -686l-105 500q-2 8 -3 14t-1 12q0 12 4 23.5t11 24.5l94 204q16 35 40.5 49.5 t48 21.5t41 16.5t17.5 35.5q0 39 -51 39q-16 0 -86 -6t-193 -6q-115 0 -178 7t-80 7q-59 0 -59 -45q0 -18 11.5 -28.5t26.5 -19.5t29.5 -23.5t20.5 -43.5l98 -446l-135 -358l-166 755q-4 16 -6 30.5t-2 31.5q0 29 12.5 41t26.5 19t26.5 17.5t12.5 34.5q0 18 -13.5 30.5 t-29.5 12.5q-20 0 -72.5 -10t-138.5 -10q-45 0 -77 6t-50 6t-30.5 -13t-12.5 -34zM803 1157v6q0 16 12 27.5t39 11.5q43 0 43 -37q0 -5 -10 -32l-53 -136l-27 142q-4 12 -4 18z" />
<glyph unicode="X" horiz-adv-x="1054" d="M-195 23q0 -18 10.5 -24.5t30.5 -6.5q39 0 94.5 8t131.5 8q53 0 91 -7t60 -7q43 0 43 41q0 25 -14 33t-31.5 14t-32 15t-14.5 38q0 39 62 115l208 268l80 -258q10 -31 17.5 -55.5t7.5 -46.5q0 -29 -17.5 -42.5t-44.5 -21.5q-35 -10 -53 -20.5t-18 -36.5q0 -18 12 -30.5 t35 -12.5q16 0 66.5 6t129.5 6q135 0 210 -6t94 -6q29 0 39 9t10 34q0 18 -9.5 25.5t-22.5 11.5t-30.5 8t-36.5 14q-39 23 -65.5 74t-54.5 133l-134 391l70 105q104 158 194.5 251t143.5 121q23 12 49.5 17.5t48 12.5t35.5 19.5t14 36.5q0 33 -53 33q-25 0 -58.5 -4 t-76.5 -4q-96 0 -150.5 6t-70.5 6q-27 0 -40 -13t-13 -34q0 -27 17 -32t46 -11q23 -4 35 -14t12 -39q0 -18 -8 -34.5t-23 -37.5l-202 -282l-109 299q-6 16 -8 30.5t-2 24.5q0 25 13.5 37t39.5 16q37 6 60.5 10.5t23.5 36.5q0 18 -11 30.5t-32 12.5q-12 0 -69.5 -7t-163.5 -7 q-121 0 -184.5 8t-75.5 8q-14 0 -24.5 -12t-10.5 -31q0 -18 7 -26t19.5 -12.5t27.5 -5.5t32 -7q33 -10 47 -32.5t29 -61.5l174 -504l-123 -155q-115 -141 -196 -224.5t-128 -107.5q-29 -16 -57.5 -23.5t-51 -15.5t-37 -20.5t-14.5 -34.5z" />
<glyph unicode="Y" horiz-adv-x="882" d="M46.5 1219.5q23.5 -7.5 39.5 -15.5q33 -14 39 -35.5t14 -50.5l133 -504q4 -18 8.5 -32.5t4.5 -26.5v-16t-4 -25l-33 -184q-16 -100 -35.5 -155.5t-50.5 -72.5q-18 -10 -40 -12t-41.5 -6t-32.5 -14.5t-13 -34.5q0 -43 49 -43q18 0 68.5 9t138.5 9q111 0 173 -7t81 -7 q43 0 43 41q0 33 -15.5 36t-42.5 7q-29 4 -45 21.5t-16 35.5q0 25 6 48.5t10 50.5l72 352l123 188q100 154 167.5 249t108.5 130q23 20 47.5 29.5t44 17.5t32 19.5t12.5 33.5q0 31 -43 31q-14 0 -45 -4t-80 -4q-74 0 -117 5t-57 5q-45 0 -45 -37q0 -25 17 -33t36.5 -12 t37 -14t17.5 -37q0 -23 -22.5 -60.5t-59.5 -97.5l-201 -327l-96 407q-4 23 -8 40.5t-4 29.5q0 35 17.5 47t39 17.5t39 13.5t17.5 32q0 23 -9.5 30t-31.5 7q-14 0 -51 -5t-101 -5q-131 0 -198.5 8t-80.5 8q-40 0 -40 -36q0 -37 23.5 -44.5z" />
<glyph unicode="Z" horiz-adv-x="978" d="M-94 33q0 -33 33 -33q12 0 127.5 8t371.5 8q160 0 250 -8t113 -8q39 0 48 8t13 39l23 135q10 53 16 86t5 43q0 45 -36 45q-16 0 -26 -13t-19.5 -33.5t-20.5 -45t-30 -47.5q-51 -63 -123.5 -89t-179.5 -26q-29 0 -81 3.5t-132 7.5l795 1122q10 14 10 27q0 10 -8 19t-19 9 h-45q-29 0 -98.5 -3t-183.5 -3q-156 0 -251.5 5t-131.5 5h-70q-25 0 -36 -10t-17 -33l-47 -184q-8 -35 -9 -51q0 -35 29 -35q25 0 41 36t51 89q20 33 44 52.5t54.5 28.5t71.5 12t97 3q47 0 92 -2t88 -6l-778 -1096q-12 -16 -21.5 -30.5t-9.5 -34.5z" />
<glyph unicode="[" horiz-adv-x="645" d="M-76 -354q0 -12 14.5 -26.5t30.5 -14.5h307q10 0 21.5 21.5t11.5 51.5q0 20 -10 21h-88q-49 0 -49 22q0 14 6 46l332 1392q10 37 22.5 56.5t42.5 19.5h97q10 0 19 20.5t9 49.5q0 23 -10 22h-293q-37 0 -56.5 -17.5t-29.5 -56.5l-367 -1542q-6 -25 -8 -41t-2 -24z" />
<glyph unicode="\" horiz-adv-x="454" d="M57 1327l256 -1517h97l-258 1517h-95z" />
<glyph unicode="]" horiz-adv-x="645" d="M-137 -373q0 -23 10 -22h295q37 0 56.5 18.5t29.5 57.5l364 1540q6 25 8.5 41t2.5 24q0 12 -14.5 26.5t-30.5 14.5h-308q-10 0 -21 -21.5t-11 -52.5q0 -18 10 -18h90q49 0 49 -25q0 -14 -8 -45l-332 -1392q-10 -37 -22.5 -56.5t-42.5 -19.5h-94q-10 0 -20.5 -20.5 t-10.5 -49.5z" />
<glyph unicode="^" horiz-adv-x="2048" d="M412 897h104l506 397l506 -397h104l-502 565h-215z" />
<glyph unicode="_" d="M0 -311v-172h1024v172h-1024z" />
<glyph unicode="`" d="M416 1335q0 -23 14 -42t37 -42l209 -192h84l-197 303q-39 59 -80 59q-27 0 -47 -22.5t-20 -63.5z" />
<glyph unicode="a" horiz-adv-x="1085" d="M-16 199q0 -113 51 -176.5t123 -63.5q111 0 222.5 112.5t240.5 338.5l-37 -177q-10 -49 -18.5 -92t-8.5 -84q0 -39 23.5 -65.5t64.5 -26.5q63 0 133 39t135 119q51 63 74 111.5t23 58.5q0 27 -17 26q-14 0 -29.5 -23.5t-34 -51t-39 -50t-46.5 -22.5q-16 0 -20.5 11.5 t-4.5 37.5q0 12 2 32.5t8 43.5l160 594q6 23 7 37t1 20q0 18 -47 19h-131q-31 0 -43 -3t-22 -26l-17 -37q-61 49 -141 49q-100 0 -213 -66.5t-219 -201.5q-180 -229 -180 -483zM283.5 414.5q29.5 101.5 99.5 224.5q131 240 246 240q76 0 76 -99q0 -51 -37 -146t-115 -231 q-72 -125 -127 -187t-107 -62q-65 0 -65 101q0 58 29.5 159.5z" />
<glyph unicode="b" horiz-adv-x="983" d="M16 244q0 -139 65.5 -211t190.5 -72q258 0 439 197q96 104 148 236t52 263q0 135 -54 213t-134 78q-51 0 -99.5 -28.5t-98.5 -84t-105 -137.5t-121 -190l256 878q4 16 5 25.5t1 11.5q0 8 -6 15.5t-14 7.5q-10 0 -32 -11.5t-58.5 -24.5t-94 -24.5t-139.5 -11.5 q-31 0 -48 -6t-17 -41q0 -16 16 -23.5t35.5 -12.5t36 -12t16.5 -24q0 -16 -5 -39.5t-15 -56.5l-162 -596q-29 -98 -43.5 -178t-14.5 -141zM209 131q0 109 143 352q70 117 120 175.5t99 58.5q57 0 58 -96q0 -59 -27 -152.5t-88 -204.5q-127 -227 -235 -227q-70 0 -70 94z" />
<glyph unicode="c" horiz-adv-x="825" d="M2 317q0 -168 84 -263t215 -95q98 0 193.5 48t171.5 140q67 81 67 118q0 28 -22 28q-12 0 -24.5 -13.5t-35.5 -35.5q-61 -63 -112.5 -97t-104.5 -34q-72 0 -117 58t-45 163q0 111 29 208t67 169.5t77.5 115.5t62.5 43q33 0 42 -25.5t25 -60.5q29 -55 54.5 -80.5 t72.5 -25.5q49 0 79 32.5t30 84.5q0 72 -60 119t-173 47q-43 0 -94.5 -13.5t-103.5 -39t-103.5 -62.5t-94.5 -84q-88 -94 -134 -209t-46 -236z" />
<glyph unicode="d" horiz-adv-x="1079" d="M-10 221q0 -123 47 -189.5t115 -66.5q102 0 211.5 111.5t242.5 337.5l-33 -181q-8 -43 -15 -85t-7 -89q0 -41 23.5 -67.5t64.5 -26.5q63 0 133 39t135 119q51 63 74 111.5t23 58.5q0 27 -17 26q-14 0 -30.5 -25.5t-36 -55t-43 -55t-52.5 -25.5q-16 0 -16 32 q0 31 45 253.5t160 617.5l94 325q4 16 6 25.5t2 11.5q0 8 -6 15.5t-14 7.5q-10 0 -29.5 -10.5t-52.5 -22.5t-81 -23.5t-118 -13.5h-43q-33 0 -50 -7t-17 -42q0 -16 16 -22.5t36.5 -12.5t37 -13t16.5 -22q0 -31 -20 -98l-70 -241q-35 18 -70 28t-71 10q-92 0 -199 -60 t-205 -181q-186 -233 -186 -494zM274 301q0 59 28 152.5t87 203.5q125 228 236 228q65 0 65 -87q0 -54 -33.5 -146.5t-109.5 -215.5q-72 -117 -122 -174t-93 -57q-57 0 -58 96z" />
<glyph unicode="e" horiz-adv-x="892" d="M2 313q0 -168 84 -263t215 -95q98 0 193.5 48t171.5 140q67 81 67 118q0 28 -22 28q-14 0 -28.5 -18.5t-41.5 -47.5q-57 -63 -112.5 -95t-100.5 -32q-76 0 -120 59.5t-44 170.5v24q0 13 2 27q145 18 254 43.5t179.5 65.5t105.5 98.5t35 144.5q0 102 -63.5 163.5 t-178.5 61.5q-94 0 -189.5 -38.5t-181.5 -112.5q-109 -96 -167 -224t-58 -266zM279 457q49 211 123.5 317.5t140.5 106.5q25 0 40 -25t15 -65q0 -61 -22.5 -121t-64.5 -108t-98.5 -76.5t-123.5 -28.5h-10z" />
<glyph unicode="f" horiz-adv-x="538" d="M-393 -266q0 -86 52 -137.5t151 -51.5q106 0 198 70t164 207q63 123 103 307t90 428l53 266h125q43 0 43 60q0 27 -27 26h-127q31 209 69 311.5t70 102.5q18 0 19 -31q0 -12 -2 -25.5t-2 -27.5q0 -53 30.5 -90t75.5 -37q47 0 79 37t32 94q0 84 -49 130t-136 46 q-150 0 -261 -129t-164 -381h-97q-41 0 -41 -59q0 -27 27 -27h88l-102 -479q-37 -172 -64 -305t-49.5 -224t-44 -137.5t-47.5 -46.5q-41 0 -41 68v43q0 63 -26.5 98t-74.5 35q-47 0 -80.5 -41t-33.5 -100z" />
<glyph unicode="g" horiz-adv-x="913" d="M-152 -195q0 -117 128 -193.5t376 -76.5q104 0 184 23.5t134.5 65.5t82 98.5t27.5 123.5q0 63 -16 107.5t-50 76t-83 55.5t-113 46l-184 62q-96 31 -96 83q0 27 26 46q80 -29 150 -29q84 0 154.5 26.5t121.5 73.5t80 108.5t29 133.5q0 82 -51 160q39 0 60 -1t28 -1 q29 0 45 17t16 62q0 14 -47 15h-82h-53t-31 4q-57 20 -116.5 41.5t-135.5 21.5q-80 0 -146.5 -25.5t-115.5 -70.5t-76.5 -107.5t-27.5 -134.5q0 -158 141 -262q-63 -45 -95 -97t-32 -103q0 -63 39 -123q-135 -25 -203 -82.5t-68 -143.5zM57 -158q0 47 29 83t78 48 q72 -53 138.5 -76.5t128 -42t90 -42t28.5 -76.5q0 -59 -51.5 -95t-147.5 -36q-66 0 -119 18.5t-92 50t-60.5 75.5t-21.5 93zM295 522q0 72 15.5 138.5t41 116.5t59 80t68.5 30q37 0 59.5 -42t22.5 -124q0 -70 -14.5 -133.5t-39 -111.5t-56 -76.5t-68.5 -28.5t-62.5 40 t-25.5 111z" />
<glyph unicode="h" horiz-adv-x="987" d="M-55 29q0 -10 7 -19.5t13 -9.5h141q31 0 47.5 11.5t30 41t30.5 79.5t48 130q104 260 193.5 385t152.5 125q23 0 37 -21.5t14 -66.5q0 -39 -17 -147.5t-71 -274.5q-35 -111 -58.5 -167t-41.5 -56t-27 61q-10 53 -24 79t-49 26q-29 0 -49.5 -29t-20.5 -74q0 -61 41 -101 t111 -40q80 0 163.5 55.5t152.5 151.5t112 225t43 277q0 145 -47.5 218t-135.5 73q-102 0 -212.5 -106.5t-221.5 -322.5l195 764q14 53 23.5 83t9.5 40q0 27 -21 27q-10 0 -31.5 -11.5t-58.5 -24.5t-94.5 -24.5t-139.5 -11.5q-31 0 -49 -6t-18 -41q0 -16 16.5 -22.5 t35 -12.5t34.5 -14t16 -27q0 -20 -5 -41.5t-11 -50.5l-260 -1098q-4 -10 -4 -18v-14z" />
<glyph unicode="i" horiz-adv-x="587" d="M20 657q0 -20 13 -20q25 0 37 24.5t39 61.5q35 47 62.5 69.5t45.5 22.5q14 0 14 -31q0 -20 -6 -41l-131 -411q-23 -68 -40 -126.5t-17 -111.5q0 -129 119 -129q135 0 260 156q51 61 73.5 108t22.5 64q0 27 -16 26q-18 0 -36 -27.5t-37.5 -60t-43 -60.5t-51.5 -28 q-18 0 -19 33q0 33 25 105l100 305q23 72 39 129t16 108q0 127 -114 127q-141 0 -254 -125q-51 -55 -76 -100t-25 -68zM324 1163q0 -66 33.5 -104.5t86.5 -38.5q57 0 100.5 47t43.5 123q0 59 -35 99t-94 40q-49 0 -92 -47t-43 -119z" />
<glyph unicode="j" horiz-adv-x="538" d="M-348 -287q0 -72 56 -120t149 -48q160 0 264 113t158 342l165 702q18 76 19 123q0 123 -105 123q-66 0 -131 -32.5t-125 -98.5q-49 -53 -72.5 -94t-23.5 -57q0 -29 17 -29q18 0 40.5 27.5t46 60.5t47 60.5t46.5 27.5q18 0 18 -29q0 -14 -6 -41l-182 -700 q-29 -111 -44.5 -190.5t-27.5 -130t-24.5 -75t-34.5 -24.5q-10 0 -19.5 12.5t-9.5 18.5q0 14 -9 44t-26.5 57.5t-42 49t-53.5 21.5q-41 0 -65.5 -31t-24.5 -82zM289 1163q0 -66 34.5 -104.5t88.5 -38.5q57 0 100 47t43 123q0 59 -34 99t-87 40q-59 0 -102 -47t-43 -119z" />
<glyph unicode="k" horiz-adv-x="985" d="M-57 18q0 -18 32 -18h140q39 0 55 14.5t27 48.5l90 326h20q35 -215 117 -323.5t197 -108.5q51 0 98 19.5t83 53t56.5 80t20.5 101.5q0 63 -30 100t-69 37q-33 0 -54 -24.5t-21 -63.5q0 -31 12 -48t27.5 -29.5t27.5 -25t12 -32.5q0 -23 -15 -41t-36 -18q-37 0 -55.5 42 t-52.5 123q-12 31 -24.5 56.5t-28 48t-38 41t-55.5 33.5q223 29 338 127t115 233q0 94 -50.5 145.5t-138.5 51.5q-106 0 -199 -75t-198 -226l172 630q16 55 25.5 86t9.5 39q0 10 -7 17.5t-16 7.5q-10 0 -30.5 -11.5t-58.5 -24.5t-95 -24.5t-139 -11.5q-31 0 -48.5 -6 t-17.5 -41q0 -16 15.5 -22.5t35 -12.5t35 -14t15.5 -27q0 -31 -17 -92l-276 -1106q-6 -23 -6 -35zM303 446q82 193 166 286t139 93q25 0 41.5 -21.5t16.5 -55.5q0 -53 -27 -106.5t-73 -96.5t-109.5 -71t-134.5 -28h-19z" />
<glyph unicode="l" horiz-adv-x="524" d="M0 145q0 -78 34 -124t95 -46q115 0 244 172q43 59 60.5 98.5t17.5 47.5q0 27 -17 26q-18 0 -29.5 -22.5t-39.5 -63.5q-59 -90 -97 -90q-18 0 -18 33q0 10 1 21.5t5 27.5l285 1075q14 51 24 81t10 40t-7 17.5t-15 7.5q-10 0 -30.5 -11.5t-58.5 -24.5t-95.5 -24.5 t-139.5 -11.5q-31 0 -49 -6t-18 -41q0 -16 16.5 -22.5t35.5 -12.5t35.5 -15t16.5 -30q0 -18 -5 -39.5t-11 -48.5l-203 -760q-25 -92 -36 -155.5t-11 -98.5z" />
<glyph unicode="m" horiz-adv-x="1478" d="M-6 659q0 -23 18 -22q18 0 36 22.5t36 50t38.5 51t45.5 23.5q14 0 19.5 -7t5.5 -29q0 -25 -6.5 -64t-22.5 -92l-156 -541q-4 -10 -4 -16v-10q0 -10 6 -17.5t15 -7.5h165q23 0 35.5 17.5t28.5 63.5t40.5 124t72.5 198q39 98 76.5 173t70.5 127.5t57.5 79t36.5 26.5 q20 0 21 -31q0 -31 -16.5 -109.5t-45.5 -207.5l-96 -410q-4 -20 -4 -26q0 -8 6 -16.5t14 -8.5h150q25 0 38 18.5t29.5 64.5t44 124t76.5 196q86 203 161 301.5t106 98.5q20 0 20 -17q0 -20 -8 -53t-25 -80l-86 -254q-29 -86 -41 -154.5t-12 -111.5q0 -153 112 -153h1 q66 0 123 40.5t114 122.5q41 59 58.5 99.5t17.5 50.5q0 27 -16 26q-14 0 -29.5 -25.5t-34 -56t-40 -56t-48.5 -25.5q-14 0 -14 22q0 18 12 60l117 376q23 68 32 118t9 79q0 139 -129 139q-109 0 -211.5 -111.5t-208.5 -334.5l18 96q12 68 20.5 119t8.5 88q0 143 -121 143 q-90 0 -174 -93t-176 -273q18 74 28.5 134t10.5 105q0 127 -105 127q-109 0 -231 -141q-90 -102 -90 -150z" />
<glyph unicode="n" horiz-adv-x="1058" d="M-2 662q0 -25 20 -25q14 0 32 22.5t37 50t41 51t46 23.5q25 0 25 -39q0 -10 -2 -35.5t-13 -60.5l-149 -596q-2 -8 -3 -13t-1 -11q0 -10 6 -19.5t12 -9.5h172q27 0 39 18.5t23.5 59.5t29 106.5t56.5 161.5q43 111 87 194t84 138t71.5 84t50.5 29q12 0 21 -8.5t9 -24.5 q0 -12 -4 -37t-16 -64l-105 -338q-18 -59 -25 -104t-7 -74q0 -76 34.5 -121t94.5 -45q53 0 115.5 41t121.5 125q43 59 63.5 100.5t20.5 51.5q0 27 -18 26q-16 0 -34 -27.5t-38.5 -60t-44 -60.5t-49.5 -28q-18 0 -19 33q0 23 6.5 47.5t16.5 57.5l108 346q31 98 31 172 t-37 112.5t-102 38.5q-211 0 -436 -446l26 117q16 66 22.5 118t6.5 88q0 123 -102 123q-53 0 -111.5 -34.5t-118.5 -106.5q-94 -113 -94 -147z" />
<glyph unicode="o" horiz-adv-x="962" d="M4 367q0 -90 25.5 -165t71.5 -128.5t112 -84t145 -30.5q106 0 203.5 47t170.5 127t116 184.5t43 219.5q0 96 -26.5 173.5t-74 132t-112.5 83t-143 28.5q-98 0 -193.5 -45t-170.5 -122.5t-121 -186t-46 -233.5zM250 233q0 117 26.5 234t75.5 223q86 184 183 184 q51 0 82.5 -50t31.5 -148q0 -231 -100 -457q-41 -92 -83 -136t-95 -44q-121 0 -121 194z" />
<glyph unicode="p" horiz-adv-x="980" d="M-242 -412q0 -33 33 -32q18 0 68.5 8t130.5 8q139 0 214 -12.5t91 -12.5q31 0 31 33t-27 40t-61 22q-59 23 -60 82q0 29 8 69l58 260q90 -82 190 -82q78 0 160 49.5t158 147.5q82 109 122.5 230.5t40.5 230.5q0 147 -73.5 233t-210.5 86q-35 0 -78 -3t-94 -13l39 178 q2 6 2 16q0 27 -41 27h-119q-31 0 -45 -14.5t-23 -44.5l-61 -220q-86 -43 -127 -73.5t-41 -65.5q0 -29 33 -28q23 0 45 17t61 36l-243 -1002q-10 -41 -21.5 -65.5t-50.5 -36.5q-20 -6 -40 -11t-35 -11.5t-24.5 -16.5t-9.5 -29zM289 174q0 23 3 52.5t13 66.5l135 545 q27 12 47.5 19t42.5 7q59 0 93 -45t34 -127q0 -78 -26.5 -194.5t-79.5 -237.5q-86 -192 -175 -192h-1q-39 0 -62.5 28.5t-23.5 77.5z" />
<glyph unicode="q" horiz-adv-x="985" d="M-16 199q0 -115 49 -176.5t127 -61.5q100 0 207.5 98.5t216.5 296.5l-146 -585q-12 -47 -26.5 -76t-59.5 -43q-23 -6 -44 -11.5t-37.5 -11.5t-27 -17t-10.5 -30q0 -14 8.5 -24.5t20.5 -10.5q31 0 100.5 12.5t174.5 12.5q98 0 157.5 -11.5t83.5 -11.5q29 0 29 31 q0 25 -19.5 36t-42 21.5t-42 23.5t-19.5 42q0 31 14 100l179 764q45 190 77.5 281.5t32.5 105.5q0 35 -22 35q-18 0 -31.5 -12t-28 -26.5t-32 -27t-44.5 -12.5q-37 0 -85 21.5t-117 21.5q-106 0 -213 -55t-207 -166q-111 -121 -167 -257t-56 -277zM266.5 395.5 q28.5 104.5 100.5 235.5q130 246 245 246q41 0 57.5 -23t16.5 -76t-36 -152.5t-113 -238.5q-72 -129 -127.5 -191.5t-106.5 -62.5q-65 0 -65 102q0 56 28.5 160.5z" />
<glyph unicode="r" horiz-adv-x="806" d="M4 641q0 -27 21 -27q14 0 31.5 27t36 57.5t39 57t40.5 26.5q18 0 18 -37q0 -16 -12 -77l-133 -613q-4 -12 -4 -20v-10q0 -8 6 -16.5t10 -8.5h162q25 0 37 15.5t23.5 54.5t29 106.5t51.5 169.5q70 207 133.5 313.5t92.5 106.5q12 0 14 -16.5t6 -44.5q16 -82 82 -82 q53 0 90 51t37 141q0 68 -30.5 104.5t-86.5 36.5q-86 0 -165.5 -107.5t-165.5 -318.5l18 95q10 49 19.5 101t9.5 105q0 59 -27 91t-72 32q-47 0 -102 -34.5t-113 -106.5q-51 -63 -73.5 -112.5t-22.5 -59.5z" />
<glyph unicode="s" horiz-adv-x="724" d="M-45 170q0 -102 79 -154.5t224 -52.5q82 0 147.5 25.5t111.5 68.5t71.5 99.5t25.5 119.5q0 66 -25.5 118t-74.5 106l-78 84q-59 66 -91 115t-32 102q0 78 66 78q37 0 71.5 -38t86.5 -104q29 -39 50 -61.5t46 -22.5q57 0 57 168q0 61 -75.5 96t-198.5 35 q-154 0 -245 -71.5t-91 -192.5q0 -82 39 -146.5t104 -135.5l74 -80q41 -47 61.5 -92.5t20.5 -83.5q0 -51 -24.5 -82t-59.5 -31q-59 0 -164 158q-41 59 -65.5 88.5t-47.5 29.5q-35 0 -49 -33.5t-14 -109.5z" />
<glyph unicode="t" horiz-adv-x="565" d="M4 139q0 -80 34 -124t95 -44q59 0 126 43t132 129q45 59 64.5 98.5t19.5 49.5q0 27 -18 26q-14 0 -32.5 -28.5t-41.5 -62t-49.5 -61.5t-52.5 -28q-20 0 -21 47q0 23 6 47l152 590h145q16 0 29.5 21.5t13.5 44.5q0 16 -6 19t-16 3h-144l54 215q4 10 4 19v16q0 18 -39 19 h-78q-49 0 -74.5 -4.5t-38 -11.5t-16.5 -16t-6 -20l-64 -217h-119q-40 0 -40 -60q0 -28 18 -28h119l-109 -428q-20 -82 -33.5 -144.5t-13.5 -109.5z" />
<glyph unicode="u" horiz-adv-x="1058" d="M23 655q0 -25 16 -24q14 0 31.5 23.5t37 52t41 52t46.5 23.5q14 0 14 -24q0 -8 -2 -21.5t-6 -27.5l-125 -416q-14 -45 -23.5 -86t-9.5 -82q0 -76 33 -117t90 -41q92 0 206.5 110.5t237.5 340.5l-32 -119q-20 -74 -27.5 -129t-7.5 -76q0 -129 98 -129q106 0 219 141 q51 66 73.5 110t22.5 63q0 25 -16 24q-16 0 -31.5 -24.5t-33 -54t-37 -54.5t-39.5 -25q-16 0 -17 35q0 10 6.5 51t22.5 107l131 518q10 37 10 39q0 4 -7 9t-15 5h-168q-29 0 -40 -17.5t-20.5 -55t-24.5 -99t-50 -149.5q-39 -98 -86 -177t-90 -132.5t-78 -82t-47 -28.5 q-10 0 -17.5 8t-7.5 19q0 23 7 51t20 69l88 281q23 72 35 125t12 92q0 131 -117 131q-57 0 -117.5 -33.5t-117.5 -101.5q-47 -55 -67.5 -97t-20.5 -57z" />
<glyph unicode="v" horiz-adv-x="847" d="M14 676q0 -25 15 -25q16 0 35.5 22.5t40 50.5t41 51.5t40.5 23.5q10 0 11 -23q0 -10 -11 -55l-100 -369q-14 -53 -24.5 -100t-10.5 -90q0 -94 48 -146.5t137 -52.5q98 0 201.5 70.5t189.5 208.5q43 70 75.5 143.5t55 146t34 139t11.5 120.5q0 80 -25.5 118.5t-70.5 38.5 q-37 0 -63 -30.5t-26 -79.5q0 -29 9.5 -58.5t19.5 -60.5t19.5 -64.5t9.5 -70.5q0 -57 -36 -157.5t-108 -201.5q-53 -74 -101 -111.5t-79 -37.5t-48 22.5t-17 57.5q0 61 37 196l69 242q20 70 34.5 126t14.5 103q0 125 -102 125q-66 0 -124 -34.5t-103 -81t-72 -91.5t-27 -65z " />
<glyph unicode="w" horiz-adv-x="1312" d="M20 651q0 -25 17 -24q14 0 34.5 25.5t42 56t45 56.5t46.5 26q10 0 10 -17q0 -37 -11 -76t-26 -82l-96 -301q-16 -53 -24.5 -102t-8.5 -84q0 -168 139 -168q109 0 209.5 107.5t210.5 324.5l-20 -110q-20 -109 -21 -185q0 -63 35 -99t100 -36q92 0 189.5 64.5t179.5 197.5 q53 86 91 167t61.5 153.5t35 131t11.5 99.5q0 78 -31 123t-76 45q-41 0 -67.5 -31.5t-26.5 -85.5q0 -31 10.5 -59.5t22.5 -58t22.5 -61.5t10.5 -64q0 -29 -10.5 -74t-31 -99.5t-51 -111.5t-69.5 -113q-37 -51 -72 -75.5t-61 -24.5q-20 0 -33.5 21.5t-13.5 62.5q0 25 5 68 t17 96l125 532q2 8 3 13.5t1 15.5q0 4 -10 9l-10 5h-166q-29 0 -41 -18.5t-23.5 -58t-26 -102t-46.5 -152.5q-41 -113 -87.5 -199t-89.5 -145.5t-76.5 -90t-48.5 -30.5q-12 0 -20 9t-8 19q0 16 5 50t15 67l103 334q23 70 35 123t12 94q0 66 -29 100.5t-86 34.5t-118.5 -36 t-116.5 -103q-47 -55 -69 -99t-22 -55z" />
<glyph unicode="x" horiz-adv-x="907" d="M-86 117q0 -72 34 -112t91 -40q43 0 80 21.5t73.5 62.5t76.5 102.5t89 141.5q23 -86 43.5 -147.5t46 -101.5t59.5 -59.5t83 -19.5q41 0 76.5 22.5t61.5 63.5t41 96.5t15 120.5q0 39 -22 39q-16 0 -21.5 -23.5t-9.5 -53t-13 -53t-34 -23.5q-29 0 -52.5 52t-51.5 171 l-37 151q53 121 96 179.5t57 58.5t17.5 -9t3.5 -32q0 -47 19.5 -72.5t47.5 -25.5q57 0 93 52t36 144q0 55 -28.5 89t-69.5 34q-78 0 -146.5 -83t-152.5 -247q-35 170 -86 253t-145 83q-47 0 -87 -23.5t-70 -64.5t-46 -94t-16 -113q0 -35 22 -34q16 0 22 17t13 48 q23 119 63 119q31 0 54 -82l92 -346q-74 -135 -122 -204t-87 -69q-14 0 -14 23t4 41t4 37q0 47 -21.5 71.5t-56.5 24.5q-47 0 -86 -52t-39 -134z" />
<glyph unicode="y" horiz-adv-x="833" d="M-233 -326q0 -57 37.5 -94t103.5 -37q74 0 143.5 38t142 113t150.5 186.5t170 258.5q141 227 214 389t73 267q0 72 -25.5 111.5t-68.5 39.5q-47 0 -76 -37t-29 -96q0 -43 20.5 -98.5t20.5 -126.5q0 -70 -47 -180.5t-147 -260.5l-3 125q-4 178 -10 305.5t-24.5 210 t-54 121.5t-97.5 39q-57 0 -114.5 -42t-106.5 -128q-27 -45 -38 -75.5t-11 -47.5q0 -27 18 -26q18 0 30.5 23.5t25 52t26.5 52t37 23.5q18 0 36.5 -44t33 -128t23.5 -203.5t9 -271.5q0 -117 -18 -205t-46 -146t-61.5 -87t-66.5 -29q-20 0 -37.5 17.5t-36 39t-42 40 t-56.5 18.5q-41 0 -69.5 -30t-28.5 -77z" />
<glyph unicode="z" horiz-adv-x="872" d="M-96 43q0 -23 16.5 -37t44.5 -14q37 0 71 22.5t77 63.5h41q39 0 79.5 -18.5t83.5 -40t89.5 -39t93.5 -17.5q49 0 93 21.5t78 56.5t54 81t20 93q0 55 -19 88t-36 33q-14 0 -14 -27q0 -6 1 -15t1 -20q0 -73 -55 -73h-2q-18 0 -39 8t-42.5 19.5t-46 19.5t-51.5 8 q-33 0 -65.5 -13.5t-69.5 -33t-81 -40t-97 -34.5q129 98 225.5 185.5t165 159t114.5 128t75 90.5q33 39 66.5 63.5t61 44t45 39t17.5 48.5q0 23 -13.5 38t-35.5 15q-33 0 -54.5 -20.5t-47.5 -53.5l-35 -41q-16 -2 -29.5 -3t-24.5 -1q-43 0 -89 17.5t-94 39t-97 40t-98 18.5 q-47 0 -89 -20.5t-73 -55.5t-49.5 -80t-18.5 -94q0 -53 13.5 -81.5t29.5 -28.5q23 0 23 26q0 14 -2 26.5t-2 22.5q0 23 12 36.5t33 13.5q18 0 39.5 -10.5t47 -21.5t57.5 -21.5t69 -10.5q104 0 293 86q-141 -111 -244 -206t-173.5 -169.5t-113.5 -125t-70 -66.5 q-76 -4 -117.5 -39t-41.5 -80z" />
<glyph unicode="{" d="M178 602q82 -6 134.5 -24.5t83 -54.5t43 -89t12.5 -131v-201q0 -98 18 -163.5t63.5 -106.5t120 -58.5t187.5 -17.5h10v58q-70 0 -114 14t-68.5 45t-32.5 81t-8 122v137q0 96 -9.5 168t-37 122t-79.5 81.5t-139 50.5q86 18 138.5 50t80 82t37 122t9.5 168v137q0 72 8 122 t32.5 82t68.5 46t114 14v58q-117 0 -193.5 -17.5t-123 -57.5t-64.5 -106.5t-18 -165.5v-200q0 -78 -11.5 -132.5t-42 -88t-84 -52t-135.5 -26.5v-68z" />
<glyph unicode="|" d="M424 -483h178v2048h-178v-2048z" />
<glyph unicode="}" d="M174 -186v-58h10q113 0 189 17.5t121 58.5t63 106.5t18 163.5v201q0 78 11.5 131t42 89t84 54.5t135.5 24.5v68q-82 8 -135.5 26.5t-84 52t-42 88t-11.5 132.5v200q0 98 -18 164t-63 107t-121 58.5t-189 17.5h-10v-58q70 0 114 -14t68.5 -46t32.5 -82t8 -122v-137 q0 -96 8.5 -167t36 -122t79.5 -83t141 -50q-88 -18 -140.5 -50t-80 -82t-36 -122t-8.5 -168v-137q0 -72 -8 -122t-32.5 -81t-68.5 -45t-114 -14z" />
<glyph unicode="~" horiz-adv-x="1705" d="M178 434q111 78 203 119t182 41q98 0 193.5 -33t201.5 -67q100 -35 191 -35q92 0 186.5 35.5t194.5 105.5v184q-104 -76 -196.5 -114.5t-182.5 -38.5q-76 0 -146.5 23.5t-146.5 50.5q-63 23 -134 41t-159 18q-176 0 -387 -143v-187z" />
<glyph unicode="&#xa1;" horiz-adv-x="530" d="M-8 106q0 -59 32.5 -94t84.5 -35q92 0 134 80t58 234q68 592 68 618q0 49 -31 49t-60.5 -72.5t-89.5 -219.5q-90 -219 -143 -355.5t-53 -204.5zM272 1165q0 -66 29 -100.5t78 -34.5t90 45t41 121q0 66 -27.5 100.5t-74.5 34.5q-55 0 -95.5 -45t-40.5 -121z" />
<glyph unicode="&#xa2;" horiz-adv-x="960" d="M160 553q0 -117 50 -186.5t142 -83.5l-63 -283h65l62 283q68 8 122 39.5t91 68.5t57.5 73t20.5 52q0 18 -17 19q-10 0 -29.5 -21.5t-46 -47.5t-59.5 -47.5t-70 -21.5q-25 0 -43 6l129 551q14 -23 23.5 -45t20 -40.5t25.5 -30t44 -11.5q37 0 58.5 25t21.5 66 q0 53 -42 89.5t-101 36.5h-29l55 244h-63l-58 -252q-84 -25 -151.5 -73t-115.5 -112.5t-73.5 -140t-25.5 -157.5zM354 586q0 45 11.5 96t31 101.5t48 96.5t65.5 83l-119 -517q-37 57 -37 140z" />
<glyph unicode="&#xa3;" horiz-adv-x="960" d="M-82 193q0 -88 54.5 -144.5t146.5 -56.5q72 0 135 32.5t129 98.5q78 -74 136.5 -116t129.5 -42q104 0 171 86t67 228q0 66 -15.5 104.5t-37.5 38.5q-14 0 -19.5 -10.5t-6.5 -25.5t-1 -36q0 -18 -6 -35q-14 -41 -53 -65.5t-97 -24.5q-70 0 -149 51q84 135 84 314h145 q16 18 21.5 37.5t5.5 46.5h-178q-10 100 -19.5 177t-9.5 132q0 123 32.5 189.5t75.5 66.5q27 0 32 -29.5t22 -79.5q16 -41 36.5 -62t57.5 -21t60.5 27.5t23.5 72.5q0 37 -15.5 67.5t-43 54t-65.5 37t-81 13.5q-76 0 -141.5 -35t-114.5 -101.5t-76.5 -162.5t-27.5 -219 q0 -29 1 -60.5t3 -66.5h-123q-20 -39 -21 -74v-10h152q2 -31 3 -49.5t1 -24.5q0 -76 -12 -176q-55 31 -103.5 48.5t-93.5 17.5t-84 -16.5t-68.5 -44.5t-46 -67.5t-16.5 -84.5zM98 182q0 49 22.5 78t57.5 29q27 0 52.5 -19.5t60.5 -58.5q-55 -121 -121 -121q-31 0 -51.5 25.5 t-20.5 66.5z" />
<glyph unicode="&#xa4;" horiz-adv-x="1241" d="M76 432l92 -92l203 205q109 -82 252 -82q137 0 249 82l203 -205l94 92l-204 205q80 106 79 248q0 139 -79 248l204 204l-94 93l-203 -203q-109 82 -251 82q-141 0 -250 -82l-203 203l-92 -93l203 -204q-80 -109 -80 -248q0 -141 80 -248zM332 885q0 59 22.5 111.5 t62.5 92t93 63.5t113 24q59 0 112 -24t93 -63.5t62.5 -92t22.5 -111.5t-22.5 -112.5t-62.5 -92.5t-92 -61.5t-113 -22.5t-113.5 22.5t-92.5 61.5t-62.5 92t-22.5 113z" />
<glyph unicode="&#xa5;" horiz-adv-x="1064" d="M-4 588h395q4 -20 4 -35v-16t-4 -23l-37 -184q-18 -98 -34.5 -154.5t-49.5 -73.5q-18 -10 -40.5 -12t-41 -6t-32 -14.5t-13.5 -34.5q0 -43 50 -43q16 0 68 9t147 9q90 0 145 -7t78 -7q43 0 43 41q0 33 -16.5 36t-43.5 7q-29 4 -45 21.5t-16 35.5q0 23 5 46.5t11 52.5 l72 352h389l19 86h-351l86 133h291l21 86h-254q78 117 133 189.5t100 97.5q14 8 31.5 12t33 11t26 18.5t10.5 33.5q0 31 -43 31q-14 0 -45 -4t-78 -4q-68 0 -110 5t-58 5q-45 0 -45 -37q0 -25 17 -33t36.5 -12t37 -14t17.5 -37q0 -23 -22.5 -60.5t-59.5 -97.5l-211 -344 l-100 424q-4 23 -8 40.5t-4 31.5q0 35 17.5 46t37.5 17.5t37.5 13.5t17.5 31q0 23 -9 30t-32 7q-16 0 -51 -6t-92 -6q-106 0 -167.5 9t-80.5 9q-39 0 -39 -43q0 -31 22.5 -38t39.5 -15q33 -16 40 -36.5t15 -49.5l57 -225h-252l-18 -86h293l35 -133h-359z" />
<glyph unicode="&#xa6;" d="M424 -350h178v758h-178v-758zM424 674h178v758h-178v-758z" />
<glyph unicode="&#xa7;" horiz-adv-x="819" d="M6 -170q0 -90 64.5 -154.5t181.5 -64.5q127 0 202.5 70.5t75.5 187.5q0 61 -23.5 133t-74.5 143q115 0 181.5 69t66.5 187q0 78 -32 150t-83 149l-119 185q-100 158 -100 241q0 63 36 102.5t93 39.5q37 0 60.5 -19.5t23.5 -42.5q0 -12 -8 -23.5t-17.5 -25.5t-17.5 -30.5 t-8 -39.5q0 -41 28.5 -70.5t65.5 -29.5q41 0 76 38t35 99q0 86 -62.5 144.5t-179.5 58.5q-123 0 -196.5 -71.5t-73.5 -186.5q0 -125 100 -270h-8q-111 0 -179.5 -71t-68.5 -187q0 -76 30.5 -145.5t80.5 -147.5l123 -191q41 -63 65.5 -115.5t24.5 -123.5q0 -68 -36 -110 t-95 -42q-41 0 -66 19.5t-25 48.5q0 14 8.5 28.5t19.5 31t19.5 33.5t8.5 40q0 47 -25.5 75.5t-62.5 28.5q-41 0 -75 -40t-34 -101zM186 614q0 47 33 81t76 34q63 0 160 -170q41 -70 61.5 -125t20.5 -102q0 -53 -27 -84t-68 -31q-49 0 -86 45t-84 125q-43 72 -64.5 130 t-21.5 97z" />
<glyph unicode="&#xa8;" d="M346 1225q0 -51 37 -87t84 -36q51 0 86 34.5t35 88.5q0 47 -36 82.5t-85 35.5q-47 0 -84 -36.5t-37 -81.5zM684 1225q0 -51 36 -87t83 -36q51 0 86 34.5t35 88.5q0 47 -36 82.5t-85 35.5q-47 0 -83 -36.5t-36 -81.5z" />
<glyph unicode="&#xa9;" horiz-adv-x="1683" d="M121 678q0 -147 54 -276.5t158.5 -234t233.5 -156.5t275 -52q147 0 276 52t232 157q104 104 158.5 236.5t54.5 273.5q0 143 -55.5 276t-157.5 236q-100 100 -232.5 155.5t-273.5 55.5q-145 0 -277.5 -55.5t-234.5 -157.5q-104 -104 -157.5 -235.5t-53.5 -274.5zM219 678 q0 125 46 237.5t136 204.5q88 90 203 137.5t240 47.5q123 0 236.5 -47.5t199.5 -133.5q88 -88 136 -204.5t48 -241.5q0 -123 -47 -236.5t-137 -205.5q-88 -90 -199.5 -136.5t-238.5 -46.5q-256 0 -439 183q-90 90 -137 201.5t-47 240.5zM416 670q0 -90 31.5 -169t88 -137.5 t133 -91t165.5 -32.5q225 0 350 213l-43 26q-113 -174 -277 -174q-123 0 -188.5 96.5t-65.5 282.5q0 369 236 369q102 0 171.5 -69t102.5 -204h47l-2 320h-41q-6 -35 -19 -48.5t-42 -13.5q-12 0 -31.5 10.5t-47.5 22.5t-65.5 22.5t-87.5 10.5q-88 0 -163.5 -33t-132 -91 t-88 -138t-31.5 -172z" />
<glyph unicode="&#xaa;" horiz-adv-x="815" d="M-12 764q0 -78 39 -123t92 -45q82 0 166 79t180 236l-27 -123q-8 -35 -14 -64.5t-6 -57.5q0 -29 17.5 -47.5t47.5 -18.5q47 0 100.5 27.5t102.5 83.5q37 45 54.5 78.5t17.5 39.5q0 18 -13 19q-10 0 -21 -16.5t-25.5 -35t-30 -35t-35.5 -16.5q-18 0 -19 35q0 8 2 22.5 t7 28.5l118 416q4 16 5.5 26.5t1.5 14.5q0 12 -35 12h-99q-23 0 -32 -2t-17 -16l-12 -27q-47 35 -107 35q-74 0 -158.5 -47t-164.5 -141q-135 -164 -135 -338zM190 805q0 39 23 109.5t74 156.5q100 168 184 168q57 0 57 -68q0 -35 -26.5 -102.5t-85.5 -161.5 q-55 -88 -96 -132t-80 -44q-49 0 -50 74z" />
<glyph unicode="&#xab;" horiz-adv-x="698" d="M27 461q68 -76 112.5 -136.5t73.5 -102.5t47.5 -64.5t34.5 -22.5q27 0 27 35q0 50 -111 283q106 111 157.5 184.5t51.5 110.5q0 29 -27 28q-12 0 -38.5 -22.5t-69.5 -63.5t-106.5 -99.5t-151.5 -129.5zM313 461q68 -76 113 -136.5t73.5 -102.5t47 -64.5t35.5 -22.5 q27 0 26 35q1 45 -112 283q211 217 211 295q0 29 -27 28q-12 0 -39 -22.5t-70 -63.5t-106.5 -99.5t-151.5 -129.5z" />
<glyph unicode="&#xac;" horiz-adv-x="1705" d="M254 696h1032v-336h166v502h-1198v-166z" />
<glyph unicode="&#xad;" horiz-adv-x="477" d="M0 348q0 -12 12 -12h348q6 0 14.5 7t12.5 19l51 187q4 12 4 14q0 10 -14 10h-348q-6 0 -14.5 -7t-12.5 -19l-51 -185q-2 -6 -2 -14z" />
<glyph unicode="&#xae;" horiz-adv-x="1683" d="M121 678q0 -297 213 -510q102 -102 230 -155.5t263 -53.5q309 0 510 199q109 106 167.5 240t58.5 272q0 147 -53.5 280t-151.5 234q-100 104 -234.5 160.5t-279.5 56.5t-277.5 -55.5t-234.5 -157.5q-102 -104 -156.5 -235.5t-54.5 -274.5zM219 678q0 127 46 238.5 t136 203.5q88 90 203 137.5t240 47.5q123 0 236.5 -47.5t199.5 -133.5q86 -88 135 -205.5t49 -240.5t-47 -236.5t-137 -205.5q-88 -90 -199.5 -136.5t-238.5 -46.5q-256 0 -439 183q-90 90 -137 201.5t-47 240.5zM467 287h389v47q-61 6 -84.5 25.5t-23.5 70.5v246h24 q150 0 182 -146q10 -47 8.5 -102t26.5 -102q39 -57 133 -58q170 0 170 174v23h-49q0 -133 -59 -133q-25 0 -35 13t-14.5 35.5t-6.5 51.5t-8 57q-18 82 -70.5 129.5t-146.5 71.5q147 27 215 74t68 135q0 82 -83 139.5t-237 57.5h-399v-49q66 -4 89.5 -23.5t23.5 -73.5v-520 q0 -53 -24 -72.5t-89 -23.5v-47zM748 723v258q0 68 94 68q78 0 123 -45.5t45 -112.5q0 -82 -53.5 -126t-155.5 -44h-19q-12 0 -34 2z" />
<glyph unicode="&#xaf;" d="M401 1149h443l26 147h-442z" />
<glyph unicode="&#xb0;" horiz-adv-x="673" d="M43 1163q0 -61 22.5 -115.5t62.5 -94.5t93 -62.5t115 -22.5q61 0 115.5 23.5t94.5 63.5t63.5 94.5t23.5 113.5q0 61 -23.5 115.5t-63.5 94.5t-93.5 63.5t-114.5 23.5t-115.5 -23.5t-94.5 -63.5t-62.5 -94t-22.5 -116zM152 1165q0 78 54 131.5t132 53.5t131 -53.5 t53 -131.5q0 -37 -14 -70.5t-39 -59t-58.5 -41t-72.5 -15.5q-78 0 -132 54t-54 132z" />
<glyph unicode="&#xb1;" horiz-adv-x="1705" d="M254 14h1198v168h-1198v-168zM254 707h514v-334h170v334h514v165h-514v334h-170v-334h-514v-165z" />
<glyph unicode="&#xb2;" horiz-adv-x="634" d="M-49 532q0 -18 31 -18q14 0 33.5 2t47.5 2h332q4 0 10.5 -1t18.5 -1q16 0 22.5 10.5t10.5 24.5l32 123q4 20 7.5 32.5t3.5 18.5q0 16 -17 16q-10 0 -16 -11t-15.5 -25.5t-25.5 -25.5t-49 -11h-242q47 47 93 81.5t88 60.5t77 45t60 38q129 92 129 221q0 86 -61.5 139.5 t-162.5 53.5q-55 0 -106 -19.5t-90 -60.5q-35 -31 -49.5 -62.5t-14.5 -42.5q0 -18 15 -18q12 0 23 17.5t34 47.5q27 37 59.5 55.5t67.5 18.5q47 0 74.5 -30.5t27.5 -90.5q0 -92 -63.5 -179t-177.5 -191q-102 -92 -154.5 -144.5t-52.5 -75.5z" />
<glyph unicode="&#xb3;" horiz-adv-x="634" d="M-78 487q0 -47 43 -74.5t121 -27.5q92 0 172 28.5t139.5 76t93 111t33.5 134.5q0 92 -58 147.5t-169 55.5h-31q-18 0 -47 -4q168 51 254 100t86 133q0 68 -52 108t-149 40q-53 0 -95 -16.5t-71.5 -39t-46 -44t-16.5 -31.5q0 -16 21 -17q10 0 23 14.5t31.5 32t43 32 t55.5 14.5q37 0 59.5 -25t22.5 -68q0 -59 -47 -112.5t-127 -85.5q-66 -29 -107 -43.5t-41 -36.5q0 -10 6.5 -15.5t12.5 -5.5q10 0 43 13.5t86 13.5q61 0 97 -40t36 -118q0 -61 -21.5 -116.5t-52 -98.5t-66.5 -67.5t-65 -24.5q-27 0 -39 15.5t-30 43.5q-23 31 -41.5 47.5 t-44.5 16.5q-27 0 -44.5 -18.5t-17.5 -47.5z" />
<glyph unicode="&#xb4;" d="M465 1059h86l262 184q55 39 55 90q0 37 -20.5 62.5t-44.5 25.5q-43 0 -90 -57z" />
<glyph unicode="&#xb6;" d="M55 1130q0 -147 98.5 -243t270.5 -103v-784h129v1380h170v-1380h129v1380h117v99h-523q-90 0 -162.5 -26t-123.5 -72t-78 -110.5t-27 -140.5z" />
<glyph unicode="&#xb7;" horiz-adv-x="479" d="M72 645q0 -68 47 -115t114 -47q68 0 115 47.5t47 114.5q0 68 -47 114t-115 46t-114.5 -46t-46.5 -114z" />
<glyph unicode="&#xb8;" d="M154 -375q72 -37 129 -59.5t114 -22.5q86 0 135.5 47.5t49.5 130.5q0 78 -41 125.5t-103 47.5q-10 0 -24.5 -2.5t-34.5 -6.5l29 115h-56l-53 -205q43 12 72 12q84 0 84 -79q0 -88 -78 -88q-49 0 -94 19t-99 54z" />
<glyph unicode="&#xb9;" horiz-adv-x="632" d="M25 532q0 -25 30 -24q14 0 81 7t188 7q53 0 85.5 -4t45.5 -4q35 0 34 29q0 20 -30 20q-49 4 -77 11.5t-28 35.5q0 10 3 28.5t14 47.5l153 571q4 14 6 23.5t2 13.5q0 23 -18 23q-12 0 -70.5 -25.5t-173.5 -62.5q-51 -16 -82.5 -26.5t-31.5 -33.5q0 -18 20 -18q12 0 29.5 5 t36 12.5t35 12.5t28.5 5q20 0 21 -10q0 -4 -3.5 -23.5t-11.5 -52.5l-123 -459q-10 -41 -28.5 -58.5t-61.5 -21.5q-35 -4 -54 -6t-19 -23z" />
<glyph unicode="&#xba;" horiz-adv-x="722" d="M4 881q0 -125 71.5 -205t192.5 -80q80 0 153 33t128 89t87 129t32 152q0 137 -75 215t-192 78q-74 0 -145.5 -30.5t-126.5 -86t-90 -131t-35 -163.5zM188 788q0 80 19.5 163t56.5 157q63 129 137 129q39 0 62.5 -34.5t23.5 -104.5q0 -162 -75 -320q-61 -127 -133 -127 q-90 0 -91 137z" />
<glyph unicode="&#xbb;" horiz-adv-x="698" d="M-39 162q0 -27 27 -27q12 0 38.5 21.5t69.5 62.5t106.5 99.5t151.5 132.5q-68 76 -111.5 136t-73.5 102t-48.5 64.5t-34.5 22.5q-10 0 -17.5 -10t-7.5 -27q0 -47 111 -280q-211 -217 -211 -297zM248 162q0 -27 26 -27q12 0 39 21.5t70 62.5t105.5 99.5t150.5 132.5 q-68 76 -112 136t-73.5 102t-48 64.5t-32.5 22.5q-10 0 -18.5 -10t-8.5 -27q0 -25 28.5 -94.5t84.5 -185.5q-211 -217 -211 -297z" />
<glyph unicode="&#xbc;" horiz-adv-x="1482" d="M23 582q0 -20 30 -21q12 0 76 6t180 6q51 0 82 -4t41 -4q35 0 35 27q0 16 -31 20q-45 2 -71.5 8.5t-26.5 34.5q0 20 14 70l148 535q8 25 8 34q0 20 -16 21q-12 0 -67.5 -23.5t-166.5 -58.5q-49 -16 -80 -25.5t-31 -29.5q0 -18 21 -19q12 0 28.5 5t34 11.5t34 11.5t26.5 5 q20 0 20 -8q0 -14 -14 -72l-117 -428q-10 -41 -27.5 -55.5t-58.5 -18.5q-35 -4 -53 -6t-18 -22zM330 -39h94l725 1366h-92zM877 254q0 -16 12 -20.5t35 -4.5h219q20 0 20 -8v-10q0 -4 -2 -14l-33 -113q-4 -18 -16 -28.5t-37 -14.5q-23 -4 -41 -4q-16 0 -16 -21q0 -18 24 -18 q10 0 60.5 4t148.5 4q33 0 54.5 -2t33.5 -2q20 0 21 16q0 14 -12.5 18.5t-26.5 5.5t-26.5 5t-12.5 21q0 6 4 22l31 115q6 16 8 20t21 4h63q14 0 18 19l9 31q0 2 1 3t1 3q0 8 -17 8h-55q-18 0 -18 10t2 19l55 204q4 8 4 15v12q0 14 -18 14q-8 0 -27 -6l-72 -18 q-27 -6 -37 -18.5t-14 -30.5l-49 -179q-4 -16 -7 -19t-22 -3h-213q115 121 207 207t156.5 142t99.5 85t35 37q0 12 -18 12h-19q-23 0 -32 -4t-19 -14l-436 -430q-18 -20 -32.5 -37t-14.5 -37z" />
<glyph unicode="&#xbd;" horiz-adv-x="1482" d="M23 582q0 -20 30 -21q12 0 76 6t180 6q51 0 82 -4t41 -4q35 0 35 27q0 16 -31 20q-45 2 -71.5 8.5t-26.5 34.5q0 20 14 70l148 535q8 25 8 34q0 20 -16 21q-12 0 -67.5 -23.5t-166.5 -58.5q-49 -16 -80 -25.5t-31 -29.5q0 -18 21 -19q12 0 28.5 5t34 11.5t34 11.5t26.5 5 q20 0 20 -8q0 -14 -14 -72l-117 -428q-10 -41 -27.5 -55.5t-58.5 -18.5q-35 -4 -53 -6t-18 -22zM330 -39h94l725 1366h-92zM829 16q0 -18 31 -18q12 0 31.5 2t46.5 2h315q4 0 10.5 -1t18.5 -1q16 0 21.5 9t9.5 24l30 114q10 41 11 48q0 14 -15 14q-10 0 -16 -10.5 t-15.5 -23.5t-24.5 -23.5t-46 -10.5h-231q45 45 89 77t84 56.5t72.5 43t57.5 34.5q123 86 123 205q0 82 -58.5 132t-154.5 50q-109 0 -189 -75q-31 -29 -45 -59t-14 -40q0 -16 14 -16q10 0 21.5 15.5t31.5 43.5q25 35 57.5 53.5t65.5 18.5q45 0 70.5 -29.5t25.5 -83.5 q0 -88 -60 -168t-169 -178q-98 -88 -148.5 -136t-50.5 -69z" />
<glyph unicode="&#xbe;" horiz-adv-x="1482" d="M-76 541q0 -43 42 -69t116 -26q88 0 164 26t132 71t89 104.5t33 124.5q0 86 -55.5 138.5t-159.5 52.5q-21 -1 -76 -7q162 49 242.5 95.5t80.5 124.5q0 63 -49 100t-141 37q-51 0 -91 -15.5t-68.5 -36t-44 -41t-15.5 -28.5q0 -16 18 -16q10 0 23.5 13t32 29.5t41 30 t51.5 13.5q35 0 57.5 -22.5t22.5 -63.5q0 -55 -45 -105.5t-123 -81.5q-61 -25 -100.5 -38t-39.5 -36q0 -18 17 -18q10 0 42 12.5t81 12.5q59 0 93 -38t34 -110q0 -57 -20.5 -109.5t-49.5 -91t-63.5 -62.5t-61.5 -24q-25 0 -37 13.5t-30 42.5q-37 59 -82 59 q-25 0 -42.5 -16.5t-17.5 -44.5zM330 -39h94l725 1366h-92zM877 254q0 -16 12 -20.5t35 -4.5h219q20 0 20 -8v-10q0 -4 -2 -14l-33 -113q-4 -18 -16 -28.5t-37 -14.5q-23 -4 -41 -4q-16 0 -16 -21q0 -18 24 -18q10 0 60.5 4t148.5 4q33 0 54.5 -2t33.5 -2q20 0 21 16 q0 14 -12.5 18.5t-26.5 5.5t-26.5 5t-12.5 21q0 6 4 22l31 115q6 16 8 20t21 4h63q14 0 18 19l9 31q0 2 1 3t1 3q0 8 -17 8h-55q-18 0 -18 10t2 19l55 204q4 8 4 15v12q0 14 -18 14q-8 0 -27 -6l-72 -18q-27 -6 -37 -18.5t-14 -30.5l-49 -179q-4 -16 -7 -19t-22 -3h-213 q115 121 207 207t156.5 142t99.5 85t35 37q0 12 -18 12h-19q-23 0 -32 -4t-19 -14l-436 -430q-18 -20 -32.5 -37t-14.5 -37z" />
<glyph unicode="&#xbf;" horiz-adv-x="626" d="M-20 289q0 -72 21.5 -130.5t58 -99.5t83.5 -63.5t101 -22.5q117 0 183.5 59.5t66.5 153.5q0 29 -15.5 47.5t-40.5 18.5q-31 0 -55.5 -21.5t-56.5 -60.5q-41 -51 -72 -80t-66 -29q-31 0 -53 26t-22 71q0 90 56 155.5t161 128.5q35 20 55.5 33.5t32.5 32t19 49.5t14 88 l32 268v19q0 39 -26 39q-18 0 -23.5 -18.5t-14.5 -46t-28.5 -62.5t-64.5 -68q-51 -37 -121 -80t-133 -129q-92 -127 -92 -278zM377 1167q0 -66 28.5 -100.5t77.5 -34.5t89 46t40 122q0 63 -27.5 98t-76.5 35q-53 0 -92 -45t-39 -121z" />
<glyph unicode="&#xc0;" horiz-adv-x="1005" d="M-106 43q0 -23 13 -30t40 -7q18 0 47 3t69 3q51 0 85 -3t55 -3h12q55 0 55 41q0 23 -20.5 32t-44 18t-44 23.5t-20.5 45.5q0 8 5.5 31.5t21.5 60.5l76 178h309l29 -221q4 -20 4 -33v-16q0 -57 -58 -70q-35 -6 -55 -19.5t-20 -45.5q0 -33 55 -33q20 0 79.5 7t162.5 7 q57 0 87.5 -4t41.5 -4q51 0 51 45q0 23 -11.5 30t-25.5 16t-28.5 27.5t-20.5 65.5l-135 1039q-8 59 -12.5 80.5t-41.5 21.5t-55 -17.5t-49 -78.5l-514 -1040q-18 -39 -44 -57.5t-47.5 -31t-36.5 -24.5t-15 -37zM289 543q45 98 94 199t106 210l50 -409h-250zM484 1712 q0 -23 14 -42t37 -42l209 -192h84l-197 303q-39 59 -80 59q-27 0 -47 -22.5t-20 -63.5z" />
<glyph unicode="&#xc1;" horiz-adv-x="1005" d="M-106 43q0 -23 13 -30t40 -7q18 0 47 3t69 3q51 0 85 -3t55 -3h12q55 0 55 41q0 23 -20.5 32t-44 18t-44 23.5t-20.5 45.5q0 8 5.5 31.5t21.5 60.5l76 178h309l29 -221q4 -20 4 -33v-16q0 -57 -58 -70q-35 -6 -55 -19.5t-20 -45.5q0 -33 55 -33q20 0 79.5 7t162.5 7 q57 0 87.5 -4t41.5 -4q51 0 51 45q0 23 -11.5 30t-25.5 16t-28.5 27.5t-20.5 65.5l-135 1039q-8 59 -12.5 80.5t-41.5 21.5t-55 -17.5t-49 -78.5l-514 -1040q-18 -39 -44 -57.5t-47.5 -31t-36.5 -24.5t-15 -37zM289 543q45 98 94 199t106 210l50 -409h-250zM533 1436h86 l262 184q55 39 55 90q0 37 -20.5 62.5t-44.5 25.5q-43 0 -90 -57z" />
<glyph unicode="&#xc2;" horiz-adv-x="1005" d="M-106 43q0 -23 13 -30t40 -7q18 0 47 3t69 3q51 0 85 -3t55 -3h12q55 0 55 41q0 23 -20.5 32t-44 18t-44 23.5t-20.5 45.5q0 8 5.5 31.5t21.5 60.5l76 178h309l29 -221q4 -20 4 -33v-16q0 -57 -58 -70q-35 -6 -55 -19.5t-20 -45.5q0 -33 55 -33q20 0 79.5 7t162.5 7 q57 0 87.5 -4t41.5 -4q51 0 51 45q0 23 -11.5 30t-25.5 16t-28.5 27.5t-20.5 65.5l-135 1039q-8 59 -12.5 80.5t-41.5 21.5t-55 -17.5t-49 -78.5l-514 -1040q-18 -39 -44 -57.5t-47.5 -31t-36.5 -24.5t-15 -37zM289 543q45 98 94 199t106 210l50 -409h-250zM428 1436h82 l197 180l135 -180h64l-131 350h-101z" />
<glyph unicode="&#xc3;" horiz-adv-x="1005" d="M-106 43q0 -23 13 -30t40 -7q18 0 47 3t69 3q51 0 85 -3t55 -3h12q55 0 55 41q0 23 -20.5 32t-44 18t-44 23.5t-20.5 45.5q0 8 5.5 31.5t21.5 60.5l76 178h309l29 -221q4 -20 4 -33v-16q0 -57 -58 -70q-35 -6 -55 -19.5t-20 -45.5q0 -33 55 -33q20 0 79.5 7t162.5 7 q57 0 87.5 -4t41.5 -4q51 0 51 45q0 23 -11.5 30t-25.5 16t-28.5 27.5t-20.5 65.5l-135 1039q-8 59 -12.5 80.5t-41.5 21.5t-55 -17.5t-49 -78.5l-514 -1040q-18 -39 -44 -57.5t-47.5 -31t-36.5 -24.5t-15 -37zM289 543q45 98 94 199t106 210l50 -409h-250zM474 1458h53 q10 47 27.5 70t50.5 23q8 0 18 -2.5t23 -6.5l84 -26q25 -6 45 -6q59 0 101 58t58 175h-53q-16 -84 -82 -84q-12 0 -49 10l-70 23q-23 8 -47 8q-59 0 -101 -60.5t-58 -181.5z" />
<glyph unicode="&#xc4;" horiz-adv-x="1005" d="M-106 43q0 -23 13 -30t40 -7q18 0 47 3t69 3q51 0 85 -3t55 -3h12q55 0 55 41q0 23 -20.5 32t-44 18t-44 23.5t-20.5 45.5q0 8 5.5 31.5t21.5 60.5l76 178h309l29 -221q4 -20 4 -33v-16q0 -57 -58 -70q-35 -6 -55 -19.5t-20 -45.5q0 -33 55 -33q20 0 79.5 7t162.5 7 q57 0 87.5 -4t41.5 -4q51 0 51 45q0 23 -11.5 30t-25.5 16t-28.5 27.5t-20.5 65.5l-135 1039q-8 59 -12.5 80.5t-41.5 21.5t-55 -17.5t-49 -78.5l-514 -1040q-18 -39 -44 -57.5t-47.5 -31t-36.5 -24.5t-15 -37zM289 543q45 98 94 199t106 210l50 -409h-250zM414 1602 q0 -51 37 -87t84 -36q51 0 86 34.5t35 88.5q0 47 -36 82.5t-85 35.5q-47 0 -84 -36.5t-37 -81.5zM752 1602q0 -51 36 -87t83 -36q51 0 86 34.5t35 88.5q0 47 -36 82.5t-85 35.5q-47 0 -83 -36.5t-36 -81.5z" />
<glyph unicode="&#xc5;" horiz-adv-x="1005" d="M-106 43q0 -23 13 -30t40 -7q18 0 47 3t69 3q51 0 85 -3t55 -3h12q55 0 55 41q0 23 -20.5 32t-44 18t-44 23.5t-20.5 45.5q0 8 5.5 31.5t21.5 60.5l76 178h309l29 -221q4 -20 4 -33v-16q0 -57 -58 -70q-35 -6 -55 -19.5t-20 -45.5q0 -33 55 -33q20 0 79.5 7t162.5 7 q57 0 87.5 -4t41.5 -4q51 0 51 45q0 23 -11.5 30t-25.5 16t-28.5 27.5t-20.5 65.5l-135 1039q-8 59 -12.5 80.5t-41.5 21.5t-55 -17.5t-49 -78.5l-514 -1040q-18 -39 -44 -57.5t-47.5 -31t-36.5 -24.5t-15 -37zM289 543q45 98 94 199t106 210l50 -409h-250zM430 1647 q0 -53 19.5 -99.5t53.5 -80t80 -53t99 -19.5t99 19.5t81 53t54.5 79.5t19.5 100q0 51 -19.5 97t-54.5 81t-81 54t-99 19t-98 -19t-80 -53t-54.5 -80t-19.5 -99zM541 1645q0 59 41 101t100 42t100 -42t41 -101t-41 -100.5t-100 -41.5t-100 41t-41 101z" />
<glyph unicode="&#xc6;" horiz-adv-x="1517" d="M-195 20q0 -27 35 -26q41 0 83 8t85 8q47 0 80 -8t55 -8q49 0 50 39q0 23 -15.5 34t-34 19t-34 20.5t-15.5 36.5q0 49 70 160l205 326h323l-92 -420q-14 -63 -36.5 -90t-65.5 -31q-37 -4 -59.5 -11t-22.5 -42q0 -43 55 -43q14 0 75.5 10t174.5 10q285 0 424 -8t155 -8 q25 0 35.5 14.5t22.5 55.5q23 82 31 139t8 67q0 47 -35 47q-18 0 -29.5 -12t-20.5 -32.5t-20.5 -44t-29.5 -44.5q-53 -66 -115 -81t-139 -15q-72 0 -112 9.5t-40 52.5q0 23 4 45t10 51l84 395h121q76 0 113 -21.5t37 -80.5q0 -23 -4 -43.5t-4 -42.5q0 -16 11 -27.5t27 -11.5 q31 0 40.5 39t19.5 100q25 137 46 211t21 92q0 51 -28 51q-18 0 -29.5 -13t-21 -33.5t-19.5 -42t-29 -40.5q-29 -29 -63.5 -35t-79.5 -6h-135l59 285q8 37 18.5 81t26.5 95h172q119 0 148 -84q8 -25 10 -52.5t4 -50t10.5 -36.5t30.5 -14q25 0 32 20.5t15 50.5l51 209 q2 8 2 19q0 29 -40 28h-783q-47 0 -78.5 2t-50.5 2q-49 0 -49 -43q0 -27 11.5 -34t24.5 -9t24.5 -7t11.5 -25q0 -4 -5.5 -20.5t-17.5 -35.5l-598 -909q-39 -57 -70.5 -82t-78.5 -45q-25 -10 -38.5 -23.5t-13.5 -40.5zM436 725l254 383q47 72 76 72q27 0 27 -52 q0 -10 -2.5 -31t-8.5 -50l-71 -322h-275z" />
<glyph unicode="&#xc7;" horiz-adv-x="1087" d="M39 471q0 -242 130 -379t363 -137q98 0 189.5 24.5t146.5 57.5q33 18 39 37.5t11 46.5l28 162q2 10 2 22v27q0 41 -30 41q-23 0 -39.5 -28t-40.5 -81q-23 -51 -42.5 -90t-44 -66.5t-59.5 -42t-88 -14.5q-139 0 -223 110.5t-84 311.5q0 158 61.5 308.5t176.5 271.5 q45 49 96 85t99 60.5t89 36.5t66 12q57 0 69.5 -32.5t12.5 -116.5v-62q0 -88 47 -88q27 0 34 22.5t15 63.5l29 133q6 29 7 51.5t1 34.5q0 41 -40 58.5t-132 17.5q-145 0 -284.5 -46t-258.5 -136q-346 -260 -346 -676zM207 -375q72 -37 129 -59.5t114 -22.5q86 0 135.5 47.5 t49.5 130.5q0 78 -41 125.5t-103 47.5q-10 0 -24.5 -2.5t-34.5 -6.5l29 115h-56l-53 -205q43 12 72 12q84 0 84 -79q0 -88 -78 -88q-49 0 -94 19t-99 54z" />
<glyph unicode="&#xc8;" horiz-adv-x="989" d="M-111 35q0 -43 60 -43q25 0 67.5 5t106.5 5h563q23 0 41 -2t35 -2q35 0 46 13.5t21 56.5q20 82 29.5 133t9.5 71t-10 35t-22 15q-16 0 -27.5 -12.5t-22 -33t-21.5 -44t-30 -46.5q-29 -35 -58.5 -54t-61 -28.5t-66.5 -11.5t-74 -2q-68 0 -106.5 9.5t-38.5 50.5q0 35 14 98 l88 395h115q76 0 113.5 -22.5t37.5 -81.5q0 -20 -4 -40t-4 -42q0 -16 12.5 -28.5t26.5 -12.5q31 0 40 42t22 107q23 127 44 199t21 100q0 45 -29 45q-18 0 -29.5 -13t-20.5 -32.5t-19 -41t-29 -40.5q-31 -29 -64.5 -36t-78.5 -7h-131l63 283q10 41 20.5 85t26.5 93h162 q119 0 147 -84q8 -27 10.5 -53.5t4.5 -49t10 -36.5t31 -14q25 0 32 20.5t15 50.5l51 209q2 8 2 19q0 29 -41 28h-641q-31 0 -62.5 1t-66.5 1q-47 0 -47 -41q0 -25 16.5 -33t35 -14t34.5 -19.5t16 -49.5q0 -29 -12 -84l-190 -844q-14 -63 -35 -87t-68 -32q-35 -6 -57.5 -12 t-22.5 -41zM475 1712q0 -23 14 -42t37 -42l209 -192h84l-197 303q-39 59 -80 59q-27 0 -47 -22.5t-20 -63.5z" />
<glyph unicode="&#xc9;" horiz-adv-x="989" d="M-111 35q0 -43 60 -43q25 0 67.5 5t106.5 5h563q23 0 41 -2t35 -2q35 0 46 13.5t21 56.5q20 82 29.5 133t9.5 71t-10 35t-22 15q-16 0 -27.5 -12.5t-22 -33t-21.5 -44t-30 -46.5q-29 -35 -58.5 -54t-61 -28.5t-66.5 -11.5t-74 -2q-68 0 -106.5 9.5t-38.5 50.5q0 35 14 98 l88 395h115q76 0 113.5 -22.5t37.5 -81.5q0 -20 -4 -40t-4 -42q0 -16 12.5 -28.5t26.5 -12.5q31 0 40 42t22 107q23 127 44 199t21 100q0 45 -29 45q-18 0 -29.5 -13t-20.5 -32.5t-19 -41t-29 -40.5q-31 -29 -64.5 -36t-78.5 -7h-131l63 283q10 41 20.5 85t26.5 93h162 q119 0 147 -84q8 -27 10.5 -53.5t4.5 -49t10 -36.5t31 -14q25 0 32 20.5t15 50.5l51 209q2 8 2 19q0 29 -41 28h-641q-31 0 -62.5 1t-66.5 1q-47 0 -47 -41q0 -25 16.5 -33t35 -14t34.5 -19.5t16 -49.5q0 -29 -12 -84l-190 -844q-14 -63 -35 -87t-68 -32q-35 -6 -57.5 -12 t-22.5 -41zM524 1436h86l262 184q55 39 55 90q0 37 -20.5 62.5t-44.5 25.5q-43 0 -90 -57z" />
<glyph unicode="&#xca;" horiz-adv-x="989" d="M-111 35q0 -43 60 -43q25 0 67.5 5t106.5 5h563q23 0 41 -2t35 -2q35 0 46 13.5t21 56.5q20 82 29.5 133t9.5 71t-10 35t-22 15q-16 0 -27.5 -12.5t-22 -33t-21.5 -44t-30 -46.5q-29 -35 -58.5 -54t-61 -28.5t-66.5 -11.5t-74 -2q-68 0 -106.5 9.5t-38.5 50.5q0 35 14 98 l88 395h115q76 0 113.5 -22.5t37.5 -81.5q0 -20 -4 -40t-4 -42q0 -16 12.5 -28.5t26.5 -12.5q31 0 40 42t22 107q23 127 44 199t21 100q0 45 -29 45q-18 0 -29.5 -13t-20.5 -32.5t-19 -41t-29 -40.5q-31 -29 -64.5 -36t-78.5 -7h-131l63 283q10 41 20.5 85t26.5 93h162 q119 0 147 -84q8 -27 10.5 -53.5t4.5 -49t10 -36.5t31 -14q25 0 32 20.5t15 50.5l51 209q2 8 2 19q0 29 -41 28h-641q-31 0 -62.5 1t-66.5 1q-47 0 -47 -41q0 -25 16.5 -33t35 -14t34.5 -19.5t16 -49.5q0 -29 -12 -84l-190 -844q-14 -63 -35 -87t-68 -32q-35 -6 -57.5 -12 t-22.5 -41zM419 1436h82l197 180l135 -180h64l-131 350h-101z" />
<glyph unicode="&#xcb;" horiz-adv-x="989" d="M-111 35q0 -43 60 -43q25 0 67.5 5t106.5 5h563q23 0 41 -2t35 -2q35 0 46 13.5t21 56.5q20 82 29.5 133t9.5 71t-10 35t-22 15q-16 0 -27.5 -12.5t-22 -33t-21.5 -44t-30 -46.5q-29 -35 -58.5 -54t-61 -28.5t-66.5 -11.5t-74 -2q-68 0 -106.5 9.5t-38.5 50.5q0 35 14 98 l88 395h115q76 0 113.5 -22.5t37.5 -81.5q0 -20 -4 -40t-4 -42q0 -16 12.5 -28.5t26.5 -12.5q31 0 40 42t22 107q23 127 44 199t21 100q0 45 -29 45q-18 0 -29.5 -13t-20.5 -32.5t-19 -41t-29 -40.5q-31 -29 -64.5 -36t-78.5 -7h-131l63 283q10 41 20.5 85t26.5 93h162 q119 0 147 -84q8 -27 10.5 -53.5t4.5 -49t10 -36.5t31 -14q25 0 32 20.5t15 50.5l51 209q2 8 2 19q0 29 -41 28h-641q-31 0 -62.5 1t-66.5 1q-47 0 -47 -41q0 -25 16.5 -33t35 -14t34.5 -19.5t16 -49.5q0 -29 -12 -84l-190 -844q-14 -63 -35 -87t-68 -32q-35 -6 -57.5 -12 t-22.5 -41zM405 1602q0 -51 37 -87t84 -36q51 0 86 34.5t35 88.5q0 47 -36 82.5t-85 35.5q-47 0 -84 -36.5t-37 -81.5zM743 1602q0 -51 36 -87t83 -36q51 0 86 34.5t35 88.5q0 47 -36 82.5t-85 35.5q-47 0 -83 -36.5t-36 -81.5z" />
<glyph unicode="&#xcc;" horiz-adv-x="638" d="M-90 35q0 -43 51 -43q16 0 62.5 9t132.5 9q115 0 178 -7t80 -7q41 0 41 41q0 33 -14.5 35t-37 8t-39 22.5t-16.5 32.5q0 18 3 47t9 58l193 837q14 57 33.5 87t62.5 40q33 8 53.5 13.5t20.5 35.5q0 37 -51 37q-12 0 -66.5 -8t-154.5 -8q-104 0 -153.5 6t-57.5 6 q-43 0 -43 -39q0 -23 15 -30t32.5 -12t33 -15t15.5 -41q0 -16 -10 -68l-201 -874q-6 -31 -14.5 -52.5t-19.5 -35t-27.5 -20.5t-38.5 -11q-35 -6 -53.5 -13t-18.5 -40zM303 1712q0 -23 14 -42t37 -42l209 -192h84l-197 303q-39 59 -80 59q-27 0 -47 -22.5t-20 -63.5z" />
<glyph unicode="&#xcd;" horiz-adv-x="638" d="M-90 35q0 -43 51 -43q16 0 62.5 9t132.5 9q115 0 178 -7t80 -7q41 0 41 41q0 33 -14.5 35t-37 8t-39 22.5t-16.5 32.5q0 18 3 47t9 58l193 837q14 57 33.5 87t62.5 40q33 8 53.5 13.5t20.5 35.5q0 37 -51 37q-12 0 -66.5 -8t-154.5 -8q-104 0 -153.5 6t-57.5 6 q-43 0 -43 -39q0 -23 15 -30t32.5 -12t33 -15t15.5 -41q0 -16 -10 -68l-201 -874q-6 -31 -14.5 -52.5t-19.5 -35t-27.5 -20.5t-38.5 -11q-35 -6 -53.5 -13t-18.5 -40zM352 1436h86l262 184q55 39 55 90q0 37 -20.5 62.5t-44.5 25.5q-43 0 -90 -57z" />
<glyph unicode="&#xce;" horiz-adv-x="638" d="M-90 35q0 -43 51 -43q16 0 62.5 9t132.5 9q115 0 178 -7t80 -7q41 0 41 41q0 33 -14.5 35t-37 8t-39 22.5t-16.5 32.5q0 18 3 47t9 58l193 837q14 57 33.5 87t62.5 40q33 8 53.5 13.5t20.5 35.5q0 37 -51 37q-12 0 -66.5 -8t-154.5 -8q-104 0 -153.5 6t-57.5 6 q-43 0 -43 -39q0 -23 15 -30t32.5 -12t33 -15t15.5 -41q0 -16 -10 -68l-201 -874q-6 -31 -14.5 -52.5t-19.5 -35t-27.5 -20.5t-38.5 -11q-35 -6 -53.5 -13t-18.5 -40zM247 1436h82l197 180l135 -180h64l-131 350h-101z" />
<glyph unicode="&#xcf;" horiz-adv-x="638" d="M-90 35q0 -43 51 -43q16 0 62.5 9t132.5 9q115 0 178 -7t80 -7q41 0 41 41q0 33 -14.5 35t-37 8t-39 22.5t-16.5 32.5q0 18 3 47t9 58l193 837q14 57 33.5 87t62.5 40q33 8 53.5 13.5t20.5 35.5q0 37 -51 37q-12 0 -66.5 -8t-154.5 -8q-104 0 -153.5 6t-57.5 6 q-43 0 -43 -39q0 -23 15 -30t32.5 -12t33 -15t15.5 -41q0 -16 -10 -68l-201 -874q-6 -31 -14.5 -52.5t-19.5 -35t-27.5 -20.5t-38.5 -11q-35 -6 -53.5 -13t-18.5 -40zM233 1602q0 -51 37 -87t84 -36q51 0 86 34.5t35 88.5q0 47 -36 82.5t-85 35.5q-47 0 -84 -36.5t-37 -81.5 zM571 1602q0 -51 36 -87t83 -36q51 0 86 34.5t35 88.5q0 47 -36 82.5t-85 35.5q-47 0 -83 -36.5t-36 -81.5z" />
<glyph unicode="&#xd0;" horiz-adv-x="1261" d="M-96 33q0 -23 6 -29t22 -6t73.5 6t162.5 6q68 0 139.5 -5t147.5 -5q172 0 295.5 35t228.5 137q49 49 91 116.5t73 145.5t48 165t17 175q0 248 -127 381t-374 133q-53 0 -118 -4t-138 -4q-100 0 -157.5 5t-74.5 5q-27 0 -37 -8t-10 -31q0 -27 17.5 -35t39 -14t39 -16 t17.5 -41t-3 -49.5t-6 -24.5l-81 -354h-175l-22 -90h176l-88 -379q-14 -61 -27.5 -96t-52.5 -52q-23 -8 -41 -12t-32.5 -10t-21.5 -16.5t-7 -28.5zM336 176q0 18 3 35t7 33l88 383h211l21 90h-213l77 346q8 37 16.5 63.5t22 44t35 24.5t55.5 7q135 0 207 -89t72 -255 q0 -92 -14.5 -184t-38 -176t-56 -155t-69.5 -120q-102 -137 -281 -137q-72 0 -107.5 12.5t-35.5 77.5z" />
<glyph unicode="&#xd1;" horiz-adv-x="1148" d="M-104 39q0 -45 45 -45q20 0 58 4t95 4q61 0 95 -3t42 -3q43 0 43 43q0 33 -22.5 36t-58.5 9q-47 10 -48 70q0 2 5.5 44t17.5 115.5t33.5 178t56.5 231.5l82 305l381 -999q10 -29 24.5 -46.5t38.5 -17.5q25 0 38.5 13.5t22.5 45t18 83t26 126.5q125 602 190 836 q16 53 33.5 85t52.5 42q23 6 40.5 9t28.5 8.5t17 14.5t6 25q0 37 -49 37q-18 0 -60 -5t-108 -5q-45 0 -74.5 4t-45.5 4q-41 0 -41 -41q0 -31 21.5 -32t57.5 -7q51 -10 52 -63q0 -37 -37 -213t-123 -492q-86 205 -165 416t-155 434q-61 -6 -100 -6q-76 0 -126 6t-75 6 q-23 0 -35 -9t-12 -38q0 -25 15.5 -32t35 -13t35 -17t15.5 -42q0 -33 -9 -64l-208 -868q-25 -100 -74 -115q-45 -14 -70.5 -20t-25.5 -39zM545 1458h53q10 47 27.5 70t50.5 23q8 0 18 -2.5t23 -6.5l84 -26q25 -6 45 -6q59 0 101 58t58 175h-53q-16 -84 -82 -84q-12 0 -49 10 l-70 23q-23 8 -47 8q-59 0 -101 -60.5t-58 -181.5z" />
<glyph unicode="&#xd2;" horiz-adv-x="1255" d="M45 580q0 -143 38 -259t104.5 -197t157.5 -125t200 -44q262 0 454 215q203 225 203 541q0 137 -39 251.5t-107.5 195.5t-161.5 126t-202 45q-127 0 -244.5 -56t-206.5 -155.5t-142.5 -238t-53.5 -299.5zM311 410q0 160 35 320.5t94 299.5q49 111 121 170.5t150 59.5 q102 0 161.5 -94.5t59.5 -280.5q0 -63 -7 -135t-20.5 -145t-32 -143.5t-43.5 -131.5q-53 -143 -134 -215t-165 -72q-100 0 -159.5 93t-59.5 274zM609 1712q0 -23 14 -42t37 -42l209 -192h84l-197 303q-39 59 -80 59q-27 0 -47 -22.5t-20 -63.5z" />
<glyph unicode="&#xd3;" horiz-adv-x="1255" d="M45 580q0 -143 38 -259t104.5 -197t157.5 -125t200 -44q262 0 454 215q203 225 203 541q0 137 -39 251.5t-107.5 195.5t-161.5 126t-202 45q-127 0 -244.5 -56t-206.5 -155.5t-142.5 -238t-53.5 -299.5zM311 410q0 160 35 320.5t94 299.5q49 111 121 170.5t150 59.5 q102 0 161.5 -94.5t59.5 -280.5q0 -63 -7 -135t-20.5 -145t-32 -143.5t-43.5 -131.5q-53 -143 -134 -215t-165 -72q-100 0 -159.5 93t-59.5 274zM658 1436h86l262 184q55 39 55 90q0 37 -20.5 62.5t-44.5 25.5q-43 0 -90 -57z" />
<glyph unicode="&#xd4;" horiz-adv-x="1255" d="M45 580q0 -143 38 -259t104.5 -197t157.5 -125t200 -44q262 0 454 215q203 225 203 541q0 137 -39 251.5t-107.5 195.5t-161.5 126t-202 45q-127 0 -244.5 -56t-206.5 -155.5t-142.5 -238t-53.5 -299.5zM311 410q0 160 35 320.5t94 299.5q49 111 121 170.5t150 59.5 q102 0 161.5 -94.5t59.5 -280.5q0 -63 -7 -135t-20.5 -145t-32 -143.5t-43.5 -131.5q-53 -143 -134 -215t-165 -72q-100 0 -159.5 93t-59.5 274zM553 1436h82l197 180l135 -180h64l-131 350h-101z" />
<glyph unicode="&#xd5;" horiz-adv-x="1255" d="M45 580q0 -143 38 -259t104.5 -197t157.5 -125t200 -44q262 0 454 215q203 225 203 541q0 137 -39 251.5t-107.5 195.5t-161.5 126t-202 45q-127 0 -244.5 -56t-206.5 -155.5t-142.5 -238t-53.5 -299.5zM311 410q0 160 35 320.5t94 299.5q49 111 121 170.5t150 59.5 q102 0 161.5 -94.5t59.5 -280.5q0 -63 -7 -135t-20.5 -145t-32 -143.5t-43.5 -131.5q-53 -143 -134 -215t-165 -72q-100 0 -159.5 93t-59.5 274zM599 1458h53q10 47 27.5 70t50.5 23q8 0 18 -2.5t23 -6.5l84 -26q25 -6 45 -6q59 0 101 58t58 175h-53q-16 -84 -82 -84 q-12 0 -49 10l-70 23q-23 8 -47 8q-59 0 -101 -60.5t-58 -181.5z" />
<glyph unicode="&#xd6;" horiz-adv-x="1255" d="M45 580q0 -143 38 -259t104.5 -197t157.5 -125t200 -44q262 0 454 215q203 225 203 541q0 137 -39 251.5t-107.5 195.5t-161.5 126t-202 45q-127 0 -244.5 -56t-206.5 -155.5t-142.5 -238t-53.5 -299.5zM311 410q0 160 35 320.5t94 299.5q49 111 121 170.5t150 59.5 q102 0 161.5 -94.5t59.5 -280.5q0 -63 -7 -135t-20.5 -145t-32 -143.5t-43.5 -131.5q-53 -143 -134 -215t-165 -72q-100 0 -159.5 93t-59.5 274zM539 1602q0 -51 37 -87t84 -36q51 0 86 34.5t35 88.5q0 47 -36 82.5t-85 35.5q-47 0 -84 -36.5t-37 -81.5zM877 1602 q0 -51 36 -87t83 -36q51 0 86 34.5t35 88.5q0 47 -36 82.5t-85 35.5q-47 0 -83 -36.5t-36 -81.5z" />
<glyph unicode="&#xd7;" horiz-adv-x="1705" d="M287 152l116 -119l459 461l461 -461l117 119l-459 458l459 461l-117 117l-461 -459l-459 459l-116 -117l458 -461z" />
<glyph unicode="&#xd8;" horiz-adv-x="1255" d="M-4 -190h102l166 241q139 -96 281 -96q262 0 454 215q203 225 203 541q0 270 -160 460l199 289h-111l-153 -229q-133 98 -272 98q-137 0 -257 -57.5t-210.5 -158.5t-142.5 -240.5t-52 -301.5q0 -287 160 -465zM311 424q0 135 29 283.5t80 277.5q53 137 129 206t162 69 q61 0 109 -37t77 -109l-578 -831q-4 41 -6 75.5t-2 65.5zM350 176l576 825q4 -27 6 -51t2 -49q0 -70 -8 -144.5t-21.5 -149.5t-33 -145.5t-42.5 -131.5q-53 -143 -134 -215t-165 -72q-121 0 -180 133z" />
<glyph unicode="&#xd9;" horiz-adv-x="1161" d="M88 307q0 -168 102.5 -257t298.5 -89q115 0 193 33t131 98.5t90 164.5t68 232l108 465q23 92 38.5 149.5t49.5 78.5q16 10 36 12t36 6t26.5 14.5t10.5 34.5q0 41 -45 41q-25 0 -50.5 -5t-54.5 -5q-74 0 -119.5 4t-64.5 4q-47 0 -47 -39q0 -18 6 -27.5t17.5 -12.5t27 -4 t33.5 -5q53 -14 53 -63q0 -20 -7 -55l-17 -85l-117 -516q-47 -209 -129 -318.5t-227 -109.5q-96 0 -148.5 55.5t-52.5 157.5q0 41 11 105.5t34 156.5l135 549q16 61 34.5 86t67.5 33q37 6 58.5 12t21.5 41q0 41 -51 41q-10 0 -66.5 -8t-166.5 -8q-100 0 -149.5 6t-57.5 6 q-49 0 -49 -45q0 -25 16 -32t35.5 -13t36 -18.5t16.5 -49.5q0 -10 -4 -45.5t-18 -89.5l-99 -387q-23 -86 -37 -159.5t-14 -139.5zM561 1712q0 -23 14 -42t37 -42l209 -192h84l-197 303q-39 59 -80 59q-27 0 -47 -22.5t-20 -63.5z" />
<glyph unicode="&#xda;" horiz-adv-x="1161" d="M88 307q0 -168 102.5 -257t298.5 -89q115 0 193 33t131 98.5t90 164.5t68 232l108 465q23 92 38.5 149.5t49.5 78.5q16 10 36 12t36 6t26.5 14.5t10.5 34.5q0 41 -45 41q-25 0 -50.5 -5t-54.5 -5q-74 0 -119.5 4t-64.5 4q-47 0 -47 -39q0 -18 6 -27.5t17.5 -12.5t27 -4 t33.5 -5q53 -14 53 -63q0 -20 -7 -55l-17 -85l-117 -516q-47 -209 -129 -318.5t-227 -109.5q-96 0 -148.5 55.5t-52.5 157.5q0 41 11 105.5t34 156.5l135 549q16 61 34.5 86t67.5 33q37 6 58.5 12t21.5 41q0 41 -51 41q-10 0 -66.5 -8t-166.5 -8q-100 0 -149.5 6t-57.5 6 q-49 0 -49 -45q0 -25 16 -32t35.5 -13t36 -18.5t16.5 -49.5q0 -10 -4 -45.5t-18 -89.5l-99 -387q-23 -86 -37 -159.5t-14 -139.5zM610 1436h86l262 184q55 39 55 90q0 37 -20.5 62.5t-44.5 25.5q-43 0 -90 -57z" />
<glyph unicode="&#xdb;" horiz-adv-x="1161" d="M88 307q0 -168 102.5 -257t298.5 -89q115 0 193 33t131 98.5t90 164.5t68 232l108 465q23 92 38.5 149.5t49.5 78.5q16 10 36 12t36 6t26.5 14.5t10.5 34.5q0 41 -45 41q-25 0 -50.5 -5t-54.5 -5q-74 0 -119.5 4t-64.5 4q-47 0 -47 -39q0 -18 6 -27.5t17.5 -12.5t27 -4 t33.5 -5q53 -14 53 -63q0 -20 -7 -55l-17 -85l-117 -516q-47 -209 -129 -318.5t-227 -109.5q-96 0 -148.5 55.5t-52.5 157.5q0 41 11 105.5t34 156.5l135 549q16 61 34.5 86t67.5 33q37 6 58.5 12t21.5 41q0 41 -51 41q-10 0 -66.5 -8t-166.5 -8q-100 0 -149.5 6t-57.5 6 q-49 0 -49 -45q0 -25 16 -32t35.5 -13t36 -18.5t16.5 -49.5q0 -10 -4 -45.5t-18 -89.5l-99 -387q-23 -86 -37 -159.5t-14 -139.5zM505 1436h82l197 180l135 -180h64l-131 350h-101z" />
<glyph unicode="&#xdc;" horiz-adv-x="1161" d="M88 307q0 -168 102.5 -257t298.5 -89q115 0 193 33t131 98.5t90 164.5t68 232l108 465q23 92 38.5 149.5t49.5 78.5q16 10 36 12t36 6t26.5 14.5t10.5 34.5q0 41 -45 41q-25 0 -50.5 -5t-54.5 -5q-74 0 -119.5 4t-64.5 4q-47 0 -47 -39q0 -18 6 -27.5t17.5 -12.5t27 -4 t33.5 -5q53 -14 53 -63q0 -20 -7 -55l-17 -85l-117 -516q-47 -209 -129 -318.5t-227 -109.5q-96 0 -148.5 55.5t-52.5 157.5q0 41 11 105.5t34 156.5l135 549q16 61 34.5 86t67.5 33q37 6 58.5 12t21.5 41q0 41 -51 41q-10 0 -66.5 -8t-166.5 -8q-100 0 -149.5 6t-57.5 6 q-49 0 -49 -45q0 -25 16 -32t35.5 -13t36 -18.5t16.5 -49.5q0 -10 -4 -45.5t-18 -89.5l-99 -387q-23 -86 -37 -159.5t-14 -139.5zM491 1602q0 -51 37 -87t84 -36q51 0 86 34.5t35 88.5q0 47 -36 82.5t-85 35.5q-47 0 -84 -36.5t-37 -81.5zM829 1602q0 -51 36 -87t83 -36 q51 0 86 34.5t35 88.5q0 47 -36 82.5t-85 35.5q-47 0 -83 -36.5t-36 -81.5z" />
<glyph unicode="&#xdd;" horiz-adv-x="882" d="M23 1262q0 -35 23.5 -42.5t39.5 -15.5q33 -14 39 -35.5t14 -50.5l133 -504q4 -18 8.5 -32.5t4.5 -26.5v-16t-4 -25l-33 -184q-16 -100 -35.5 -155.5t-50.5 -72.5q-18 -10 -40 -12t-41.5 -6t-32.5 -14.5t-13 -34.5q0 -43 49 -43q18 0 68.5 9t138.5 9q111 0 173 -7t81 -7 q43 0 43 41q0 33 -15.5 36t-42.5 7q-29 4 -45 21.5t-16 35.5q0 25 6 48.5t10 50.5l72 352l123 188q100 154 167.5 249t108.5 130q23 20 47.5 29.5t44 17.5t32 19.5t12.5 33.5q0 31 -43 31q-14 0 -45 -4t-80 -4q-74 0 -117 5t-57 5q-45 0 -45 -37q0 -25 17 -33t36.5 -12 t37 -14t17.5 -37q0 -23 -22.5 -60.5t-59.5 -97.5l-201 -327l-96 407q-4 23 -8 40.5t-4 29.5q0 35 17.5 47t39 17.5t39 13.5t17.5 32q0 23 -9.5 30t-31.5 7q-14 0 -51 -5t-101 -5q-131 0 -198.5 8t-80.5 8q-41 0 -40 -38zM471 1436h86l262 184q55 39 55 90q0 37 -20.5 62.5 t-44.5 25.5q-43 0 -90 -57z" />
<glyph unicode="&#xde;" horiz-adv-x="1091" d="M-96 33q0 -39 49 -39q12 0 60 7t137 7q119 0 183 -7t79 -7q45 0 45 43q0 31 -22.5 36t-63.5 15q-47 10 -47 59q0 20 16 91l16 63h68q133 0 233.5 13.5t171.5 50.5q96 47 152.5 146t56.5 216q0 145 -85 229t-240 84q-33 0 -64 -4t-63 -4q-37 0 -51.5 4t-14.5 15v4l2 16 q4 53 31 88t74 45q33 6 52 14.5t19 41.5q0 41 -51 40q-12 0 -60 -8t-136 -8q-106 0 -164 7t-68 7q-47 0 -47 -41q0 -18 5 -26t13.5 -12.5t20.5 -5.5t25 -7q39 -14 38 -67q0 -23 -6 -55.5t-16 -79.5l-174 -783q-14 -66 -36 -94.5t-69 -38.5q-31 -6 -50 -13t-19 -42zM375 391 l117 537q41 6 72.5 10t53.5 4q162 0 162 -194q0 -176 -82 -269.5t-239 -93.5q-41 0 -84 6z" />
<glyph unicode="&#xdf;" horiz-adv-x="1099" d="M-420 -252q0 -86 55.5 -138t157.5 -52q328 0 486 630l184 748q98 401 274 401q59 0 99.5 -45t40.5 -123q0 -55 -13.5 -93t-39 -64.5t-62.5 -44t-84 -29.5q-90 -25 -137 -68t-47 -133q0 -70 37.5 -130t97.5 -138l67 -92q37 -49 56.5 -100.5t19.5 -92.5q0 -59 -25.5 -92 t-60.5 -33q-33 0 -68.5 39t-82.5 115q-41 66 -65 96.5t-46 30.5q-59 0 -59 -147q0 -106 75.5 -158.5t212.5 -52.5q78 0 142.5 24.5t109.5 69.5t69.5 107.5t24.5 135.5q0 133 -92 242l-78 90q-43 49 -69.5 88t-26.5 76q0 29 14.5 44t39 24.5t57.5 15.5t71 16 q111 29 167.5 97.5t56.5 167.5q0 113 -81 177t-235 64q-481 0 -616 -512h-62q-39 0 -57 -9t-18 -50q0 -18 7 -22.5t23 -4.5h84l-200 -821q-86 -360 -150 -360q-39 0 -39 63q0 12 1 28.5t1 37.5q0 53 -29.5 86.5t-72.5 33.5q-47 0 -81 -39.5t-34 -103.5z" />
<glyph unicode="&#xe0;" horiz-adv-x="1085" d="M-16 199q0 -113 51 -176.5t123 -63.5q111 0 222.5 112.5t240.5 338.5l-37 -177q-10 -49 -18.5 -92t-8.5 -84q0 -39 23.5 -65.5t64.5 -26.5q63 0 133 39t135 119q51 63 74 111.5t23 58.5q0 27 -17 26q-14 0 -29.5 -23.5t-34 -51t-39 -50t-46.5 -22.5q-16 0 -20.5 11.5 t-4.5 37.5q0 12 2 32.5t8 43.5l160 594q6 23 7 37t1 20q0 18 -47 19h-131q-31 0 -43 -3t-22 -26l-17 -37q-61 49 -141 49q-100 0 -213 -66.5t-219 -201.5q-180 -229 -180 -483zM254 258q0 55 29.5 156.5t99.5 224.5q131 240 246 240q76 0 76 -99q0 -51 -37 -146t-115 -231 q-72 -125 -127 -187t-107 -62q-66 0 -65 104zM447 1335q0 -23 14 -42t37 -42l209 -192h84l-197 303q-39 59 -80 59q-27 0 -47 -22.5t-20 -63.5z" />
<glyph unicode="&#xe1;" horiz-adv-x="1085" d="M-16 199q0 -113 51 -176.5t123 -63.5q111 0 222.5 112.5t240.5 338.5l-37 -177q-10 -49 -18.5 -92t-8.5 -84q0 -39 23.5 -65.5t64.5 -26.5q63 0 133 39t135 119q51 63 74 111.5t23 58.5q0 27 -17 26q-14 0 -29.5 -23.5t-34 -51t-39 -50t-46.5 -22.5q-16 0 -20.5 11.5 t-4.5 37.5q0 12 2 32.5t8 43.5l160 594q6 23 7 37t1 20q0 18 -47 19h-131q-31 0 -43 -3t-22 -26l-17 -37q-61 49 -141 49q-100 0 -213 -66.5t-219 -201.5q-180 -229 -180 -483zM254 258q0 55 29.5 156.5t99.5 224.5q131 240 246 240q76 0 76 -99q0 -51 -37 -146t-115 -231 q-72 -125 -127 -187t-107 -62q-66 0 -65 104zM496 1059h86l262 184q55 39 55 90q0 37 -20.5 62.5t-44.5 25.5q-43 0 -90 -57z" />
<glyph unicode="&#xe2;" horiz-adv-x="1085" d="M-16 199q0 -113 51 -176.5t123 -63.5q111 0 222.5 112.5t240.5 338.5l-37 -177q-10 -49 -18.5 -92t-8.5 -84q0 -39 23.5 -65.5t64.5 -26.5q63 0 133 39t135 119q51 63 74 111.5t23 58.5q0 27 -17 26q-14 0 -29.5 -23.5t-34 -51t-39 -50t-46.5 -22.5q-16 0 -20.5 11.5 t-4.5 37.5q0 12 2 32.5t8 43.5l160 594q6 23 7 37t1 20q0 18 -47 19h-131q-31 0 -43 -3t-22 -26l-17 -37q-61 49 -141 49q-100 0 -213 -66.5t-219 -201.5q-180 -229 -180 -483zM254 258q0 55 29.5 156.5t99.5 224.5q131 240 246 240q76 0 76 -99q0 -51 -37 -146t-115 -231 q-72 -125 -127 -187t-107 -62q-66 0 -65 104zM391 1059h82l197 180l135 -180h64l-131 350h-101z" />
<glyph unicode="&#xe3;" horiz-adv-x="1085" d="M-16 199q0 -113 51 -176.5t123 -63.5q111 0 222.5 112.5t240.5 338.5l-37 -177q-10 -49 -18.5 -92t-8.5 -84q0 -39 23.5 -65.5t64.5 -26.5q63 0 133 39t135 119q51 63 74 111.5t23 58.5q0 27 -17 26q-14 0 -29.5 -23.5t-34 -51t-39 -50t-46.5 -22.5q-16 0 -20.5 11.5 t-4.5 37.5q0 12 2 32.5t8 43.5l160 594q6 23 7 37t1 20q0 18 -47 19h-131q-31 0 -43 -3t-22 -26l-17 -37q-61 49 -141 49q-100 0 -213 -66.5t-219 -201.5q-180 -229 -180 -483zM254 258q0 55 29.5 156.5t99.5 224.5q131 240 246 240q76 0 76 -99q0 -51 -37 -146t-115 -231 q-72 -125 -127 -187t-107 -62q-66 0 -65 104zM437 1081h53q10 47 27.5 70t50.5 23q8 0 18 -2.5t23 -6.5l84 -26q25 -6 45 -6q59 0 101 58t58 175h-53q-16 -84 -82 -84q-12 0 -49 10l-70 23q-23 8 -47 8q-59 0 -101 -60.5t-58 -181.5z" />
<glyph unicode="&#xe4;" horiz-adv-x="1085" d="M-16 199q0 -113 51 -176.5t123 -63.5q111 0 222.5 112.5t240.5 338.5l-37 -177q-10 -49 -18.5 -92t-8.5 -84q0 -39 23.5 -65.5t64.5 -26.5q63 0 133 39t135 119q51 63 74 111.5t23 58.5q0 27 -17 26q-14 0 -29.5 -23.5t-34 -51t-39 -50t-46.5 -22.5q-16 0 -20.5 11.5 t-4.5 37.5q0 12 2 32.5t8 43.5l160 594q6 23 7 37t1 20q0 18 -47 19h-131q-31 0 -43 -3t-22 -26l-17 -37q-61 49 -141 49q-100 0 -213 -66.5t-219 -201.5q-180 -229 -180 -483zM254 258q0 55 29.5 156.5t99.5 224.5q131 240 246 240q76 0 76 -99q0 -51 -37 -146t-115 -231 q-72 -125 -127 -187t-107 -62q-66 0 -65 104zM377 1225q0 -51 37 -87t84 -36q51 0 86 34.5t35 88.5q0 47 -36 82.5t-85 35.5q-47 0 -84 -36.5t-37 -81.5zM715 1225q0 -51 36 -87t83 -36q51 0 86 34.5t35 88.5q0 47 -36 82.5t-85 35.5q-47 0 -83 -36.5t-36 -81.5z" />
<glyph unicode="&#xe5;" horiz-adv-x="1085" d="M-16 199q0 -113 51 -176.5t123 -63.5q111 0 222.5 112.5t240.5 338.5l-37 -177q-10 -49 -18.5 -92t-8.5 -84q0 -39 23.5 -65.5t64.5 -26.5q63 0 133 39t135 119q51 63 74 111.5t23 58.5q0 27 -17 26q-14 0 -29.5 -23.5t-34 -51t-39 -50t-46.5 -22.5q-16 0 -20.5 11.5 t-4.5 37.5q0 12 2 32.5t8 43.5l160 594q6 23 7 37t1 20q0 18 -47 19h-131q-31 0 -43 -3t-22 -26l-17 -37q-61 49 -141 49q-100 0 -213 -66.5t-219 -201.5q-180 -229 -180 -483zM254 258q0 55 29.5 156.5t99.5 224.5q131 240 246 240q76 0 76 -99q0 -51 -37 -146t-115 -231 q-72 -125 -127 -187t-107 -62q-66 0 -65 104zM483 1298q0 -53 19.5 -99t54.5 -81t80 -54.5t98 -19.5t99.5 19.5t81 54.5t54 81t19.5 99t-19.5 99.5t-54 80t-81 53t-99.5 19.5t-99 -19.5t-80 -53t-53.5 -80t-19.5 -99.5zM594 1296q0 59 41 101.5t100 42.5t100.5 -42 t41.5 -102q0 -59 -41 -100t-101 -41q-59 0 -100 41t-41 100z" />
<glyph unicode="&#xe6;" horiz-adv-x="1472" d="M-16 199q0 -113 51 -176.5t123 -63.5q199 0 434 401q4 -197 82 -299t207 -102q96 0 192 48t172 140q68 82 68 119q0 27 -23 27q-14 0 -28.5 -18.5t-40.5 -47.5q-57 -63 -111.5 -95t-99.5 -32q-76 0 -121 60.5t-45 171.5v22t2 27q145 18 253.5 44t179.5 65.5t105.5 98 t34.5 144.5q0 102 -63.5 163.5t-175.5 61.5q-98 0 -209 -49q6 25 6 35q0 16 -10.5 19.5t-36.5 3.5h-111q-31 0 -43 -3t-22 -26l-17 -37q-61 49 -141 49q-100 0 -213 -66.5t-219 -201.5q-180 -229 -180 -483zM254 258q0 55 29.5 156.5t99.5 224.5q131 240 246 240 q76 0 76 -99q0 -51 -37 -146t-115 -231q-72 -125 -127 -187t-107 -62q-66 0 -65 104zM858 461q49 211 124 317.5t140 106.5q25 0 40.5 -24.5t15.5 -65.5q0 -61 -22.5 -121t-64.5 -108t-98.5 -76.5t-124.5 -28.5h-10z" />
<glyph unicode="&#xe7;" horiz-adv-x="825" d="M2 317q0 -168 84 -263t215 -95q98 0 193.5 48t171.5 140q68 82 67 119q0 27 -22 27q-12 0 -24.5 -13.5t-35.5 -35.5q-61 -63 -112.5 -97t-104.5 -34q-72 0 -117 58t-45 163q0 111 29 208t67 169.5t77.5 115.5t62.5 43q33 0 42 -25.5t25 -60.5q29 -55 54.5 -80.5 t72.5 -25.5q49 0 79 32.5t30 84.5q0 72 -60 119t-173 47q-43 0 -94.5 -13.5t-103.5 -39t-103.5 -62.5t-94.5 -84q-88 -94 -134 -209t-46 -236zM58 -375q72 -37 129 -59.5t114 -22.5q86 0 135.5 47.5t49.5 130.5q0 78 -41 125.5t-103 47.5q-10 0 -24.5 -2.5t-34.5 -6.5 l29 115h-56l-53 -205q43 12 72 12q84 0 84 -79q0 -88 -78 -88q-49 0 -94 19t-99 54z" />
<glyph unicode="&#xe8;" horiz-adv-x="892" d="M2 313q0 -168 84 -263t215 -95q98 0 193.5 48t171.5 140q68 82 67 119q0 27 -22 27q-14 0 -28.5 -18.5t-41.5 -47.5q-57 -63 -112.5 -95t-100.5 -32q-76 0 -120 59.5t-44 170.5v24q0 13 2 27q145 18 254 43.5t179.5 65.5t105.5 98.5t35 144.5q0 102 -63.5 163.5 t-178.5 61.5q-94 0 -189.5 -38.5t-181.5 -112.5q-109 -96 -167 -224t-58 -266zM279 457q49 211 123.5 317.5t140.5 106.5q25 0 40 -25t15 -65q0 -61 -22.5 -121t-64.5 -108t-98.5 -76.5t-123.5 -28.5h-10zM353 1335q0 -23 14 -42t37 -42l209 -192h84l-197 303q-39 59 -80 59 q-27 0 -47 -22.5t-20 -63.5z" />
<glyph unicode="&#xe9;" horiz-adv-x="892" d="M2 313q0 -168 84 -263t215 -95q98 0 193.5 48t171.5 140q68 82 67 119q0 27 -22 27q-14 0 -28.5 -18.5t-41.5 -47.5q-57 -63 -112.5 -95t-100.5 -32q-76 0 -120 59.5t-44 170.5v24q0 13 2 27q145 18 254 43.5t179.5 65.5t105.5 98.5t35 144.5q0 102 -63.5 163.5 t-178.5 61.5q-94 0 -189.5 -38.5t-181.5 -112.5q-109 -96 -167 -224t-58 -266zM279 457q49 211 123.5 317.5t140.5 106.5q25 0 40 -25t15 -65q0 -61 -22.5 -121t-64.5 -108t-98.5 -76.5t-123.5 -28.5h-10zM402 1059h86l262 184q55 39 55 90q0 37 -20.5 62.5t-44.5 25.5 q-43 0 -90 -57z" />
<glyph unicode="&#xea;" horiz-adv-x="892" d="M2 313q0 -168 84 -263t215 -95q98 0 193.5 48t171.5 140q68 82 67 119q0 27 -22 27q-14 0 -28.5 -18.5t-41.5 -47.5q-57 -63 -112.5 -95t-100.5 -32q-76 0 -120 59.5t-44 170.5v24q0 13 2 27q145 18 254 43.5t179.5 65.5t105.5 98.5t35 144.5q0 102 -63.5 163.5 t-178.5 61.5q-94 0 -189.5 -38.5t-181.5 -112.5q-109 -96 -167 -224t-58 -266zM279 457q49 211 123.5 317.5t140.5 106.5q25 0 40 -25t15 -65q0 -61 -22.5 -121t-64.5 -108t-98.5 -76.5t-123.5 -28.5h-10zM297 1059h82l197 180l135 -180h64l-131 350h-101z" />
<glyph unicode="&#xeb;" horiz-adv-x="892" d="M2 313q0 -168 84 -263t215 -95q98 0 193.5 48t171.5 140q68 82 67 119q0 27 -22 27q-14 0 -28.5 -18.5t-41.5 -47.5q-57 -63 -112.5 -95t-100.5 -32q-76 0 -120 59.5t-44 170.5v24q0 13 2 27q145 18 254 43.5t179.5 65.5t105.5 98.5t35 144.5q0 102 -63.5 163.5 t-178.5 61.5q-94 0 -189.5 -38.5t-181.5 -112.5q-109 -96 -167 -224t-58 -266zM279 457q49 211 123.5 317.5t140.5 106.5q25 0 40 -25t15 -65q0 -61 -22.5 -121t-64.5 -108t-98.5 -76.5t-123.5 -28.5h-10zM283 1225q0 -51 37 -87t84 -36q51 0 86 34.5t35 88.5q0 47 -36 82.5 t-85 35.5q-47 0 -84 -36.5t-37 -81.5zM621 1225q0 -51 36 -87t83 -36q51 0 86 34.5t35 88.5q0 47 -36 82.5t-85 35.5q-47 0 -83 -36.5t-36 -81.5z" />
<glyph unicode="&#xec;" horiz-adv-x="587" d="M20 657q0 -20 13 -20q25 0 37 24.5t39 61.5q35 47 62.5 69.5t45.5 22.5q14 0 14 -31q0 -20 -6 -41l-131 -411q-23 -68 -40 -126.5t-17 -111.5q0 -129 119 -129q135 0 260 156q51 61 73.5 108t22.5 64q0 27 -16 26q-18 0 -36 -27.5t-37.5 -60t-43 -60.5t-51.5 -28 q-18 0 -19 33q0 33 25 105l100 305q23 72 39 129t16 108q0 127 -114 127q-141 0 -254 -125q-51 -55 -76 -100t-25 -68zM201 1335q0 -23 14 -42t37 -42l209 -192h84l-197 303q-39 59 -80 59q-27 0 -47 -22.5t-20 -63.5z" />
<glyph unicode="&#xed;" horiz-adv-x="587" d="M20 657q0 -20 13 -20q25 0 37 24.5t39 61.5q35 47 62.5 69.5t45.5 22.5q14 0 14 -31q0 -20 -6 -41l-131 -411q-23 -68 -40 -126.5t-17 -111.5q0 -129 119 -129q135 0 260 156q51 61 73.5 108t22.5 64q0 27 -16 26q-18 0 -36 -27.5t-37.5 -60t-43 -60.5t-51.5 -28 q-18 0 -19 33q0 33 25 105l100 305q23 72 39 129t16 108q0 127 -114 127q-141 0 -254 -125q-51 -55 -76 -100t-25 -68zM250 1059h86l262 184q55 39 55 90q0 37 -20.5 62.5t-44.5 25.5q-43 0 -90 -57z" />
<glyph unicode="&#xee;" horiz-adv-x="587" d="M20 657q0 -20 13 -20q25 0 37 24.5t39 61.5q35 47 62.5 69.5t45.5 22.5q14 0 14 -31q0 -20 -6 -41l-131 -411q-23 -68 -40 -126.5t-17 -111.5q0 -129 119 -129q135 0 260 156q51 61 73.5 108t22.5 64q0 27 -16 26q-18 0 -36 -27.5t-37.5 -60t-43 -60.5t-51.5 -28 q-18 0 -19 33q0 33 25 105l100 305q23 72 39 129t16 108q0 127 -114 127q-141 0 -254 -125q-51 -55 -76 -100t-25 -68zM145 1059h82l197 180l135 -180h64l-131 350h-101z" />
<glyph unicode="&#xef;" horiz-adv-x="587" d="M20 657q0 -20 13 -20q25 0 37 24.5t39 61.5q35 47 62.5 69.5t45.5 22.5q14 0 14 -31q0 -20 -6 -41l-131 -411q-23 -68 -40 -126.5t-17 -111.5q0 -129 119 -129q135 0 260 156q51 61 73.5 108t22.5 64q0 27 -16 26q-18 0 -36 -27.5t-37.5 -60t-43 -60.5t-51.5 -28 q-18 0 -19 33q0 33 25 105l100 305q23 72 39 129t16 108q0 127 -114 127q-141 0 -254 -125q-51 -55 -76 -100t-25 -68zM131 1225q0 -51 37 -87t84 -36q51 0 86 34.5t35 88.5q0 47 -36 82.5t-85 35.5q-47 0 -84 -36.5t-37 -81.5zM469 1225q0 -51 36 -87t83 -36q51 0 86 34.5 t35 88.5q0 47 -36 82.5t-85 35.5q-47 0 -83 -36.5t-36 -81.5z" />
<glyph unicode="&#xf0;" horiz-adv-x="962" d="M27 348q0 -84 23.5 -155.5t67.5 -123t105.5 -80t138.5 -28.5q100 0 192.5 43t163 121t111.5 185.5t41 234.5q0 160 -47 312.5t-145 293.5l215 82q16 6 27.5 13t11.5 30q0 16 -8.5 24.5t-18.5 8.5q-4 0 -24 -6l-244 -91q-66 86 -101.5 132.5t-58.5 46.5q-18 0 -18 -23 q0 -20 23.5 -66.5t64.5 -123.5l-250 -93q-16 -6 -27.5 -12t-11.5 -31q0 -16 7 -25t18 -9q4 0 10 2t16 6l262 94q43 -117 56 -219q-49 14 -101 14q-90 0 -179 -42t-160.5 -115.5t-115.5 -176t-44 -223.5zM260 223q0 121 25.5 230.5t65.5 193.5t87 134t92 50q49 0 79 -48 t30 -142q0 -217 -96 -432q-39 -86 -79 -129t-89 -43q-115 0 -115 186z" />
<glyph unicode="&#xf1;" horiz-adv-x="1058" d="M-2 662q0 -25 20 -25q14 0 32 22.5t37 50t41 51t46 23.5q25 0 25 -39q0 -10 -2 -35.5t-13 -60.5l-149 -596q-2 -8 -3 -13t-1 -11q0 -10 6 -19.5t12 -9.5h172q27 0 39 18.5t23.5 59.5t29 106.5t56.5 161.5q43 111 87 194t84 138t71.5 84t50.5 29q12 0 21 -8.5t9 -24.5 q0 -12 -4 -37t-16 -64l-105 -338q-18 -59 -25 -104t-7 -74q0 -76 34.5 -121t94.5 -45q53 0 115.5 41t121.5 125q43 59 63.5 100.5t20.5 51.5q0 27 -18 26q-16 0 -34 -27.5t-38.5 -60t-44 -60.5t-49.5 -28q-18 0 -19 33q0 23 6.5 47.5t16.5 57.5l108 346q31 98 31 172 t-37 112.5t-102 38.5q-211 0 -436 -446l26 117q16 66 22.5 118t6.5 88q0 123 -102 123q-53 0 -111.5 -34.5t-118.5 -106.5q-94 -113 -94 -147zM424 1081h53q10 47 27.5 70t50.5 23q8 0 18 -2.5t23 -6.5l84 -26q25 -6 45 -6q59 0 101 58t58 175h-53q-16 -84 -82 -84 q-12 0 -49 10l-70 23q-23 8 -47 8q-59 0 -101 -60.5t-58 -181.5z" />
<glyph unicode="&#xf2;" horiz-adv-x="962" d="M4 367q0 -90 25.5 -165t71.5 -128.5t112 -84t145 -30.5q106 0 203.5 47t170.5 127t116 184.5t43 219.5q0 96 -26.5 173.5t-74 132t-112.5 83t-143 28.5q-98 0 -193.5 -45t-170.5 -122.5t-121 -186t-46 -233.5zM250 233q0 117 26.5 234t75.5 223q86 184 183 184 q51 0 82.5 -50t31.5 -148q0 -231 -100 -457q-41 -92 -83 -136t-95 -44q-121 0 -121 194zM387 1335q0 -23 14 -42t37 -42l209 -192h84l-197 303q-39 59 -80 59q-27 0 -47 -22.5t-20 -63.5z" />
<glyph unicode="&#xf3;" horiz-adv-x="962" d="M4 367q0 -90 25.5 -165t71.5 -128.5t112 -84t145 -30.5q106 0 203.5 47t170.5 127t116 184.5t43 219.5q0 96 -26.5 173.5t-74 132t-112.5 83t-143 28.5q-98 0 -193.5 -45t-170.5 -122.5t-121 -186t-46 -233.5zM250 233q0 117 26.5 234t75.5 223q86 184 183 184 q51 0 82.5 -50t31.5 -148q0 -231 -100 -457q-41 -92 -83 -136t-95 -44q-121 0 -121 194zM436 1059h86l262 184q55 39 55 90q0 37 -20.5 62.5t-44.5 25.5q-43 0 -90 -57z" />
<glyph unicode="&#xf4;" horiz-adv-x="962" d="M4 367q0 -90 25.5 -165t71.5 -128.5t112 -84t145 -30.5q106 0 203.5 47t170.5 127t116 184.5t43 219.5q0 96 -26.5 173.5t-74 132t-112.5 83t-143 28.5q-98 0 -193.5 -45t-170.5 -122.5t-121 -186t-46 -233.5zM250 233q0 117 26.5 234t75.5 223q86 184 183 184 q51 0 82.5 -50t31.5 -148q0 -231 -100 -457q-41 -92 -83 -136t-95 -44q-121 0 -121 194zM331 1059h82l197 180l135 -180h64l-131 350h-101z" />
<glyph unicode="&#xf5;" horiz-adv-x="962" d="M4 367q0 -90 25.5 -165t71.5 -128.5t112 -84t145 -30.5q106 0 203.5 47t170.5 127t116 184.5t43 219.5q0 96 -26.5 173.5t-74 132t-112.5 83t-143 28.5q-98 0 -193.5 -45t-170.5 -122.5t-121 -186t-46 -233.5zM250 233q0 117 26.5 234t75.5 223q86 184 183 184 q51 0 82.5 -50t31.5 -148q0 -231 -100 -457q-41 -92 -83 -136t-95 -44q-121 0 -121 194zM377 1081h53q10 47 27.5 70t50.5 23q8 0 18 -2.5t23 -6.5l84 -26q25 -6 45 -6q59 0 101 58t58 175h-53q-16 -84 -82 -84q-12 0 -49 10l-70 23q-23 8 -47 8q-59 0 -101 -60.5 t-58 -181.5z" />
<glyph unicode="&#xf6;" horiz-adv-x="962" d="M4 367q0 -90 25.5 -165t71.5 -128.5t112 -84t145 -30.5q106 0 203.5 47t170.5 127t116 184.5t43 219.5q0 96 -26.5 173.5t-74 132t-112.5 83t-143 28.5q-98 0 -193.5 -45t-170.5 -122.5t-121 -186t-46 -233.5zM250 233q0 117 26.5 234t75.5 223q86 184 183 184 q51 0 82.5 -50t31.5 -148q0 -231 -100 -457q-41 -92 -83 -136t-95 -44q-121 0 -121 194zM317 1225q0 -51 37 -87t84 -36q51 0 86 34.5t35 88.5q0 47 -36 82.5t-85 35.5q-47 0 -84 -36.5t-37 -81.5zM655 1225q0 -51 36 -87t83 -36q51 0 86 34.5t35 88.5q0 47 -36 82.5 t-85 35.5q-47 0 -83 -36.5t-36 -81.5z" />
<glyph unicode="&#xf7;" horiz-adv-x="1705" d="M254 528h1198v166h-1198v-166zM717 229q0 -57 39 -96t98 -39t98 40t39 95q0 57 -40 97.5t-97 40.5q-55 0 -96 -40t-41 -98zM717 989q0 -57 39 -96t98 -39t98 40t39 95q0 57 -40 98t-97 41q-55 0 -96 -40.5t-41 -98.5z" />
<glyph unicode="&#xf8;" horiz-adv-x="962" d="M4 365q0 -113 44 -206t126 -153l-127 -254h90l111 223q51 -14 108 -14q111 0 209.5 47t170 127t113.5 183.5t42 218.5q0 129 -42 218t-132 150l104 213h-90l-90 -178q-35 6 -61.5 10t-49.5 4q-96 0 -189 -44t-169 -122.5t-122 -187t-46 -235.5zM248 205v41 q0 92 20.5 196.5t63.5 208.5q92 225 203 226q26 0 61 -27l-344 -688q-4 23 -4 43zM295 68l346 688q6 -55 6 -97q0 -188 -84 -399q-45 -115 -91 -168t-107 -53q-23 0 -38.5 6t-31.5 23z" />
<glyph unicode="&#xf9;" horiz-adv-x="1058" d="M23 655q0 -25 16 -24q14 0 31.5 23.5t37 52t41 52t46.5 23.5q14 0 14 -24q0 -8 -2 -21.5t-6 -27.5l-125 -416q-14 -45 -23.5 -86t-9.5 -82q0 -76 33 -117t90 -41q92 0 206.5 110.5t237.5 340.5l-32 -119q-20 -74 -27.5 -129t-7.5 -76q0 -129 98 -129q106 0 219 141 q51 66 73.5 110t22.5 63q0 25 -16 24q-16 0 -31.5 -24.5t-33 -54t-37 -54.5t-39.5 -25q-16 0 -17 35q0 10 6.5 51t22.5 107l131 518q10 37 10 39q0 4 -7 9t-15 5h-168q-29 0 -40 -17.5t-20.5 -55t-24.5 -99t-50 -149.5q-39 -98 -86 -177t-90 -132.5t-78 -82t-47 -28.5 q-10 0 -17.5 8t-7.5 19q0 23 7 51t20 69l88 281q23 72 35 125t12 92q0 131 -117 131q-57 0 -117.5 -33.5t-117.5 -101.5q-47 -55 -67.5 -97t-20.5 -57zM434 1335q0 -23 14 -42t37 -42l209 -192h84l-197 303q-39 59 -80 59q-27 0 -47 -22.5t-20 -63.5z" />
<glyph unicode="&#xfa;" horiz-adv-x="1058" d="M23 655q0 -25 16 -24q14 0 31.5 23.5t37 52t41 52t46.5 23.5q14 0 14 -24q0 -8 -2 -21.5t-6 -27.5l-125 -416q-14 -45 -23.5 -86t-9.5 -82q0 -76 33 -117t90 -41q92 0 206.5 110.5t237.5 340.5l-32 -119q-20 -74 -27.5 -129t-7.5 -76q0 -129 98 -129q106 0 219 141 q51 66 73.5 110t22.5 63q0 25 -16 24q-16 0 -31.5 -24.5t-33 -54t-37 -54.5t-39.5 -25q-16 0 -17 35q0 10 6.5 51t22.5 107l131 518q10 37 10 39q0 4 -7 9t-15 5h-168q-29 0 -40 -17.5t-20.5 -55t-24.5 -99t-50 -149.5q-39 -98 -86 -177t-90 -132.5t-78 -82t-47 -28.5 q-10 0 -17.5 8t-7.5 19q0 23 7 51t20 69l88 281q23 72 35 125t12 92q0 131 -117 131q-57 0 -117.5 -33.5t-117.5 -101.5q-47 -55 -67.5 -97t-20.5 -57zM483 1059h86l262 184q55 39 55 90q0 37 -20.5 62.5t-44.5 25.5q-43 0 -90 -57z" />
<glyph unicode="&#xfb;" horiz-adv-x="1058" d="M23 655q0 -25 16 -24q14 0 31.5 23.5t37 52t41 52t46.5 23.5q14 0 14 -24q0 -8 -2 -21.5t-6 -27.5l-125 -416q-14 -45 -23.5 -86t-9.5 -82q0 -76 33 -117t90 -41q92 0 206.5 110.5t237.5 340.5l-32 -119q-20 -74 -27.5 -129t-7.5 -76q0 -129 98 -129q106 0 219 141 q51 66 73.5 110t22.5 63q0 25 -16 24q-16 0 -31.5 -24.5t-33 -54t-37 -54.5t-39.5 -25q-16 0 -17 35q0 10 6.5 51t22.5 107l131 518q10 37 10 39q0 4 -7 9t-15 5h-168q-29 0 -40 -17.5t-20.5 -55t-24.5 -99t-50 -149.5q-39 -98 -86 -177t-90 -132.5t-78 -82t-47 -28.5 q-10 0 -17.5 8t-7.5 19q0 23 7 51t20 69l88 281q23 72 35 125t12 92q0 131 -117 131q-57 0 -117.5 -33.5t-117.5 -101.5q-47 -55 -67.5 -97t-20.5 -57zM378 1059h82l197 180l135 -180h64l-131 350h-101z" />
<glyph unicode="&#xfc;" horiz-adv-x="1058" d="M23 655q0 -25 16 -24q14 0 31.5 23.5t37 52t41 52t46.5 23.5q14 0 14 -24q0 -8 -2 -21.5t-6 -27.5l-125 -416q-14 -45 -23.5 -86t-9.5 -82q0 -76 33 -117t90 -41q92 0 206.5 110.5t237.5 340.5l-32 -119q-20 -74 -27.5 -129t-7.5 -76q0 -129 98 -129q106 0 219 141 q51 66 73.5 110t22.5 63q0 25 -16 24q-16 0 -31.5 -24.5t-33 -54t-37 -54.5t-39.5 -25q-16 0 -17 35q0 10 6.5 51t22.5 107l131 518q10 37 10 39q0 4 -7 9t-15 5h-168q-29 0 -40 -17.5t-20.5 -55t-24.5 -99t-50 -149.5q-39 -98 -86 -177t-90 -132.5t-78 -82t-47 -28.5 q-10 0 -17.5 8t-7.5 19q0 23 7 51t20 69l88 281q23 72 35 125t12 92q0 131 -117 131q-57 0 -117.5 -33.5t-117.5 -101.5q-47 -55 -67.5 -97t-20.5 -57zM364 1225q0 -51 37 -87t84 -36q51 0 86 34.5t35 88.5q0 47 -36 82.5t-85 35.5q-47 0 -84 -36.5t-37 -81.5zM702 1225 q0 -51 36 -87t83 -36q51 0 86 34.5t35 88.5q0 47 -36 82.5t-85 35.5q-47 0 -83 -36.5t-36 -81.5z" />
<glyph unicode="&#xfd;" horiz-adv-x="833" d="M-233 -326q0 -57 37.5 -94t103.5 -37q74 0 143.5 38t142 113t150.5 186.5t170 258.5q141 227 214 389t73 267q0 72 -25.5 111.5t-68.5 39.5q-47 0 -76 -37t-29 -96q0 -43 20.5 -98.5t20.5 -126.5q0 -70 -47 -180.5t-147 -260.5l-3 125q-4 178 -10 305.5t-24.5 210 t-54 121.5t-97.5 39q-57 0 -114.5 -42t-106.5 -128q-27 -45 -38 -75.5t-11 -47.5q0 -27 18 -26q18 0 30.5 23.5t25 52t26.5 52t37 23.5q18 0 36.5 -44t33 -128t23.5 -203.5t9 -271.5q0 -117 -18 -205t-46 -146t-61.5 -87t-66.5 -29q-20 0 -37.5 17.5t-36 39t-42 40 t-56.5 18.5q-41 0 -69.5 -30t-28.5 -77zM373 1059h86l262 184q55 39 55 90q0 37 -20.5 62.5t-44.5 25.5q-43 0 -90 -57z" />
<glyph unicode="&#xfe;" horiz-adv-x="980" d="M-242 -412q0 -33 33 -32q18 0 68.5 8t130.5 8q139 0 214 -12.5t91 -12.5q31 0 31 33t-27 40t-61 22q-59 23 -60 82q0 29 8 69l58 260q90 -82 190 -82q78 0 160 49.5t158 147.5q82 109 122.5 230.5t40.5 230.5q0 147 -73.5 233t-210.5 86q-35 0 -78 -3t-94 -13l90 368 q12 47 23.5 77t11.5 42q0 27 -23 27q-10 0 -28.5 -11.5t-52.5 -24.5t-87 -24.5t-129 -11.5q-33 0 -51 -6t-18 -41q0 -16 16 -22.5t34.5 -12.5t35 -15t16.5 -30q0 -20 -5 -42.5t-11 -45.5l-342 -1401q-10 -41 -21.5 -65.5t-50.5 -36.5q-20 -6 -40 -11t-35 -11.5t-24.5 -16.5 t-9.5 -29zM289 174q0 23 3 52.5t13 66.5l135 545q27 12 47.5 19t42.5 7q59 0 93 -45t34 -127q0 -78 -26.5 -194.5t-79.5 -237.5q-86 -193 -176 -192q-39 0 -62.5 28.5t-23.5 77.5z" />
<glyph unicode="&#xff;" horiz-adv-x="833" d="M-233 -326q0 -57 37.5 -94t103.5 -37q74 0 143.5 38t142 113t150.5 186.5t170 258.5q141 227 214 389t73 267q0 72 -25.5 111.5t-68.5 39.5q-47 0 -76 -37t-29 -96q0 -43 20.5 -98.5t20.5 -126.5q0 -70 -47 -180.5t-147 -260.5l-3 125q-4 178 -10 305.5t-24.5 210 t-54 121.5t-97.5 39q-57 0 -114.5 -42t-106.5 -128q-27 -45 -38 -75.5t-11 -47.5q0 -27 18 -26q18 0 30.5 23.5t25 52t26.5 52t37 23.5q18 0 36.5 -44t33 -128t23.5 -203.5t9 -271.5q0 -117 -18 -205t-46 -146t-61.5 -87t-66.5 -29q-20 0 -37.5 17.5t-36 39t-42 40 t-56.5 18.5q-41 0 -69.5 -30t-28.5 -77zM254 1225q0 -51 37 -87t84 -36q51 0 86 34.5t35 88.5q0 47 -36 82.5t-85 35.5q-47 0 -84 -36.5t-37 -81.5zM592 1225q0 -51 36 -87t83 -36q51 0 86 34.5t35 88.5q0 47 -36 82.5t-85 35.5q-47 0 -83 -36.5t-36 -81.5z" />
<glyph unicode="&#x152;" horiz-adv-x="1648" d="M43 578q0 -137 35 -250t98.5 -194t152.5 -125t197 -44q78 0 176.5 18.5t215.5 18.5h425q23 0 41.5 -2t34.5 -2q35 0 47.5 13.5t22.5 58.5q20 86 28.5 136t8.5 66q0 20 -10.5 35t-22.5 15q-16 0 -27.5 -13.5t-22.5 -33t-22.5 -44t-29.5 -47.5q-55 -68 -117 -81t-139 -13 q-68 0 -108 9.5t-40 50.5q0 33 14 98l91 395h114q76 0 114 -22.5t38 -81.5q0 -20 -4 -40t-4 -42q0 -16 11 -28.5t25 -12.5q31 0 40.5 42t21.5 107q23 127 44 199t21 100q0 45 -26 45q-18 0 -29.5 -13t-21 -32.5t-19.5 -41t-28 -40.5q-31 -29 -66 -36t-80 -7h-129l64 283 q6 31 16 75t27 103h163q119 0 148 -84q8 -27 10 -53.5t4 -49t10.5 -36.5t30.5 -14q25 0 32 20.5t15 50.5l54 209q2 6 2 19q0 29 -43 28h-574q-113 0 -204 17.5t-167 17.5q-139 0 -258.5 -57.5t-209 -156.5t-140.5 -236.5t-51 -296.5zM299 410q0 158 36 321.5t95 298.5 q102 227 283 227q92 0 149.5 -54t57.5 -138q0 -16 -3.5 -32.5t-7.5 -39.5l-166 -710q-29 -125 -73.5 -182.5t-139.5 -57.5q-111 0 -171 93t-60 274z" />
<glyph unicode="&#x153;" horiz-adv-x="1474" d="M4 367q0 -90 25.5 -165t71.5 -128.5t112 -84t145 -30.5q92 0 171 30.5t143 90.5q53 -66 108.5 -93.5t132.5 -27.5q86 0 162 33t132.5 78t89 91t32.5 70q0 25 -22 25q-14 0 -29.5 -16.5t-44.5 -42.5q-113 -106 -205 -107q-80 0 -131 61.5t-51 178.5v24q0 13 2 27 q145 18 253.5 43t179.5 64.5t105.5 99t34.5 145.5q0 102 -65.5 165t-177.5 63q-86 0 -181.5 -39t-187.5 -119q-37 72 -108.5 110.5t-165.5 38.5q-100 0 -195.5 -45t-170.5 -122.5t-120 -185t-45 -232.5zM248 233q0 117 25.5 233t76.5 226q86 182 182 182q53 0 84 -50 t31 -148q0 -231 -100 -457q-41 -92 -83 -136t-95 -44q-121 0 -121 194zM858 461q49 211 124 317.5t140 106.5q25 0 41.5 -23.5t16.5 -66.5q0 -61 -23.5 -121t-64.5 -107t-98.5 -76.5t-125.5 -29.5h-10z" />
<glyph unicode="&#x178;" horiz-adv-x="882" d="M23 1262q0 -35 23.5 -42.5t39.5 -15.5q33 -14 39 -35.5t14 -50.5l133 -504q4 -18 8.5 -32.5t4.5 -26.5v-16t-4 -25l-33 -184q-16 -100 -35.5 -155.5t-50.5 -72.5q-18 -10 -40 -12t-41.5 -6t-32.5 -14.5t-13 -34.5q0 -43 49 -43q18 0 68.5 9t138.5 9q111 0 173 -7t81 -7 q43 0 43 41q0 33 -15.5 36t-42.5 7q-29 4 -45 21.5t-16 35.5q0 25 6 48.5t10 50.5l72 352l123 188q100 154 167.5 249t108.5 130q23 20 47.5 29.5t44 17.5t32 19.5t12.5 33.5q0 31 -43 31q-14 0 -45 -4t-80 -4q-74 0 -117 5t-57 5q-45 0 -45 -37q0 -25 17 -33t36.5 -12 t37 -14t17.5 -37q0 -23 -22.5 -60.5t-59.5 -97.5l-201 -327l-96 407q-4 23 -8 40.5t-4 29.5q0 35 17.5 47t39 17.5t39 13.5t17.5 32q0 23 -9.5 30t-31.5 7q-14 0 -51 -5t-101 -5q-131 0 -198.5 8t-80.5 8q-41 0 -40 -38zM352 1602q0 -51 37 -87t84 -36q51 0 86 34.5t35 88.5 q0 47 -36 82.5t-85 35.5q-47 0 -84 -36.5t-37 -81.5zM690 1602q0 -51 36 -87t83 -36q51 0 86 34.5t35 88.5q0 47 -36 82.5t-85 35.5q-47 0 -83 -36.5t-36 -81.5z" />
<glyph unicode="&#x2c6;" d="M360 1059h82l197 180l135 -180h64l-131 350h-101z" />
<glyph unicode="&#x2dc;" d="M406 1081h53q10 47 27.5 70t50.5 23q8 0 18 -2.5t23 -6.5l84 -26q25 -6 45 -6q59 0 101 58t58 175h-53q-16 -84 -82 -84q-12 0 -49 10l-70 23q-23 8 -47 8q-59 0 -101 -60.5t-58 -181.5z" />
<glyph unicode="&#x2000;" horiz-adv-x="949" />
<glyph unicode="&#x2001;" horiz-adv-x="1898" />
<glyph unicode="&#x2002;" horiz-adv-x="949" />
<glyph unicode="&#x2003;" horiz-adv-x="1898" />
<glyph unicode="&#x2004;" horiz-adv-x="632" />
<glyph unicode="&#x2005;" horiz-adv-x="474" />
<glyph unicode="&#x2006;" horiz-adv-x="316" />
<glyph unicode="&#x2007;" horiz-adv-x="316" />
<glyph unicode="&#x2008;" horiz-adv-x="237" />
<glyph unicode="&#x2009;" horiz-adv-x="379" />
<glyph unicode="&#x200a;" horiz-adv-x="105" />
<glyph unicode="&#x2010;" horiz-adv-x="477" d="M0 348q0 -12 12 -12h348q6 0 14.5 7t12.5 19l51 187q4 12 4 14q0 10 -14 10h-348q-6 0 -14.5 -7t-12.5 -19l-51 -185q-2 -6 -2 -14z" />
<glyph unicode="&#x2011;" horiz-adv-x="477" d="M0 348q0 -12 12 -12h348q6 0 14.5 7t12.5 19l51 187q4 12 4 14q0 10 -14 10h-348q-6 0 -14.5 -7t-12.5 -19l-51 -185q-2 -6 -2 -14z" />
<glyph unicode="&#x2012;" horiz-adv-x="477" d="M0 348q0 -12 12 -12h348q6 0 14.5 7t12.5 19l51 187q4 12 4 14q0 10 -14 10h-348q-6 0 -14.5 -7t-12.5 -19l-51 -185q-2 -6 -2 -14z" />
<glyph unicode="&#x2013;" d="M-53 369q0 -10 16 -11h983q23 0 33 27l51 141q2 6 2 15q0 12 -16 12h-985q-23 0 -33 -27l-49 -143q-2 -6 -2 -14z" />
<glyph unicode="&#x2014;" horiz-adv-x="1351" d="M-84 369q0 -10 16 -11h1354q23 0 33 27l49 141q2 6 2 15q0 12 -16 12h-1354q-10 0 -19.5 -8t-13.5 -19l-49 -143q-2 -6 -2 -14z" />
<glyph unicode="&#x2018;" horiz-adv-x="479" d="M166 938q0 -74 32.5 -117t82.5 -43q51 0 88 39t37 98q0 45 -15.5 68t-34 37t-34 25.5t-15.5 33.5q0 37 26.5 70t58.5 60.5t58.5 50t26.5 38.5q0 10 -7 19.5t-17 9.5q-18 0 -56.5 -25.5t-91.5 -78.5q-70 -72 -104.5 -139.5t-34.5 -145.5z" />
<glyph unicode="&#x2019;" horiz-adv-x="479" d="M158 807q0 -29 28 -29q16 0 61.5 31t106.5 98q59 66 87 129.5t28 141.5q0 66 -33 107.5t-82 41.5q-51 0 -88 -39t-37 -98q0 -47 15.5 -69.5t35 -36t35 -23.5t15.5 -33q0 -37 -27 -69.5t-59.5 -61.5t-59 -51.5t-26.5 -38.5z" />
<glyph unicode="&#x201a;" horiz-adv-x="479" d="M-80 -274q0 -10 7 -17.5t18 -7.5q16 0 55 24.5t92 77.5q70 72 103.5 140.5t33.5 154.5q0 66 -31.5 109t-80.5 43q-51 0 -88 -39t-37 -98q0 -47 15.5 -70t33.5 -36t33.5 -24.5t15.5 -33.5q0 -37 -26.5 -70t-58.5 -60.5t-58.5 -51t-26.5 -41.5z" />
<glyph unicode="&#x201c;" horiz-adv-x="716" d="M119 938q0 -74 32.5 -117t81.5 -43q51 0 88 39t37 98q0 45 -15 69t-34.5 37t-35 24.5t-15.5 33.5q0 37 26.5 70t59.5 60.5t59.5 50t26.5 38.5q0 10 -7 19.5t-17 9.5q-20 0 -58.5 -25.5t-91.5 -78.5q-70 -70 -103.5 -138.5t-33.5 -146.5zM463 938q0 -74 32.5 -117 t82.5 -43q51 0 86.5 39t35.5 98q0 45 -15 69t-33.5 37t-34 23.5t-15.5 32.5q0 39 26.5 72t58.5 60.5t58.5 51t26.5 42.5q0 10 -6 17t-16 7q-18 0 -57.5 -25.5t-92.5 -78.5q-70 -70 -103.5 -138.5t-33.5 -146.5z" />
<glyph unicode="&#x201d;" horiz-adv-x="716" d="M113 807q0 -29 26 -29q16 0 62.5 31t107.5 98q59 66 87 129.5t28 141.5q0 66 -33 107.5t-82 41.5q-51 0 -88 -39t-37 -98q0 -47 15.5 -69.5t34 -36t34 -23.5t15.5 -33q0 -37 -27 -69.5t-58.5 -61.5t-58 -51.5t-26.5 -38.5zM457 807q0 -12 7 -20.5t17 -8.5q16 0 56.5 25.5 t93.5 79.5q70 72 103.5 139.5t33.5 155.5q0 66 -33 107.5t-82 41.5q-51 0 -88 -39t-37 -98q0 -47 15.5 -69.5t34 -36t34 -23.5t15.5 -33q0 -37 -27 -69.5t-58.5 -61.5t-58 -51.5t-26.5 -38.5z" />
<glyph unicode="&#x201e;" horiz-adv-x="716" d="M-147 -274q0 -10 7 -17.5t17 -7.5q16 0 55 24.5t93 77.5q68 72 103.5 139.5t35.5 155.5q0 66 -33 109t-82 43q-51 0 -88 -39t-37 -98q0 -45 15.5 -67.5t34 -37t34 -26t15.5 -31.5q0 -39 -27 -72t-58.5 -60.5t-58 -51t-26.5 -41.5zM197 -270q0 -12 7 -20.5t17 -8.5 q16 0 55 24.5t93 77.5q70 72 104.5 140.5t34.5 154.5q0 66 -33 109t-82 43q-51 0 -88 -39t-37 -98q0 -47 15.5 -70t34 -36t34 -24.5t15.5 -33.5q0 -37 -27 -70t-58.5 -60.5t-58 -50t-26.5 -38.5z" />
<glyph unicode="&#x2022;" horiz-adv-x="1208" d="M307 762q0 -61 22.5 -115.5t62.5 -94.5t94.5 -63.5t115.5 -23.5t115.5 23.5t94.5 64.5t63.5 94t23.5 115q0 61 -23.5 114.5t-63.5 93.5t-93 63.5t-115 23.5q-61 0 -115.5 -23.5t-94.5 -63.5t-63.5 -93.5t-23.5 -114.5z" />
<glyph unicode="&#x2026;" horiz-adv-x="2048" d="M86 106q0 -59 30.5 -94t78.5 -35q55 0 94 47.5t39 122.5q0 59 -30 93t-77 34q-55 0 -95 -47t-40 -121zM768 106q0 -59 30.5 -94t78.5 -35q55 0 94 47.5t39 122.5q0 59 -30 93t-77 34q-55 0 -95 -47t-40 -121zM1452 106q0 -59 30.5 -94t78.5 -35q55 0 94 47.5t39 122.5 q0 59 -30 93t-77 34q-55 0 -95 -47t-40 -121z" />
<glyph unicode="&#x202f;" horiz-adv-x="379" />
<glyph unicode="&#x2039;" horiz-adv-x="405" d="M27 461q68 -76 112.5 -136.5t73.5 -102.5t47.5 -64.5t34.5 -22.5q27 0 27 35q0 50 -111 283q106 111 157.5 184.5t51.5 110.5q0 29 -27 28q-12 0 -38.5 -22.5t-69.5 -63.5t-106.5 -99.5t-151.5 -129.5z" />
<glyph unicode="&#x203a;" horiz-adv-x="405" d="M-47 162q0 -27 24 -27q12 0 39 21.5t70 62.5t106.5 99.5t151.5 132.5q-68 76 -112 136t-73.5 102t-48 64.5t-34.5 22.5q-10 0 -17.5 -10t-7.5 -27q0 -47 111 -280q-209 -215 -209 -297z" />
<glyph unicode="&#x205f;" horiz-adv-x="474" />
<glyph unicode="&#x2122;" horiz-adv-x="1683" d="M233 1260h29q14 154 131 153h15v-422q0 -51 -37 -53l-33 -4v-29h260v29l-31 4q-39 4 -39 53v422h11q63 0 94 -38t39 -115h30l-10 188h-448zM770 905h197v29l-35 4q-39 2 -39 53v381l170 -469h27l163 463v-375q0 -51 -39 -53l-30 -4v-29h246v29l-27 4q-41 6 -41 53v375 q0 47 41 53l27 2v27h-189l-137 -381l-135 381h-199v-31l33 -2q41 -4 41 -53v-373q0 -47 -41 -51l-33 -4v-29z" />
<glyph unicode="&#xe000;" horiz-adv-x="952" d="M0 0v952h952v-952h-952z" />
<glyph unicode="&#xfb01;" horiz-adv-x="1048" d="M-403 -266q0 -86 52 -137.5t150 -51.5q106 0 198.5 70t164.5 207q63 123 103 307t89 428l54 266h170q59 0 80.5 -6t21.5 -39t-12 -76l-146 -483q-20 -68 -20 -125q0 -129 116 -129q133 0 263 156q49 59 72.5 107t23.5 65q0 27 -16 26q-18 0 -36 -27.5t-37.5 -60 t-43 -60.5t-51.5 -28q-20 0 -21 33q0 18 10 53l172 594q6 20 10.5 34.5t4.5 25.5q0 23 -7.5 30t-29.5 7q-10 0 -56.5 -5.5t-130.5 -5.5h-323q94 451 319 451q29 0 44.5 -8.5t23.5 -22.5t11 -33.5t7 -40.5q18 -113 107 -112q41 0 69.5 31.5t28.5 78.5q0 76 -66.5 124 t-191.5 48q-446 0 -592 -516h-94q-43 0 -43 -59q0 -27 27 -27h90l-105 -479q-37 -172 -63.5 -305t-49 -224t-44 -137.5t-47.5 -46.5q-41 0 -41 68q0 10 1 20.5t1 22.5q0 63 -28 98t-75 35t-80.5 -41t-33.5 -100z" />
<glyph unicode="&#xfb02;" horiz-adv-x="1056" d="M-403 -266q0 -86 52 -137.5t150 -51.5q106 0 198.5 70t164.5 207q63 123 103 307t89 428l54 266h149q23 0 33 12.5t10 47.5q0 27 -27 26h-147q96 434 240 434q25 0 48 -12t40.5 -32.5t29 -45t11.5 -51.5q0 -33 -9 -57l-196 -746q-25 -92 -36 -155.5t-11 -98.5 q0 -78 33.5 -124t95.5 -46q55 0 117.5 42t121.5 126q43 59 62.5 99.5t19.5 50.5q0 27 -16 26q-23 0 -34 -24.5t-34 -58.5q-61 -92 -96 -93q-18 0 -18 33q0 25 8 55l276 1035q12 47 21.5 72.5t9.5 33.5q0 12 -8 22.5t-19 10.5q-16 0 -49 -20.5t-92 -43.5q-53 43 -104.5 63.5 t-114.5 20.5q-199 0 -340 -132t-199 -384h-96q-43 0 -43 -59q0 -27 27 -27h90l-105 -479q-37 -172 -63.5 -305t-49 -224t-44 -137.5t-47.5 -46.5q-41 0 -41 68q0 10 1 20.5t1 22.5q0 63 -28 98t-75 35t-80.5 -41t-33.5 -100z" />
</font>
</defs>
</svg>
