<?xml version="1.0" standalone="no"?>
<!DOCTYPE svg PUBLIC "-//W3C//DTD SVG 1.1//EN" "http://www.w3.org/Graphics/SVG/1.1/DTD/svg11.dtd" >
<svg xmlns="http://www.w3.org/2000/svg">
<metadata></metadata>
<defs>
<font id="apple_garamond_lightitalic" horiz-adv-x="819" >
<font-face units-per-em="2048" ascent="1638" descent="-410" />
<missing-glyph horiz-adv-x="409" />
<glyph horiz-adv-x="2048" />
<glyph horiz-adv-x="2048" />
<glyph unicode="&#xd;" horiz-adv-x="1024" />
<glyph unicode=" "  horiz-adv-x="409" />
<glyph unicode="&#x09;" horiz-adv-x="409" />
<glyph unicode="&#xa0;" horiz-adv-x="409" />
<glyph unicode="!" horiz-adv-x="454" d="M-6 57q0 -78 55 -77q35 0 57.5 33.5t22.5 74.5q0 80 -57 80q-33 0 -55.5 -32t-22.5 -79zM98 338q0 -25 15 -25q12 0 17 9.5t11 27.5l260 809q12 43 13 66q0 31 -15.5 48t-40.5 17q-51 0 -74.5 -58t-45.5 -175l-136 -686q-4 -14 -4 -23v-10z" />
<glyph unicode="&#x22;" horiz-adv-x="671" d="M92 1364q0 -10 1 -20.5t3 -20.5l62 -455h30l62 455q2 12 3 22.5t1 20.5q0 96 -82 96q-80 0 -80 -98zM418 1366q0 -10 1 -21.5t3 -21.5l61 -455h31l61 455q2 10 3.5 20.5t1.5 20.5q0 98 -80 98q-82 0 -82 -96z" />
<glyph unicode="#" horiz-adv-x="1574" d="M117 479h332l-170 -479h112l172 479h293l-170 -479h113l170 479h340l37 99h-340l102 294h315l35 99h-315l172 483h-113l-172 -483h-295l172 483h-114l-170 -483h-359l-35 -99h359l-105 -294h-329zM596 578l104 294h295l-104 -294h-295z" />
<glyph unicode="$" d="M-31 180q0 -47 48.5 -78.5t152.5 -60.5l-68 -279h48l65 271q16 -2 31.5 -3t32.5 -1h22l-63 -267h45l67 275q141 49 219 149.5t78 223.5q0 74 -36 137t-101 137l125 516q31 -35 43 -75t18 -72.5t10.5 -54t20.5 -21.5q8 0 19.5 22.5t19.5 52t14 61.5t6 50q0 27 -33.5 46.5 t-103.5 47.5l70 285h-47l-66 -272q-16 2 -27.5 3t-15.5 1h-45l66 268h-47l-66 -270q-133 -25 -209 -116t-76 -214q0 -78 34 -141.5t102 -134.5l-140 -576q-127 27 -127 252q0 4 1 8t1 12q0 37 -20 37q-6 0 -17.5 -22.5t-22.5 -56t-19.5 -71.5t-8.5 -69zM227 80l133 547 l70 -70l-115 -475q-29 -6 -45 -6h-18t-25 4zM291 995q0 84 44 143.5t124 82.5l-97 -390q-72 72 -71 164zM365 92l104 426q35 -45 54.5 -84t19.5 -92q0 -84 -47 -151.5t-131 -98.5zM401 793l107 434h35h22t29 -4l-123 -502z" />
<glyph unicode="%" horiz-adv-x="1161" d="M72 928q0 -121 56 -193.5t142 -72.5q55 0 108.5 29.5t96.5 82.5t69.5 126t26.5 157q0 123 -55 197.5t-141 74.5q-59 0 -113.5 -31.5t-96.5 -86t-67.5 -127t-25.5 -156.5zM117 -33h65l846 1354h-65zM172 856q0 86 18.5 165t48 139.5t66.5 96t76 35.5q92 0 92 -157 q0 -84 -18.5 -162t-47 -138.5t-66.5 -96.5t-75 -36q-94 0 -94 154zM573 229q0 -121 56.5 -194.5t142.5 -73.5q55 0 108.5 31t96.5 84t69.5 124.5t26.5 155.5q0 123 -55 197t-141 74q-59 0 -113.5 -31t-96.5 -85t-68 -127t-26 -155zM672 147q0 86 18.5 166t48 141.5 t67.5 97.5t77 36q92 0 92 -160q0 -84 -18.5 -161t-47 -136t-66.5 -95t-75 -36q-43 0 -69.5 38t-26.5 109z" />
<glyph unicode="&#x26;" horiz-adv-x="1089" d="M43 383q0 -90 29.5 -168t83 -134t126 -88t160.5 -32q94 0 177 31t144.5 86t96.5 134t35 177q0 39 -16 94h16q86 0 131 54.5t45 138.5q0 29 -14 29q-8 0 -13.5 -8.5t-13.5 -20.5t-19.5 -25.5t-31.5 -23.5q-43 -23 -104.5 -22t-137.5 -5q-57 -4 -101 -30.5t-75 -58.5 t-46 -62.5t-15 -42.5q0 -23 16 -23q8 0 20.5 19.5t35 42t59.5 42t94 19.5q68 0 99.5 -31t31.5 -98q0 -72 -27.5 -136.5t-77 -112.5t-115 -76.5t-140.5 -28.5q-68 0 -125.5 26.5t-97.5 75.5t-62.5 117.5t-22.5 152.5q0 143 58.5 243.5t156.5 141.5q74 -43 140 -43t65 45 q0 51 -98 52q-25 0 -49 -2.5t-51 -6.5q-47 61 -48 140q0 57 18.5 104t50.5 81t73 52.5t84 18.5q53 0 91 -27t64.5 -57.5t44 -57t27.5 -26.5q18 0 30.5 38.5t12.5 98.5q0 33 -18.5 58.5t-50 44t-73.5 27.5t-87 9q-68 0 -124 -24.5t-97 -68.5t-65 -105.5t-24 -133.5 q0 -47 12.5 -91t35.5 -91q-152 -43 -238 -159.5t-86 -272.5z" />
<glyph unicode="'" horiz-adv-x="346" d="M92 1364q0 -10 1 -20.5t3 -20.5l62 -455h30l62 455q2 12 2 23v20q0 96 -80 96t-80 -98z" />
<glyph unicode="(" horiz-adv-x="630" d="M92 221q0 -164 49 -299t142 -231q41 -43 74.5 -65.5t43.5 -22.5q16 0 17 16q0 14 -21.5 28.5t-52.5 39.5q-145 121 -145 393q0 109 28.5 283t98.5 378q47 139 108.5 245t151.5 183q45 39 85 61.5t69.5 37t47 23.5t17.5 22q0 14 -25 14q-4 0 -35.5 -12t-80 -39t-105.5 -67 t-115 -97q-170 -170 -261 -396.5t-91 -494.5z" />
<glyph unicode=")" horiz-adv-x="630" d="M-250 -383q0 -16 21 -16q8 0 36.5 11t70.5 32.5t92 54.5t100 78q92 80 164.5 182t124 219t79 245t27.5 261q0 170 -44 303t-128 230q-47 53 -87 81.5t-50 28.5q-16 0 -17 -18q0 -12 20.5 -26.5t55.5 -43.5q143 -119 143 -391q0 -109 -29.5 -284t-97.5 -378 q-47 -139 -108.5 -244.5t-151.5 -183.5q-45 -39 -85 -61.5t-70.5 -35.5t-48 -22.5t-17.5 -21.5z" />
<glyph unicode="*" d="M152 844q0 -35 16 -57.5t43 -22.5t49.5 18.5t47 44t57 52t79.5 41.5q-10 -59 -27.5 -102.5t-33.5 -78t-28.5 -62.5t-12.5 -54q0 -72 64 -72q23 0 40 25.5t17 72.5q0 41 -8.5 82t-8.5 82q0 43 13 105q43 -49 66.5 -98.5t41 -87.5t32.5 -61.5t44 -23.5q25 0 42 23.5 t17 50.5q0 41 -24.5 62.5t-60 40t-75.5 42t-73 68.5q39 12 68.5 19.5t54.5 7.5q18 0 36.5 -3.5t35.5 -3.5q43 0 67.5 21.5t24.5 52.5q0 35 -16.5 56.5t-43.5 21.5q-29 0 -50 -19.5t-46 -45t-57.5 -51.5t-79.5 -40q8 57 25.5 100.5t35 77t29.5 63.5t12 58q0 70 -65 70 q-23 0 -39.5 -25.5t-16.5 -72.5q0 -39 7.5 -78t7.5 -82q0 -23 -3 -48.5t-7 -54.5q-43 43 -67 90.5t-40 85t-32.5 63.5t-47.5 26q-25 0 -41 -22.5t-16 -51.5q0 -41 23.5 -62.5t59.5 -40t75.5 -41t74.5 -67.5q-39 -12 -69.5 -19.5t-55.5 -7.5q-20 0 -37.5 3.5t-33.5 3.5 q-41 0 -65.5 -23t-24.5 -51z" />
<glyph unicode="+" horiz-adv-x="1705" d="M254 561h551v-561h98v561h549v98h-549v562h-98v-562h-551v-98z" />
<glyph unicode="," horiz-adv-x="409" d="M-92 -319q0 -23 16 -23q14 0 51 34t74 88t65.5 121.5t28.5 135.5q0 61 -21 94t-56 33q-31 0 -55.5 -27.5t-24.5 -75.5q0 -72 55 -71q39 0 39 -27q0 -25 -20.5 -77t-73.5 -117q-31 -39 -54.5 -53.5t-23.5 -34.5z" />
<glyph unicode="-" horiz-adv-x="448" d="M-14 399q0 -12 14 -12h301q14 0 27 27l32 75q2 4 2 13q0 12 -12 12h-303q-14 0 -27 -27l-32 -75q-2 -4 -2 -13z" />
<glyph unicode="." horiz-adv-x="409" d="M6 57q0 -80 57 -80q33 0 56.5 35t23.5 76q0 80 -57 80q-33 0 -56.5 -32t-23.5 -79z" />
<glyph unicode="/" horiz-adv-x="454" d="M-68 -190h62l495 1517h-61z" />
<glyph unicode="0" d="M16 367q0 -199 63.5 -304.5t170.5 -105.5q90 0 188.5 79t184.5 232q78 141 120.5 307t42.5 330q0 205 -59 314.5t-158 109.5q-217 0 -393 -328q-78 -141 -119 -305.5t-41 -328.5zM125 233q0 104 30.5 281.5t104.5 392.5q131 379 301 379q53 0 85 -59.5t32 -175.5 q0 -111 -31 -292t-108 -399q-63 -180 -136 -269t-151 -89q-59 0 -93 58.5t-34 172.5z" />
<glyph unicode="1" d="M39 23q0 -29 33 -29q10 0 71.5 6t175.5 6q66 0 106 -6t56 -6q41 0 41 26q0 29 -29.5 28t-62.5 3q-55 10 -55 72q0 27 5 52.5t13 53.5l246 924q12 47 24.5 82t12.5 57q0 20 -23 21q-10 0 -52 -31t-142 -78q-49 -23 -83 -35t-55.5 -21t-30.5 -16.5t-9 -21.5q0 -25 20 -25 q14 0 37.5 9.5t48.5 21.5t49.5 21.5t44.5 9.5q12 0 13 -27q0 -12 -7 -39l-219 -821q-12 -49 -24.5 -89t-28.5 -66.5t-42 -41t-69 -14.5h-22q-43 0 -43 -26z" />
<glyph unicode="2" d="M-109 27q0 -27 58 -27h594q23 0 32 23.5t19 66.5q18 76 36.5 122t18.5 69t-12 22q-10 0 -16.5 -8t-12.5 -22.5t-15 -33t-26 -36.5q-27 -31 -61.5 -43.5t-87.5 -12.5h-367q68 80 139.5 147.5t142 127t139.5 113t132 104.5q188 154 189 365q0 74 -21.5 134t-58.5 103 t-88.5 66.5t-110.5 23.5q-150 0 -266 -135q-53 -61 -79 -111.5t-26 -66.5q0 -18 15 -19q8 0 15 8.5t17.5 27t28 47t45.5 67.5q41 57 95.5 88t103.5 31q39 0 72.5 -17.5t59.5 -50.5t40 -77t14 -97q0 -92 -33.5 -173t-92 -158t-134.5 -152.5t-162 -159.5l-311 -305 q-25 -25 -25 -51z" />
<glyph unicode="3" d="M-133 -82q0 -61 61.5 -101t165.5 -40q205 0 404 188q100 96 151 205t51 215q0 147 -89 229t-253 82h-32q213 100 318.5 199.5t105.5 208.5q0 104 -60.5 164.5t-161.5 60.5q-66 0 -126 -26.5t-106 -62.5t-74.5 -73t-28.5 -59q0 -8 12 -8q18 0 32.5 24.5t55.5 59.5 q49 43 92 65.5t84 22.5q63 0 101 -44t38 -130q0 -70 -22.5 -124t-63.5 -99.5t-101.5 -83t-135.5 -74.5q-41 -20 -75 -34.5t-58.5 -27t-39 -26t-14.5 -27.5t15 -14q8 0 26.5 10t46 23.5t63.5 23.5t77 10q111 0 174 -77.5t63 -219.5q0 -111 -39 -208t-98 -169.5t-133 -113.5 t-143 -41q-61 0 -86 27.5t-52 66.5q-41 63 -88 64q-23 0 -40 -18.5t-17 -47.5z" />
<glyph unicode="4" d="M-29 444q0 -41 45 -41h410q35 0 35 -16q0 -4 -4 -25l-49 -206q-10 -47 -25.5 -66.5t-54.5 -30.5q-23 -6 -42.5 -7t-34.5 -3t-23.5 -8t-8.5 -21q0 -27 39 -26q16 0 61.5 6t122.5 6q63 0 103.5 -7t60.5 -7q37 0 37 28q0 20 -20.5 26.5t-44 10.5t-44 13.5t-20.5 38.5 q0 8 6 36l55 220q10 39 39 38h95q16 0 24 3.5t12 21.5l3 14q0 4 1 8.5t1 8.5q0 12 -17 12h-94q-29 0 -29 29q0 12 2 18l107 443q4 16 4 24q0 6 -10 6h-8l-74 -24q-20 -6 -26.5 -14.5t-10.5 -24.5l-100 -418q-4 -23 -13.5 -31t-34.5 -8h-411q193 233 344 401t255.5 276.5 t159 162t54.5 57.5t-11.5 9t-25.5 5q-20 0 -31.5 -6t-23.5 -20l-717 -795q-68 -74 -68 -117z" />
<glyph unicode="5" d="M-125 -135q0 -27 53 -27q164 0 304.5 49.5t244 134t161.5 199.5t58 244q0 141 -69.5 242.5t-196.5 138.5q-49 14 -92 18t-74 5t-49 5.5t-18 18.5q0 2 2 8t6 19l41 127q8 29 18 45t24.5 25t37 12.5t57.5 7.5l332 30q33 4 46 10.5t23 28.5q16 37 21.5 65.5t5.5 37.5 q0 16 -18 16h-11l-471 -57q-33 -4 -40 -20.5t-23 -65.5l-127 -402q-6 -16 -6 -28q0 -27 26 -27q29 0 49.5 2t36.5 2q336 0 336 -291q0 -115 -45 -215t-127 -175t-196.5 -118t-251.5 -43q-16 0 -24.5 1t-12.5 1q-31 0 -31 -24z" />
<glyph unicode="6" d="M25 461q0 -115 25.5 -206t68.5 -155.5t101.5 -99.5t125.5 -35q78 0 147.5 37t123 102.5t84 156.5t30.5 202q0 86 -20.5 157.5t-56.5 122t-84 78t-101 27.5q-29 0 -56.5 -9.5t-49 -21.5t-34 -26.5t-12.5 -24.5q0 -16 19 -16q14 0 37.5 18t68.5 18q68 0 115 -77.5 t47 -223.5q0 -102 -21.5 -189t-57.5 -149.5t-83 -97.5t-98 -35q-86 0 -141.5 101.5t-55.5 296.5q0 150 35 286t97.5 251.5t148.5 205.5t188 145q63 35 115.5 50.5t89.5 24.5t56.5 16.5t19.5 23.5q0 25 -31 25q-12 0 -55 -9.5t-103.5 -31t-131 -54t-138.5 -81.5 q-96 -70 -173 -161t-130 -194.5t-81.5 -217t-28.5 -230.5z" />
<glyph unicode="7" d="M133 -100q0 -18 25 -19q25 0 33 6.5t16 22.5l375 811q57 123 107 220t89 167t61.5 113t22.5 59q0 18 -33 18q-14 0 -37.5 -4t-58.5 -4h-440q-61 0 -84 8.5t-31 8.5q-14 0 -20 -54l-11 -88v-6q0 -27 37 -26h451q61 0 61 -21q0 -10 -6 -25l-551 -1169q-6 -12 -6 -18z" />
<glyph unicode="8" d="M-25 328q0 -84 28 -151.5t77 -116t114.5 -75t139.5 -26.5q82 0 151.5 32t120.5 87t80 128t29 156q0 109 -54 187t-163 164q86 31 149.5 62.5t105.5 67.5t62.5 81t20.5 104q0 61 -24 116.5t-65.5 96.5t-98 64.5t-122.5 23.5q-80 0 -147.5 -29.5t-117.5 -80t-78.5 -116 t-28.5 -134.5q0 -45 11 -82t32.5 -71t53.5 -66.5t73 -69.5q-176 -59 -262.5 -142t-86.5 -210zM96 285q0 137 73 236t196 126q111 -78 163 -150.5t52 -164.5q0 -74 -20.5 -134.5t-55.5 -104.5t-82 -67.5t-98 -23.5q-104 0 -166 77t-62 206zM279 1020q0 55 19 104.5t51 87 t74 59t87 21.5q82 0 142.5 -66.5t60.5 -174.5q0 -218 -256 -310q-90 59 -134 130t-44 149z" />
<glyph unicode="9" d="M-100 -121q0 -27 24 -26q16 0 55 8t91.5 26.5t114 47t126.5 71.5q100 68 185.5 165t147 211t95 236.5t33.5 243.5q0 104 -26.5 190.5t-69.5 145.5t-100.5 92t-118.5 33q-76 0 -145.5 -41t-123 -109.5t-85 -159t-31.5 -190.5q0 -80 20.5 -144.5t55 -111.5t79.5 -72.5 t95 -25.5q31 0 56 9t43.5 23.5t30 30t11.5 27.5q0 14 -17 14q-6 0 -16 -7t-23.5 -16t-30 -16.5t-36.5 -7.5q-66 0 -105.5 69t-39.5 198q0 106 22.5 194t60 150.5t85 96.5t96.5 34q82 0 134 -95.5t52 -269.5q0 -135 -32.5 -268t-92 -252t-142.5 -217t-185 -162 q-66 -41 -120.5 -58.5t-92 -26.5t-59 -15t-21.5 -25z" />
<glyph unicode=":" horiz-adv-x="448" d="M18 53q0 -35 16.5 -55.5t41.5 -20.5q33 0 55.5 34t22.5 77q0 80 -56 80q-33 0 -56.5 -32t-23.5 -83zM141 610q0 -35 16.5 -54t41.5 -19q33 0 56.5 32.5t23.5 75.5q0 82 -58 82q-33 0 -56.5 -33t-23.5 -84z" />
<glyph unicode=";" horiz-adv-x="448" d="M-74 -319q0 -23 17 -23q14 0 50 34t73.5 87t66.5 121.5t29 136.5q0 61 -21.5 94t-56.5 33q-33 0 -56.5 -27.5t-23.5 -79.5q0 -68 55 -67q39 0 39 -27q0 -25 -20.5 -77t-73.5 -117q-31 -37 -54.5 -52.5t-23.5 -35.5zM143 610q0 -35 16.5 -54t41.5 -19q33 0 56.5 32.5 t23.5 75.5q0 82 -58 82q-33 0 -56.5 -33t-23.5 -84z" />
<glyph unicode="&#x3c;" horiz-adv-x="1705" d="M264 569l1178 -481v109l-1022 413l1022 416v109l-1178 -484v-82z" />
<glyph unicode="=" horiz-adv-x="1705" d="M254 375h1198v98h-1198v-98zM254 748h1198v98h-1198v-98z" />
<glyph unicode="&#x3e;" horiz-adv-x="1705" d="M264 88l1178 481v82l-1178 484v-109l1022 -416l-1022 -413v-109z" />
<glyph unicode="?" horiz-adv-x="538" d="M-23 57q0 -78 58 -77q35 0 57.5 33.5t22.5 74.5q0 80 -58 80q-33 0 -56.5 -32t-23.5 -79zM84 348q0 -27 14 -26q16 0 21.5 25.5t14.5 62t28.5 79.5t62.5 80q43 35 104.5 75t121.5 106q117 125 116 260q0 57 -18.5 107t-49 89t-72.5 61.5t-87 22.5q-90 0 -136 -50 t-46 -136q0 -16 9 -26.5t26 -10.5q18 0 37.5 25.5t44 56.5t54 56.5t66.5 25.5q41 0 73 -43t32 -111q0 -78 -57.5 -152.5t-172.5 -154.5q-29 -20 -52 -34.5t-40.5 -32t-30 -42t-20.5 -67.5l-41 -219q-2 -10 -2 -17v-10z" />
<glyph unicode="@" horiz-adv-x="2019" d="M147 537q0 -197 78 -355.5t230 -275.5q242 -184 614 -185q356 0 653 220l-30 34q-137 -104 -294 -156t-323 -52q-352 0 -586 202q-125 106 -179 234.5t-54 302.5q0 207 67.5 376t202.5 296q119 113 270.5 171t329.5 58q160 0 290 -46t222.5 -129t142.5 -198.5t50 -257.5 q0 -147 -52.5 -278t-144.5 -219q-59 -55 -120.5 -83t-102.5 -28q-100 0 -100 111q0 27 5 51t13 53l170 606h-131l-55 -182q-45 199 -221 199q-72 0 -149 -35t-146 -103q-92 -90 -139.5 -196.5t-47.5 -210.5q0 -154 75 -245t196 -91q190 0 311 215q12 -215 205 -215 q133 0 254 111q106 98 164.5 234t58.5 296q0 156 -54.5 282t-153.5 215t-239.5 138t-312.5 49q-367 0 -631 -221q-166 -137 -251 -312.5t-85 -379.5zM739 379q0 90 41 214t119 243q45 66 90.5 99.5t104.5 33.5q74 0 125 -61.5t51 -159.5q0 -86 -32 -194t-93 -206 q-115 -178 -248 -178q-72 0 -115 55.5t-43 153.5z" />
<glyph unicode="A" horiz-adv-x="935" d="M-143 18q0 -23 18 -22q10 0 53 6t117 6q72 0 112 -4t54 -4q29 0 29 29q0 27 -19.5 28.5t-48.5 8.5q-68 14 -68 88q0 37 23 92l106 246h367l49 -322q2 -12 3 -23.5t1 -21.5q0 -37 -19.5 -48t-42 -16.5t-42 -11.5t-19.5 -31q0 -24 34 -24h3q41 0 81 6t83 6q41 0 70.5 -5 t48.5 -5q35 0 35 24q0 14 -11.5 19.5t-27 13.5t-29.5 24.5t-20 55.5l-187 1141q-4 20 -6 30.5t-16 10.5q-16 0 -21.5 -12.5t-9.5 -22.5l-485 -1010q-35 -74 -66 -120t-65 -64q-39 -20 -61.5 -30.5t-22.5 -37.5zM260 553l254 530l78 -530h-332z" />
<glyph unicode="B" horiz-adv-x="983" d="M-90 16q0 -20 27 -20q12 0 57 7t123 7q49 0 127 -7t182 -7q211 0 321.5 103.5t110.5 287.5q0 133 -73 214t-214 99q82 10 148.5 42t113 78t72 104.5t25.5 122.5q0 131 -78 186t-238 55q-41 0 -86 -2t-94 -2q-80 0 -126 4t-62 4q-41 0 -41 -26q0 -14 10 -17.5t27 -3.5h14 q61 0 61 -49q0 -10 -2 -28.5t-8 -47.5l-225 -889q-10 -39 -18.5 -67.5t-19.5 -50t-28.5 -36t-48.5 -24.5l-45 -14q-12 -4 -12 -23zM205 135q0 25 7 56.5t17 70.5l95 408q33 4 58.5 6t47.5 2q141 0 215 -64.5t74 -187.5q0 -176 -94.5 -280.5t-286.5 -104.5q-72 0 -102.5 20.5 t-30.5 73.5zM348 739q0 11 10 62l43 184q14 61 34 123.5t44 128.5q76 6 90 6q117 0 172.5 -38t55.5 -136q0 -156 -99.5 -252t-296.5 -96q-53 0 -53 18z" />
<glyph unicode="C" horiz-adv-x="999" d="M43 471q0 -117 30.5 -210t88 -158.5t138.5 -100.5t183 -35q61 0 116.5 10.5t99.5 28t73 37.5t39 41q6 14 9 47t14 82q12 61 20 95t8 42q0 25 -16 25q-23 0 -33 -38t-39 -99q-47 -102 -127 -158.5t-166 -56.5q-61 0 -116.5 29.5t-96.5 86t-64.5 136t-23.5 182.5 q0 182 78 346t225 293q98 84 206 125t190 41q39 0 53 -19.5t14 -83.5q0 -55 -1 -87t-1 -40q0 -23 2 -34t17 -11q18 0 24 19.5t14 60.5q18 90 32 141.5t14 67.5q0 31 -24 43t-77 12q-137 0 -297 -59.5t-307 -179.5q-147 -123 -223 -279t-76 -342z" />
<glyph unicode="D" horiz-adv-x="1175" d="M-104 18q0 -16 9 -20t27 -4q16 0 75 7t159 7q61 0 119.5 -3t115.5 -3q150 0 268.5 47t223.5 156q111 113 171 261t60 310q0 246 -116.5 379t-345.5 133q-86 0 -154 -3t-115 -3h-24q-55 0 -87 5t-44 5q-35 0 -35 -26q0 -18 14 -20.5t32.5 -5.5t33 -15.5t14.5 -46.5 q0 -51 -10 -93l-199 -856q-14 -57 -26.5 -94t-55.5 -59q-29 -14 -49 -19.5t-34.5 -9.5t-20.5 -9t-6 -20zM205 152q0 12 3 27.5t7 35.5l223 930q14 59 43 76.5t92 17.5q94 0 162 -10t125.5 -57.5t92 -134.5t34.5 -201q0 -82 -16.5 -170t-44 -169t-62.5 -149.5t-73 -114.5 q-78 -90 -184.5 -138t-227.5 -48h-25q-39 0 -67.5 2t-47 12.5t-26.5 32t-8 58.5z" />
<glyph unicode="E" horiz-adv-x="921" d="M-102 18q0 -27 34 -26q12 0 122 7t339 7q164 0 232.5 -8t76.5 -8q18 0 25.5 22.5t17.5 61.5l43 157q6 25 6 33q0 12 -7 19.5t-13 7.5q-14 0 -21.5 -12.5t-16.5 -33t-24.5 -48t-45.5 -60.5q-82 -88 -220 -88h-151q-47 0 -68.5 18.5t-21.5 63.5q0 23 7 56.5t17 80.5l99 389 h170q45 0 69.5 -8t35.5 -24.5t13 -42t2 -62.5v-10q0 -10 -1 -22.5t-1 -26.5q0 -33 25 -33t31 43t26 129q29 123 50.5 184.5t21.5 71.5q0 27 -16 27q-12 0 -20.5 -11.5t-16.5 -30t-20.5 -40t-30.5 -41.5q-29 -33 -65 -42t-91 -9h-164l115 518q47 4 93 6t93 2q98 0 145.5 -37 t47.5 -123q0 -4 -1 -18.5t-1 -36.5q0 -16 7 -25.5t17 -9.5q14 0 20.5 10.5t12.5 32.5l51 191q8 33 8 38q0 23 -8 27t-33 4q-10 0 -74.5 -2t-187.5 -2q-209 0 -306 4t-107 4q-33 0 -33 -26q0 -18 14 -21.5t32.5 -6.5t33 -13.5t14.5 -42.5q0 -18 -3 -45t-9 -52l-213 -884 q-16 -63 -29.5 -98t-44.5 -46q-16 -6 -34.5 -7t-34 -3t-24.5 -8t-9 -21z" />
<glyph unicode="F" horiz-adv-x="849" d="M-104 18q0 -24 28 -24h2q31 0 78 8t107 8q76 0 127 -6t73 -6q31 0 31 25q0 18 -12.5 21t-34.5 3q-55 0 -74.5 16.5t-19.5 53.5q0 23 5 44t9 44l104 454q31 4 60 7.5t53 3.5q55 0 89 -5.5t54.5 -19.5t27.5 -39.5t7 -68.5q0 -25 -3 -42.5t-3 -27.5t7 -19.5t14 -9.5 q12 0 18 12.5t9 37t8.5 60.5t15.5 83q23 94 46 152.5t23 88.5q0 10 -16 11q-25 0 -37 -35t-45 -88q-27 -41 -125 -41h-188l127 512q55 6 96 7t68 1q98 0 145 -37t47 -123q0 -6 -1 -15t-1 -22q0 -53 25 -53q23 0 32 43l48 223q2 6 2 15q0 16 -9.5 19t-29.5 3q-10 0 -69.5 -4 t-174.5 -4h-240q-59 0 -100 6t-61 6q-33 0 -33 -24q0 -18 14 -21.5t32.5 -6.5t33 -14t14.5 -44q0 -16 -3 -43t-9 -53l-211 -887q-16 -61 -30.5 -98t-45.5 -48q-20 -8 -39.5 -10t-34 -3t-22.5 -6t-8 -20z" />
<glyph unicode="G" horiz-adv-x="1112" d="M39 457q0 -111 36 -203t100.5 -157.5t153.5 -101.5t195 -36q180 0 324 88q6 72 16 121t17 82l22 115q14 70 29.5 110.5t40.5 61.5q14 10 29.5 13t28.5 6t21.5 8t8.5 22q0 20 -25 20q-18 0 -57 -6t-98 -6q-57 0 -100.5 4t-71.5 4q-37 0 -37 -24q0 -14 8 -19.5t20.5 -6.5 t26.5 -1t29 -4q43 -12 43 -66q0 -6 -6 -45l-31 -155q-6 -29 -17.5 -82.5t-33.5 -126.5q-29 -29 -73 -41.5t-106 -12.5q-156 0 -245.5 112t-89.5 312q0 186 75.5 355.5t219.5 298.5q96 86 204.5 129t196.5 43q59 0 72.5 -29t13.5 -104q0 -35 -2 -60.5t-2 -44.5q0 -43 24 -43 q23 0 29 27l59 264q2 4 3 14q0 41 -103 41q-143 0 -296.5 -50t-287.5 -148q-180 -135 -272 -306.5t-92 -371.5z" />
<glyph unicode="H" horiz-adv-x="1202" d="M-78 -4q18 0 66.5 6t124.5 6q88 0 135 -6t57 -6t18.5 7t8.5 17q0 16 -12.5 20.5t-34.5 4.5q-39 0 -61.5 16.5t-22.5 51.5q0 23 4 45t10 47l107 463h561l-113 -525q-10 -43 -28.5 -63.5t-55.5 -28.5q-35 -8 -59 -8q-23 0 -23 -25q0 -24 27 -24h2q23 0 70 7t118 7 q66 0 110 -5t64 -5q39 0 39 25q0 14 -8 19t-20.5 6t-28.5 1q-14 0 -29 4q-41 10 -41 66q0 14 4 35.5t11 50.5l204 940q10 43 22.5 62.5t43.5 27.5q29 6 48.5 7t19.5 26q0 23 -21 22q-14 0 -52 -6t-100 -6q-61 0 -102 7t-57 7q-39 0 -39 -24q0 -18 14.5 -20.5t31.5 -6.5 t31.5 -17.5t14.5 -52.5q0 -12 -2 -35.5t-6 -50.5l-78 -366h-563l106 426q10 47 27.5 64.5t52.5 25.5t57 8q25 0 25 25q0 23 -20 22q-8 0 -42 -5t-98 -5q-86 0 -134 6t-62 6q-39 0 -39 -28q0 -16 15.5 -19.5t32.5 -6.5t32.5 -13.5t15.5 -40.5q0 -12 -3 -24.5t-7 -29.5 l-234 -989q-10 -47 -27.5 -64.5t-52 -25.5t-57.5 -8q-24 0 -24 -23q0 -25 26 -24z" />
<glyph unicode="I" horiz-adv-x="524" d="M-70 -4h2q20 0 67.5 6t123.5 6q90 0 136 -6t54 -6q12 0 20.5 7t8.5 17q0 27 -25.5 25t-54.5 4q-51 12 -51 64q0 18 5 40.5t11 51.5l222 952q12 49 33.5 65.5t43 20.5t37 6t15.5 21q0 20 -25 20q-16 0 -42 -4t-62 -4q-88 0 -137.5 5t-61.5 5q-35 0 -35 -24 q0 -16 14.5 -20.5t33 -8.5t32.5 -14.5t14 -36.5q0 -10 -1 -25.5t-5 -32.5l-233 -989q-10 -47 -27.5 -64.5t-52.5 -25.5t-58 -8q-24 0 -24 -23q0 -24 22 -24z" />
<glyph unicode="J" horiz-adv-x="516" d="M-309 -272q0 -57 38 -97.5t103 -40.5q121 0 219.5 123t157.5 379l246 1047q10 47 28.5 68.5t53.5 27.5q18 4 33.5 5t26.5 3t16 7t5 20q0 8 -6 15t-16 7t-41 -5t-86 -5q-119 0 -178.5 5t-69.5 5q-37 0 -37 -26q0 -16 14.5 -21.5t41.5 -5.5q41 0 58 -14.5t17 -53.5 q0 -12 -6 -45l-217 -991q-18 -82 -29.5 -165t-40 -162.5t-66.5 -118.5t-67 -39q-25 0 -37 24.5t-22 54t-25.5 54t-46.5 24.5q-29 0 -48 -21.5t-19 -57.5z" />
<glyph unicode="K" horiz-adv-x="927" d="M-80 -4h2q20 0 67.5 6t123.5 6q90 0 136 -6t54 -6q12 0 20.5 7t8.5 17q0 27 -25.5 25t-54.5 4q-51 12 -51 64q0 20 6 51l88 414l88 81l240 -581q20 -53 34.5 -66.5t47.5 -13.5q18 0 37.5 3t39.5 3q25 0 43.5 -3t28.5 -3q31 0 31 22q0 10 -8.5 16.5t-20.5 10.5t-28.5 9 t-32.5 16q-31 16 -49.5 57t-45.5 104l-221 523l361 356q49 49 89 74.5t69.5 40t45 21.5t15.5 18q0 20 -29 20q-12 0 -48 -4t-91 -4q-47 0 -81 8t-56 8q-10 0 -18.5 -7t-8.5 -17q0 -16 13.5 -21.5t30.5 -10.5t30.5 -14.5t13.5 -31.5q0 -16 -14.5 -34.5t-38.5 -43.5l-445 -444 l121 487q12 49 34 65.5t42.5 20.5t35.5 6t15 21q0 20 -24 20q-16 0 -41 -4t-62 -4q-88 0 -138 5t-62 5q-35 0 -35 -24q0 -16 15 -20.5t32.5 -8.5t33 -14.5t15.5 -36.5q0 -27 -8 -58l-234 -989q-10 -47 -27.5 -64.5t-52 -25.5t-57.5 -8q-24 0 -24 -23q0 -24 24 -24z" />
<glyph unicode="L" horiz-adv-x="739" d="M-80 -4h2q14 0 67.5 6t145.5 6q193 0 293 -5t117 -5q39 0 52 11t19 40l43 189q4 14 5 20v10q0 10 -6.5 16.5t-10.5 6.5q-12 0 -19 -15.5t-17.5 -40t-28 -54t-47.5 -60.5q-47 -43 -104.5 -57.5t-145.5 -14.5q-45 0 -64.5 14.5t-19.5 49.5q0 18 4 40.5t10 51.5l223 940 q10 45 27.5 63.5t52.5 26.5q37 8 60 8t22 25q0 20 -22 20q-8 0 -49.5 -4t-118.5 -4q-66 0 -108 6t-58 6q-41 0 -41 -26q0 -16 14 -20.5t32.5 -7.5t33 -11t14.5 -35q0 -16 -1 -32.5t-5 -29.5l-234 -989q-10 -47 -27.5 -64.5t-52 -25.5t-57.5 -8q-24 0 -24 -23q0 -24 24 -24z " />
<glyph unicode="M" horiz-adv-x="1296" d="M-135 14q0 -20 26 -20q16 0 50 6t86 6q59 0 96 -8t57 -8q12 0 21.5 8t9.5 20q0 16 -17.5 21.5t-39 13.5t-39 26.5t-17.5 61.5q0 37 65.5 290t217.5 720l47 -1083q2 -29 5 -43.5t16 -14.5q20 0 38 37l607 1155l-201 -1009q-14 -66 -27.5 -98t-58.5 -44q-29 -8 -49 -8 t-21 -25q0 -27 27 -26q10 0 52 6t116 6q61 0 100 -5t55 -5t24.5 7t8.5 15q0 18 -11 21.5t-30 3.5q-59 0 -59 65q0 20 6 56l188 1001q14 74 72 80q31 4 53.5 5t22.5 24q0 20 -33 20q-29 0 -56.5 -3t-55.5 -3q-35 0 -67 1t-60 3q-131 -262 -266.5 -513t-280.5 -498l-29 950 q-2 35 -7 47t-46 12q-98 0 -145.5 4t-55.5 4q-31 0 -31 -22q0 -16 16.5 -19.5t36 -6.5t36 -13t16.5 -43q0 -20 -2 -36.5t-6 -27.5l-260 -892q-14 -47 -24.5 -79t-23 -51.5t-28 -31t-39.5 -17.5q-37 -10 -61.5 -15t-24.5 -28z" />
<glyph unicode="N" horiz-adv-x="1128" d="M-123 14q0 -20 23 -20q12 0 53 7t106 7q53 0 86 -4t50 -4q16 0 26 8t10 19q0 20 -17 24t-38.5 8t-39 17.5t-17.5 50.5q0 57 46 266t142 574l47 184l408 -1171l29 6q125 555 206.5 846.5t96.5 326.5q16 43 40.5 59.5t48 22.5t41 9t17.5 22q0 20 -31 20q-16 0 -52 -6 t-91 -6q-66 0 -99.5 4t-43.5 4q-14 0 -24.5 -9t-10.5 -19q0 -20 16.5 -24.5t38.5 -8.5q31 -6 46.5 -22.5t15.5 -51.5q0 -27 -47.5 -246t-157.5 -626l-336 976q-10 33 -45 33q-10 0 -27.5 -1t-40.5 -1q-37 0 -64.5 4t-45.5 4q-31 0 -31 -24q0 -18 15.5 -21.5t32.5 -5.5 t32.5 -10t15.5 -37q0 -27 -6 -51l-192 -733q-41 -156 -66 -242t-61 -104q-18 -10 -37 -14.5t-34 -9.5t-24.5 -11t-9.5 -19z" />
<glyph unicode="O" horiz-adv-x="1175" d="M55 563q0 -141 36 -252.5t97.5 -189.5t145.5 -119t182 -41q117 0 228.5 60.5t201.5 177.5q84 109 128 246t44 294q0 133 -35.5 243t-97 186.5t-144.5 118.5t-177 42q-117 0 -226.5 -58.5t-194.5 -160.5t-136.5 -242.5t-51.5 -304.5zM195 465q0 135 35.5 279.5t97.5 265.5 q68 129 149.5 194.5t184.5 65.5q139 0 228 -113.5t89 -322.5q0 -137 -38 -291t-103 -287q-57 -115 -141.5 -174t-180.5 -59q-141 0 -231 115.5t-90 326.5z" />
<glyph unicode="P" horiz-adv-x="931" d="M-84 18q0 -22 23 -22h2q20 0 63 6t109 6q78 0 120.5 -6t57.5 -6q20 0 30.5 7t10.5 17q0 14 -8.5 19.5t-20.5 7.5t-29 2q-14 0 -28 4q-45 14 -45 60q0 20 4 42.5t10 49.5l86 364q20 -2 39 -2h39q131 0 232.5 32t171 90.5t104.5 139t35 179.5q0 137 -70 208.5t-203 71.5 q-55 0 -114.5 -4t-124.5 -4q-76 0 -117 5t-51 5q-39 0 -39 -22q0 -18 14 -21.5t32.5 -6.5t33 -17.5t14.5 -53.5q0 -16 -2 -37.5t-8 -46.5l-228 -944q-12 -51 -35.5 -68.5t-48 -23.5t-42 -8t-17.5 -23zM309 616l135 611q25 4 46.5 6t39.5 2q129 0 196 -46t67 -169 q0 -80 -30 -152.5t-83 -130t-128 -91.5t-165 -34q-16 0 -35.5 1t-42.5 3z" />
<glyph unicode="Q" horiz-adv-x="1175" d="M-31 -311q0 -45 45 -45q31 0 63 21.5t61.5 46t57 46t50.5 21.5t60.5 -30t96.5 -77q70 -53 130.5 -89t142.5 -36q68 0 139.5 36t132.5 106q47 53 69.5 95t22.5 64q0 20 -14 21q-10 0 -17.5 -7t-15.5 -18.5t-18 -28t-29 -34.5q-47 -49 -91 -72.5t-97 -23.5 q-59 0 -111.5 22.5t-105 50t-110.5 51t-128 23.5q43 43 91 68.5t97.5 42t95.5 27t87 26.5q98 37 179 107.5t140.5 167t92 214t32.5 252.5q0 133 -35.5 240.5t-97 184.5t-144.5 119t-177 42q-117 0 -227.5 -57.5t-194.5 -158.5t-135.5 -240.5t-51.5 -301.5 q0 -244 99.5 -397.5t279.5 -194.5q-137 -45 -229 -137q-111 -4 -173.5 -50t-62.5 -97zM195 465q0 135 35.5 278.5t97.5 264.5q133 256 334 256q141 0 229 -113t88 -320q0 -135 -37 -287.5t-104 -285.5q-57 -113 -141.5 -173t-180.5 -60q-141 0 -231 115.5t-90 324.5z" />
<glyph unicode="R" horiz-adv-x="933" d="M-84 18q0 -22 23 -22h2q16 0 66 6t136 6q59 0 91 -4t42 -4q16 0 17 20q0 18 -14.5 22.5t-32 8.5t-31.5 15.5t-14 46.5q0 18 4 41.5t10 50.5l86 364l72 9q4 0 9 1t9 1q35 0 53.5 -26t36.5 -83l131 -414q18 -57 60 -57q16 0 32.5 3t34.5 3q25 0 43.5 -4t30.5 -4q29 0 29 22 q0 10 -7.5 16.5t-18.5 10.5t-24.5 9t-27.5 16q-29 18 -47.5 57t-36.5 104l-76 269q-8 30 -47 114q365 154 365 416q0 125 -70 190.5t-203 65.5q-43 0 -86 -2t-88 -2q-113 0 -169 4t-64 4q-39 0 -39 -24q0 -18 14 -21.5t32.5 -6.5t33 -17.5t14.5 -53.5q0 -16 -2 -37.5 t-8 -46.5l-228 -944q-12 -49 -35.5 -67.5t-48 -23.5t-42 -8t-17.5 -24zM311 618l138 615q25 4 46 6t37 2q129 0 191.5 -45t62.5 -170q0 -84 -33.5 -157.5t-95 -129t-149.5 -87.5t-197 -34z" />
<glyph unicode="S" horiz-adv-x="716" d="M-25 78q0 -14 5.5 -26.5t27.5 -26.5q51 -29 112.5 -46.5t115.5 -17.5q80 0 151.5 32t125.5 87t86 130t32 161q0 61 -14.5 107t-38 85t-54 74t-63.5 72l-121 143q-37 45 -55.5 87t-18.5 95t18.5 98.5t50.5 79t74 53t91 19.5q84 0 129 -46t45 -138v-53q0 -37 18 -37 q20 0 27 37l31 174v8q0 20 -17.5 38.5t-48.5 32t-71 21.5t-85 8q-80 0 -147.5 -25.5t-117.5 -74.5t-77.5 -119t-27.5 -156q0 -127 112 -260l103 -125q53 -66 89 -124t36 -138q0 -61 -19.5 -116.5t-52.5 -95.5t-79 -63.5t-97 -23.5q-82 0 -138.5 48t-68.5 110q-8 39 -11 67.5 t-6 48t-8.5 28.5t-17.5 9q-10 0 -14 -13t-4 -36l-7 -178v-14z" />
<glyph unicode="T" horiz-adv-x="899" d="M59 18q0 -24 27 -24h2q20 0 75.5 7t147.5 7q49 0 79 -5t42 -5q39 0 39 25q0 18 -17.5 23t-39 9t-39 12.5t-17.5 32.5q0 23 11 64l256 1026q6 23 14 35t29 12h133q61 0 81.5 -24.5t20.5 -96.5q0 -16 -2 -32.5t-2 -32.5q0 -14 6 -24.5t17 -10.5q18 0 24 24l70 265 q4 12 4 20v14q0 18 -14 19q-10 0 -15.5 -11.5t-16.5 -25.5t-36 -25.5t-76 -11.5h-592q-39 0 -53 13.5t-18 31t-6.5 30.5t-14.5 13q-10 0 -15 -8t-9 -25l-78 -256q-8 -27 -8 -34q0 -25 22 -25q12 0 20.5 11.5t15.5 29.5t17.5 40.5t28.5 47.5q35 49 78 66.5t106 17.5h99 q39 0 39 -18q0 -16 -7 -37l-266 -1041q-12 -47 -28.5 -64.5t-51.5 -25.5t-59 -8q-23 0 -23 -25z" />
<glyph unicode="U" horiz-adv-x="1079" d="M92 264q0 -145 89 -225t249 -80q104 0 175 29.5t120 87t81 142.5t58 198l154 639q16 68 28.5 108.5t45.5 59.5q14 8 29.5 11t29.5 6t23.5 9t9.5 21q0 10 -6.5 17t-16.5 7q-16 0 -46 -6t-77 -6q-59 0 -94 6t-49 6q-16 0 -23.5 -8t-7.5 -18q0 -16 18.5 -20.5t41 -9.5 t41 -19.5t18.5 -51.5q0 -14 -3 -39.5t-11 -60.5l-142 -616q-23 -100 -49 -182.5t-68 -140.5t-102.5 -90t-150.5 -32q-121 0 -185.5 59.5t-64.5 161.5q0 35 14.5 124t52.5 233l148 561q10 35 25.5 57.5t50.5 32.5q14 4 29.5 5t27.5 3t20.5 7t8.5 20q0 25 -49 24q-16 0 -37 -5 t-49 -5q-111 0 -165.5 6t-64.5 6q-33 0 -33 -28q0 -27 23.5 -26t54.5 -5q12 -2 21.5 -16.5t9.5 -36.5q0 -20 -14 -78l-142 -571q-18 -74 -32.5 -140.5t-14.5 -130.5z" />
<glyph unicode="V" horiz-adv-x="917" d="M45 1268q0 -12 11.5 -17.5t25.5 -12.5t27.5 -21.5t19.5 -45.5l188 -1161q4 -16 6.5 -24.5t16.5 -8.5q10 0 15 9.5t14 25.5l477 1032q33 70 59.5 115t71.5 64q14 6 30.5 8t29 5t20.5 9t8 21q0 26 -36 26h-3q-12 0 -51 -5t-107 -5q-47 0 -77.5 5t-47.5 5q-45 0 -45 -30 q0 -18 18.5 -24.5t41 -10.5t41 -11.5t18.5 -27.5t-31 -90l-372 -871l-142 899q-6 45 -6 58q0 29 18.5 39t42 14t42 8t18.5 21q0 26 -34 26h-3q-18 0 -59 -3t-103 -3q-43 0 -68.5 2t-35.5 2q-39 0 -39 -22z" />
<glyph unicode="W" horiz-adv-x="1353" d="M31 1268q0 -14 11 -19.5t25.5 -11.5t29 -17.5t18.5 -37.5l215 -1164q6 -36 21 -36h1q10 0 16.5 9t14.5 25l262 510l90 -508q6 -36 22 -36h1q10 0 16 9t14 25l494 1028q33 70 59.5 115t71.5 64q14 6 30.5 8t29 5t20.5 9t8 21q0 27 -37 26q-27 0 -56.5 -5t-66.5 -5 q-8 0 -12 1t-6 1q-16 0 -34.5 3t-39.5 3q-29 0 -28 -26q0 -12 10 -20.5t21.5 -14.5t21.5 -13.5t10 -21.5q0 -8 -5 -24.5t-19 -45.5l-429 -911l-86 524l156 310q35 68 61.5 112.5t71.5 63.5q14 6 29.5 8t28 5t20.5 9t8 21q0 25 -33 24q-16 0 -41.5 -4t-58.5 -4q-59 0 -91 6 t-44 6q-25 0 -25 -26q0 -16 12.5 -22.5t27 -12.5t26.5 -13.5t12 -25.5q0 -10 -6 -31.5t-22 -54.5l-146 -291l-57 348q-2 10 -2 25q0 25 14 34t30.5 13t31 10t14.5 23q0 23 -27 22q-10 0 -40.5 -4t-84.5 -4q-78 0 -115.5 5t-43.5 5q-20 0 -21 -22q0 -14 15.5 -19.5t34 -11.5 t35.5 -19.5t24 -43.5l96 -570l-213 -409l-166 927q-4 18 -6 34t-2 32q0 25 18.5 33t41 12t41 8t18.5 21q0 25 -31 24q-10 0 -53 -4t-121 -4q-35 0 -59.5 4t-41.5 4q-12 0 -21 -7t-9 -15z" />
<glyph unicode="X" horiz-adv-x="966" d="M-147 23q0 -23 32 -23q10 0 42 6t93 6q72 0 114 -7t59 -7q37 0 36 29q0 23 -18 27.5t-39.5 5.5t-40 6.5t-18.5 29.5q0 41 90 160l256 334l135 -402q10 -29 15 -49t5 -35q0 -27 -22.5 -36t-50 -13t-50 -9t-22.5 -23q0 -23 33 -23q16 0 65 5t133 5q61 0 99.5 -7t54.5 -7 q35 0 35 27q0 25 -25.5 25.5t-60.5 12.5q-29 10 -39 41t-33 91l-184 507l278 340q70 86 120 134.5t85 60.5q29 10 52.5 11t23.5 26q0 18 -27 18q-10 0 -49 -2t-108 -2q-63 0 -101.5 2t-52.5 2q-37 0 -37 -20q0 -16 17.5 -19.5t39 -6.5t40 -10t18.5 -34q0 -20 -36 -85.5 t-108 -151.5l-180 -220l-129 406q-4 14 -8 26.5t-4 24.5q0 29 19.5 37t42 9t42 5t19.5 23q0 16 -27 16q-8 0 -49 -4t-125 -4q-53 0 -90 4t-57 4q-27 0 -27 -18q0 -23 25.5 -25t56.5 -24q25 -18 37 -45t26 -66l164 -475l-358 -451q-35 -43 -69 -73.5t-83 -44.5 q-35 -10 -55 -16.5t-20 -28.5z" />
<glyph unicode="Y" horiz-adv-x="833" d="M61 -6h2q23 0 69 7t114 7q70 0 112.5 -5t61.5 -5q37 0 37 22q0 14 -7.5 19.5t-19.5 7.5t-29 2q-14 0 -28 4q-43 12 -43 60q0 33 14 92l92 364l352 471q63 84 107.5 132.5t79.5 62.5q27 10 48 12t21 25q0 18 -26 18q-6 0 -41 -1t-100 -1q-53 0 -86 1t-50 1q-37 0 -36 -20 q0 -16 17 -19.5t38.5 -6.5t40 -10t18.5 -34q0 -29 -38 -86t-105 -151l-248 -342l-131 518q-8 31 -8 57q0 31 19.5 39t42 10t42 4t19.5 19q0 22 -27 22h-2q-8 0 -46 -2t-110 -2q-59 0 -91 2t-38 2q-33 0 -32 -20q0 -16 9 -18.5t23.5 -8.5t28.5 -21.5t27 -56.5l153 -565 l-114 -459q-10 -47 -26.5 -64.5t-49.5 -25.5q-35 -8 -60 -8q-22 0 -22 -23q0 -26 26 -26z" />
<glyph unicode="Z" horiz-adv-x="909" d="M-84 29q0 -20 12.5 -24.5t42.5 -4.5q35 0 121 4t225 4q186 0 280.5 -5t109.5 -5q53 0 61 45l41 225q4 16 5 27v12q0 27 -17 27q-16 0 -23.5 -16.5t-16.5 -44t-26.5 -64.5t-56.5 -80q-49 -53 -143.5 -66.5t-247.5 -13.5h-33q-29 0 -64.5 1t-83.5 7l856 1155 q10 14 18.5 25.5t8.5 26.5q0 12 -8 21t-21 9q-16 0 -44.5 -5t-73.5 -5h-328q-104 0 -162.5 4t-75.5 4q-57 0 -67 -45l-43 -190q-4 -10 -4 -21v-12q0 -33 14 -33q16 0 24 16.5t16.5 42t27 58.5t55.5 63q53 45 123.5 55.5t167.5 10.5h215l-819 -1108q-29 -39 -47.5 -60.5 t-18.5 -39.5z" />
<glyph unicode="[" horiz-adv-x="630" d="M-4 -354q0 -12 13.5 -26.5t29.5 -14.5h205q20 0 20 28q0 29 -18 29h-90q-51 0 -52 27q0 18 7 43l346 1462q10 39 22.5 57.5t40.5 18.5h113q23 0 22 28q0 29 -16 29h-182q-37 0 -56.5 -17.5t-29.5 -56.5l-365 -1542q-6 -25 -8 -41t-2 -24z" />
<glyph unicode="\" horiz-adv-x="454" d="M78 1327l221 -1517h61l-219 1517h-63z" />
<glyph unicode="]" horiz-adv-x="630" d="M-117 -367q0 -29 15 -28h184q37 0 56.5 18.5t29.5 57.5l364 1540q6 27 8.5 43t2.5 22q0 12 -14.5 26.5t-30.5 14.5h-203q-20 0 -21 -29q0 -29 19 -28h90q49 0 49 -27v-20t-4 -21l-346 -1464q-10 -39 -22.5 -57.5t-41.5 -18.5h-114q-20 0 -21 -29z" />
<glyph unicode="^" horiz-adv-x="2048" d="M412 897h86l524 451l522 -451h88l-526 565h-166z" />
<glyph unicode="_" horiz-adv-x="1024" d="M0 -383v-100h1024v100h-1024z" />
<glyph unicode="`" horiz-adv-x="1024" d="M432 1356q0 -23 12.5 -40.5t34.5 -43.5l180 -223h46l-160 282q-41 74 -70 74q-18 0 -30.5 -13.5t-12.5 -35.5z" />
<glyph unicode="a" horiz-adv-x="960" d="M-25 186q0 -109 45.5 -166t120.5 -57q102 0 219 133t271 398l-62 -228q-16 -59 -29.5 -113.5t-13.5 -105.5q0 -88 66 -88q86 0 199 164q65 91 65 134q0 15 -10 15q-16 0 -24.5 -20.5t-35.5 -56.5q-61 -86 -96 -86q-23 0 -22 43q0 8 4 34.5t16 69.5l172 625q10 31 10 45 q0 23 -10 27.5t-39 4.5q-23 0 -38 -9t-25 -20t-17.5 -20.5t-15.5 -9.5q-14 0 -48 21.5t-89 21.5q-82 0 -189.5 -62.5t-210.5 -191.5q-109 -135 -161 -262t-52 -240zM106 190q0 70 35 171.5t107 226.5q92 160 185.5 236.5t152.5 76.5q55 0 85.5 -32.5t30.5 -92.5 q0 -119 -215 -434q-92 -135 -160.5 -203.5t-125.5 -68.5q-41 0 -68 30.5t-27 89.5z" />
<glyph unicode="b" horiz-adv-x="849" d="M14 205q0 -117 57.5 -181.5t153.5 -64.5q111 0 213.5 61.5t179.5 180.5q72 106 111 237t39 244q0 121 -48 188.5t-124 67.5q-98 0 -199.5 -115.5t-222.5 -351.5l240 926l3 15t1 7q0 16 -10 17q-10 0 -23.5 -9.5t-36 -20.5t-56.5 -20.5t-83 -9.5q-43 0 -43 -26 q0 -20 31 -21q6 0 11 1t11 1q23 0 35 -11t12 -26q0 -29 -14 -80l-168 -643q-33 -123 -51.5 -213t-18.5 -153zM102 145q0 70 41 177.5t129 248.5q84 135 150.5 203t130.5 68q39 0 64.5 -36t25.5 -104q0 -41 -8 -96t-26.5 -118.5t-46 -132t-64.5 -136.5q-61 -111 -131 -165 t-142 -54q-123 0 -123 145z" />
<glyph unicode="c" horiz-adv-x="768" d="M2 313q0 -80 21.5 -145.5t59.5 -111.5t88 -71.5t110 -25.5q72 0 138 38t132 114q45 51 66.5 88t21.5 53q0 20 -14 20q-18 0 -27.5 -24.5t-42.5 -61.5q-111 -123 -207 -123q-94 0 -146 70t-52 201q0 123 34.5 225.5t84.5 175t106.5 113.5t101.5 41q23 0 40.5 -18.5 t36.5 -40t43 -40t58 -18.5q29 0 45.5 18.5t16.5 38.5q0 55 -47 85t-129 30q-80 0 -177.5 -46t-183.5 -150q-88 -94 -133 -208t-45 -227z" />
<glyph unicode="d" horiz-adv-x="927" d="M-29 180q0 -104 44 -160.5t116 -56.5q98 0 210 131t257 393l-55 -221q-16 -66 -29.5 -119t-13.5 -100q0 -88 69 -88q72 0 174 150q39 55 57.5 96t18.5 57t-10 17q-18 0 -26.5 -23t-30.5 -59q-53 -84 -88 -84q-10 0 -18.5 10t-8.5 24t4 41t14 68l312 1141q4 10 4 14v8 q0 16 -10 17q-18 0 -46 -20.5t-86 -31.5q-31 -6 -54 -7t-40.5 -3t-27 -7t-9.5 -17q0 -20 33 -21q6 0 13.5 1t13.5 1q23 0 36 -11t13 -26q0 -8 -3 -28.5t-11 -51.5l-86 -325q-70 53 -138 53q-92 0 -200.5 -63.5t-204.5 -186.5q-94 -121 -143.5 -259t-49.5 -253zM106 188 q0 72 32 173.5t102 226.5q88 160 175 236.5t144 76.5q51 0 82 -30.5t31 -84.5q0 -74 -52.5 -182t-152.5 -262q-86 -135 -152.5 -203.5t-119.5 -68.5q-37 0 -63 30.5t-26 87.5z" />
<glyph unicode="e" horiz-adv-x="757" d="M2 313q0 -80 20.5 -145.5t56.5 -111.5t84 -71.5t103 -25.5q143 0 277 172q33 43 48 74t15 47q0 20 -12 20q-18 0 -26.5 -24.5t-39.5 -61.5q-104 -125 -215 -125q-80 0 -130 61.5t-50 176.5q0 22 6 88q281 23 423.5 113t142.5 241q0 90 -57.5 147.5t-149.5 57.5 q-78 0 -163 -47t-163 -143q-84 -102 -127 -216t-43 -227zM143 436q27 113 67 201t85 148.5t93 91t95 30.5t75 -34.5t28 -92.5q0 -141 -114 -237.5t-329 -106.5z" />
<glyph unicode="f" horiz-adv-x="450" d="M-346 -360q0 -49 37 -81t96 -32q86 0 144.5 50t103.5 148.5t81 242t77 329.5l116 551h154q25 0 24 41q0 12 -12 12h-151q100 465 194 465q31 0 39 -24.5t18 -57.5q18 -61 66 -61q29 0 47.5 22.5t18.5 57.5q0 53 -32 84.5t-91 31.5q-57 0 -115.5 -32.5t-109 -98 t-90.5 -162t-62 -225.5h-107q-25 0 -24 -41q0 -12 14 -12h105l-207 -940q-39 -174 -74 -258t-76 -84q-23 0 -31 8t-11 22.5t-3 34.5t-4 43q-4 20 -23.5 36t-44.5 16q-31 0 -49 -22.5t-18 -63.5z" />
<glyph unicode="g" horiz-adv-x="759" d="M-170 -203q0 -57 25.5 -107t75 -87t121 -58.5t161.5 -21.5q92 0 165 21.5t123 60.5t77.5 92t27.5 119q0 98 -58.5 158.5t-174.5 109.5l-162 68q-59 25 -89 50t-30 64q0 31 17.5 52.5t33.5 21.5q8 0 23.5 -11.5t37 -24.5t51.5 -24.5t71 -11.5q66 0 126 29t107 78t76 114.5 t29 141.5q0 53 -17.5 99t-50.5 97h135q16 0 28.5 12.5t12.5 30.5q0 27 -13.5 32t-33.5 5h-143q-33 0 -57.5 8.5t-48 17.5t-49.5 17t-62 8q-68 0 -128.5 -29.5t-104.5 -78.5t-69.5 -112.5t-25.5 -131.5q0 -47 10 -83t23.5 -61.5t23.5 -43t10 -29.5q0 -16 -13 -32.5t-30.5 -38 t-31 -50t-13.5 -67.5q0 -104 113 -146q-154 -41 -226.5 -100t-72.5 -158zM-72 -197q0 51 21.5 94.5t56.5 67.5q41 29 89 45.5t71 16.5q27 -1 43 -9l188 -81q109 -45 109 -166q0 -92 -70.5 -150.5t-193.5 -58.5q-145 0 -229.5 68.5t-84.5 172.5zM154 518q0 82 18 153.5 t50 126t76 86t95 31.5q66 0 109 -52t43 -146q0 -78 -18.5 -150.5t-51.5 -128t-76 -89.5t-92 -34q-66 0 -109.5 52.5t-43.5 150.5z" />
<glyph unicode="h" horiz-adv-x="876" d="M-29 25q0 -23 9.5 -28t31.5 -5q47 0 58 18q4 6 25.5 76t74.5 211q102 264 212 405.5t191 141.5q41 0 67 -37t26 -109q0 -35 -6.5 -87t-18.5 -114.5t-32.5 -131t-49.5 -138.5q-39 -96 -70.5 -143t-72.5 -47q-23 0 -36 14.5t-23.5 31.5t-22.5 31.5t-31 14.5 q-23 0 -39 -18.5t-16 -49.5q0 -43 28.5 -68.5t79.5 -25.5q61 0 140 60.5t151 177.5q68 113 104.5 239.5t36.5 237.5q0 123 -47 189.5t-123 66.5q-98 0 -199.5 -115.5t-221.5 -351.5l239 926l3 15t1 7q0 16 -10 17q-18 0 -43 -20.5t-80 -31.5q-27 -6 -49 -7t-37.5 -3t-25 -7 t-9.5 -17q0 -20 33 -21q6 0 11.5 1t11.5 1q23 0 35 -11t12 -26q0 -25 -15 -80l-297 -1155q-6 -25 -6 -34z" />
<glyph unicode="i" horiz-adv-x="505" d="M29 68q0 -102 82 -103q41 0 88 36t94 108q82 125 82 159q0 14 -15 15q-8 0 -19 -26t-44 -81q-59 -104 -111 -104q-29 0 -28 43q0 18 18 80l146 454q20 61 34.5 112.5t14.5 94.5q0 41 -20.5 63.5t-55.5 22.5q-80 0 -184 -131q-37 -47 -53.5 -78t-16.5 -39q0 -18 10 -18 q8 0 25.5 25.5t39 57.5t46 57.5t49.5 25.5q18 0 23.5 -10.5t5.5 -32.5q0 -29 -12.5 -69t-30.5 -95l-84 -246q-39 -111 -61.5 -189.5t-22.5 -131.5zM319 1167q0 -41 16.5 -63.5t45.5 -22.5q37 0 65.5 43t28.5 103q0 33 -16.5 53t-42.5 20q-37 0 -67 -42t-30 -91z" />
<glyph unicode="j" horiz-adv-x="450" d="M-367 -352q0 -47 42 -84t106 -37q45 0 94 27.5t95 85t88 142.5t73 202l205 766q10 35 15 62.5t5 49.5q0 39 -20.5 59.5t-50.5 20.5q-43 0 -87 -32.5t-98 -98.5q-37 -47 -54 -78t-17 -39q0 -18 12 -18q8 0 25.5 25.5t39 55t44 55.5t43.5 26q29 0 28 -23q0 -6 -3 -28.5 t-13 -57.5l-148 -545q-43 -156 -72.5 -268.5t-55 -186t-50 -108.5t-55.5 -35q-23 0 -36 20.5t-26.5 45t-29 45t-39.5 20.5q-23 0 -41.5 -18t-18.5 -51zM309 1167q0 -41 16.5 -63.5t45.5 -22.5q37 0 64.5 43t27.5 103q0 33 -16.5 53t-43.5 20q-37 0 -65.5 -42t-28.5 -91z" />
<glyph unicode="k" horiz-adv-x="886" d="M-18 18q0 -25 38 -24q49 0 59.5 9t18.5 36l37 137q14 49 28.5 97.5t39.5 95.5q49 -4 70.5 -39t41.5 -101q41 -129 96.5 -191.5t141.5 -62.5q70 0 118 49.5t48 118.5q0 53 -20.5 84t-47.5 31q-16 0 -27.5 -13.5t-11.5 -31.5t9.5 -29.5t20.5 -21.5t20.5 -21.5t9.5 -27.5 q0 -39 -17.5 -62.5t-50.5 -23.5q-35 0 -66.5 31.5t-54.5 88.5l-34 91q-18 47 -40 85.5t-75 67.5q115 12 203 45t148 82t91 112.5t31 137.5q0 86 -42 134t-101 48q-205 0 -455 -465l250 912q4 10 4 14v8q0 16 -10 17q-18 0 -45 -20.5t-84 -31.5q-29 -6 -52.5 -7t-40 -3 t-25.5 -7t-9 -17q0 -20 32 -21q6 0 13.5 1t13.5 1q23 0 34 -10t11 -27q0 -14 -2 -33.5t-10 -46.5l-299 -1144q-4 -18 -6 -31.5t-2 -20.5zM229 428q102 221 206 326.5t167 105.5q33 0 58.5 -26.5t25.5 -69.5q0 -57 -31.5 -117.5t-85 -111t-125 -82t-151.5 -31.5q-16 0 -32 2z " />
<glyph unicode="l" horiz-adv-x="460" d="M2 63q0 -90 72 -90q37 0 88 35t96 102.5t68.5 109.5t23.5 61q0 14 -12 14q-8 0 -15.5 -14.5t-25.5 -44.5q-88 -152 -133 -152q-31 0 -31 39q0 10 3 30.5t11 51.5l316 1192q4 10 5 15l1 5q0 18 -10 19q-18 0 -45 -20.5t-84 -31.5q-29 -6 -52.5 -7t-40 -3t-24.5 -7t-8 -17 q0 -20 33 -21q6 0 12 1t12 1q23 0 35 -10t12 -27q0 -29 -14 -80l-250 -899q-43 -160 -43 -252z" />
<glyph unicode="m" horiz-adv-x="1402" d="M18 674q0 -8 4.5 -14.5t8.5 -6.5q10 0 28.5 29t41 62.5t49 62.5t53.5 29q29 0 28 -37q0 -72 -59 -275l-135 -473q-6 -23 -6 -35q0 -16 12 -20t41 -4q53 0 61 20q12 31 37 128.5t86 234.5q51 113 104.5 201t101.5 148t88 92t65 32q51 0 51 -70q0 -23 -33 -178.5 t-117 -429.5l-32 -104q-4 -16 -7.5 -27.5t-3.5 -22.5q0 -23 43 -22h29q29 0 36 7t11 30q10 47 45 145t84 209q51 113 102.5 200t97.5 145t85 88t65 30q51 0 52 -62q0 -14 -3.5 -40.5t-13.5 -57.5l-135 -448q-16 -53 -23.5 -96.5t-7.5 -71.5q0 -100 76 -101q45 0 98.5 40 t106.5 118q47 68 67.5 109t20.5 51q0 18 -12 18q-10 0 -22.5 -23.5t-45.5 -74.5q-41 -63 -71.5 -93t-61.5 -30q-29 0 -29 43q0 14 6 37l138 467q16 59 23 102t7 70q0 66 -28.5 101.5t-77.5 35.5q-90 0 -191.5 -122t-236.5 -363l45 176q16 57 21.5 99t5.5 65q0 143 -105 143 q-84 0 -185.5 -121t-240.5 -362l37 125q55 180 55 262q0 51 -19.5 76.5t-47.5 25.5q-80 0 -187 -141q-41 -53 -60.5 -87t-19.5 -44z" />
<glyph unicode="n" horiz-adv-x="1001" d="M2 672q0 -18 14 -19q10 0 30 29t44.5 62.5t53 62.5t57.5 29t28 -39q0 -37 -16 -104.5t-45 -168.5l-141 -475q-8 -25 -9 -31q0 -6 5.5 -12t11.5 -6h88q18 0 28.5 25.5t24.5 75t37 120t66 162.5q51 111 110.5 200t116.5 151.5t104 96t76 33.5q59 0 59 -65q0 -12 -4 -37 t-16 -60l-84 -245q-51 -147 -74.5 -244.5t-23.5 -144.5q0 -94 73 -95q41 0 96.5 38t108.5 116q47 68 68.5 110t21.5 52q0 18 -12 18q-10 0 -21.5 -23.5t-46.5 -74.5q-41 -61 -72.5 -93t-62.5 -32t-30 45q0 16 10 47l160 473q38 112 38 173q0 56 -32.5 87t-91.5 31 q-102 0 -223 -120t-259 -363l56 200q23 78 28.5 128.5t5.5 64.5q0 96 -69 96q-82 0 -201 -141q-47 -53 -66.5 -90t-19.5 -43z" />
<glyph unicode="o" horiz-adv-x="882" d="M-6 356q0 -88 24.5 -160.5t66.5 -124t99.5 -79t122.5 -27.5q86 0 173 45t156 124t112 183.5t43 221.5q0 92 -25 165.5t-67 126t-100 80t-126 27.5q-84 0 -169 -44t-154.5 -121t-112.5 -184.5t-43 -232.5zM119 295q0 102 30.5 210.5t90.5 209.5q51 86 116.5 130t126.5 44 q86 0 133.5 -65.5t47.5 -192.5t-33 -238.5t-84 -194.5t-115.5 -131.5t-128.5 -48.5q-84 0 -134 72t-50 205z" />
<glyph unicode="p" horiz-adv-x="874" d="M-242 -434q0 -16 35 -17q20 0 57 7.5t95 7.5q82 0 135 -7.5t76 -7.5t22 23q0 14 -18.5 19.5t-42 12.5t-42 20.5t-18.5 43.5q0 14 4 35l72 352q41 -45 83 -66.5t95 -21.5q160 0 312 195q80 104 121.5 223t41.5 236q0 154 -76.5 235.5t-217.5 81.5q-35 0 -73 -5t-79 -15 l37 155q4 10 4 17v8q0 10 -11.5 11t-39.5 1h-27q-20 0 -28.5 -6t-14.5 -31l-45 -196q-72 -29 -106.5 -50.5t-34.5 -48.5q0 -10 16 -10q10 0 37 15.5t74 39.5l-262 -1081q-8 -33 -13.5 -53.5t-13.5 -33.5t-21.5 -22.5t-37.5 -19.5q-43 -16 -69 -20.5t-26 -26.5zM168 160 q0 35 8.5 78t22.5 100l129 522q78 23 127 23q104 0 159.5 -57.5t55.5 -163.5q0 -82 -33 -202t-102 -253q-96 -186 -242 -187q-57 0 -91 37t-34 103z" />
<glyph unicode="q" horiz-adv-x="851" d="M-31 195q0 -115 45 -174.5t123 -59.5q82 0 193.5 116t238.5 351l-170 -688q-8 -31 -13 -50.5t-14.5 -33.5t-22.5 -24.5t-38 -18.5q-20 -8 -38.5 -11t-32 -6.5t-21.5 -9.5t-8 -18q0 -18 25 -19q27 0 69.5 8.5t102.5 8.5q76 0 125 -8.5t71 -8.5q27 0 27 23q0 16 -18.5 20.5 t-42 10.5t-42 18t-18.5 45q0 14 2 36t8 44l178 727q31 121 54.5 208t41 142.5t26.5 84t9 32.5q0 18 -14 18q-10 0 -20.5 -7t-23.5 -15t-29.5 -15.5t-34.5 -7.5q-27 0 -65 14.5t-91 14.5q-76 0 -171 -51t-183 -154q-53 -63 -96.5 -134t-72 -141.5t-44 -139t-15.5 -127.5z M88 176q0 104 46 242.5t138 271.5q72 106 148.5 159.5t142.5 53.5q47 0 71.5 -28.5t24.5 -81.5q0 -57 -45 -183.5t-149 -287.5q-90 -139 -164 -206t-119 -67q-94 0 -94 127z" />
<glyph unicode="r" horiz-adv-x="694" d="M8 672q0 -20 15 -21q8 0 27.5 28t43 61.5t50 62t53.5 28.5q31 0 30 -38q0 -29 -8 -70t-22 -96l-152 -578q-6 -23 -6 -26q0 -25 49 -25q27 0 39 5t21.5 23.5t20.5 53.5t34 94q125 324 218 483.5t128 159.5q12 0 22.5 -13t10.5 -36q0 -29 15 -44t40 -15q31 0 55.5 32.5 t24.5 83.5q0 47 -25.5 75t-60.5 28q-86 0 -179.5 -141.5t-209.5 -428.5l77 297q18 72 24.5 123t6.5 68q0 47 -18.5 70.5t-48.5 23.5q-76 0 -187 -131q-47 -55 -67.5 -92t-20.5 -45z" />
<glyph unicode="s" horiz-adv-x="583" d="M-61 90q0 -20 21.5 -42.5t56 -41t77.5 -30t86 -11.5q55 0 106.5 22.5t89.5 59.5t61.5 86t23.5 105q0 61 -29 115.5t-78 115.5l-108 139q-31 39 -47.5 73t-16.5 71q0 57 36 95t83 38q43 0 77 -23.5t61.5 -52.5t48 -52.5t36.5 -23.5q39 0 39 98q0 23 -18.5 42.5t-49 34 t-68.5 22.5t-77 8q-53 0 -100 -22.5t-83 -60.5t-57.5 -87t-21.5 -100q0 -53 26.5 -106.5t75.5 -112.5l86 -105q35 -43 54.5 -83t19.5 -87q0 -70 -41 -118t-98 -48q-47 0 -88 29t-74 88q-10 18 -16 35.5t-13.5 33t-15.5 24.5t-20 9q-18 0 -31.5 -35.5t-13.5 -101.5z" />
<glyph unicode="t" horiz-adv-x="473" d="M10 84q0 -49 19.5 -76.5t50.5 -27.5q35 0 86 40.5t104 120.5q70 102 70 133q0 20 -16 21q-14 0 -21.5 -23.5t-36.5 -66.5q-70 -106 -98 -107q-10 0 -19.5 12.5t-9.5 32.5q0 31 18.5 103.5t49.5 189.5l110 416h150q25 0 25 37q0 12 -15 12h-149l49 172q10 37 10 45 q0 20 -41 21q-39 0 -56.5 -8.5t-25.5 -36.5l-51 -193h-129q-25 0 -25 -37q0 -4 4.5 -8t10.5 -4h125l-111 -393q-78 -274 -78 -375z" />
<glyph unicode="u" horiz-adv-x="1001" d="M33 672q0 -16 14 -17q10 0 26.5 27t38 58.5t49 58t58.5 26.5q29 0 29 -45q0 -14 -10 -45l-160 -475q-39 -115 -39 -176q0 -51 32.5 -83t92.5 -32q102 0 223 120t258 364l-53 -199q-20 -76 -27.5 -125t-7.5 -70q0 -96 70 -96q82 0 198 139q45 53 65.5 90t20.5 44 q0 8 -4 14t-8 6q-12 0 -31.5 -28.5t-44 -62.5t-52.5 -62.5t-58 -28.5q-29 0 -29 43q0 66 61 268l148 492q4 16 4 20q0 6 -7 12t-16 6h-79q-18 0 -28.5 -25.5t-25 -74.5t-39 -121.5t-67.5 -167.5q-53 -111 -112.5 -199.5t-116 -151t-104.5 -96.5t-75 -34q-59 0 -59 66 q0 25 22 96l84 246q96 281 97 395q0 43 -19.5 66.5t-54.5 23.5q-90 0 -201 -150q-63 -88 -63 -116z" />
<glyph unicode="v" horiz-adv-x="800" d="M27 676q0 -14 8 -14q16 0 34.5 25.5t38 57t41 57t44.5 25.5q25 0 24 -30q0 -31 -18 -86l-133 -418q-16 -49 -22.5 -91t-6.5 -77q0 -78 38 -122t95 -44q98 0 202.5 84t200.5 254q158 281 158 504q0 72 -19.5 107.5t-49.5 35.5q-23 0 -39.5 -21.5t-16.5 -62.5 q0 -25 7.5 -47t16.5 -45t16 -46.5t7 -53.5q0 -78 -40 -195t-130 -250q-66 -98 -132 -145t-105 -47q-92 0 -92 108q0 37 14 85t35 114l102 328q18 59 30.5 105t12.5 87q0 37 -19.5 58.5t-47.5 21.5q-47 0 -89 -37t-96 -108q-33 -45 -51 -73t-18 -44z" />
<glyph unicode="w" horiz-adv-x="1212" d="M27 678q0 -16 10 -16q14 0 32.5 25.5t38 56t41 56t44.5 25.5t22 -30q0 -6 -3 -29t-13 -55l-131 -418q-16 -53 -23.5 -98t-7.5 -78q0 -72 32.5 -109t84.5 -37q184 0 381 389q-16 -86 -25.5 -147t-9.5 -102q0 -152 112 -152q66 0 161 71.5t188 221.5q96 154 140 293t44 248 q0 151 -67 151h-1q-23 0 -40 -21.5t-17 -62.5q0 -25 7 -47t16.5 -45t17.5 -46.5t8 -53.5q0 -70 -35 -175.5t-108 -224.5q-70 -111 -135.5 -164t-106.5 -53q-72 0 -72 94q0 68 21.5 167.5t60.5 234.5l92 323q2 6 2 19q0 27 -43 26q-55 0 -65 -12t-16 -35l-52 -178 q-47 -162 -99 -280.5t-103.5 -197.5t-99.5 -118t-87 -39q-31 0 -50 22.5t-19 63.5q0 33 13 81t36 116l102 328q20 63 31.5 109t11.5 75q0 43 -18.5 65.5t-46.5 22.5q-47 0 -92.5 -38t-100.5 -116q-63 -88 -63 -106z" />
<glyph unicode="x" horiz-adv-x="833" d="M-121 80q0 -113 103 -113q57 0 153 105.5t213 322.5l43 -180q12 -55 24.5 -100t28 -76t39 -48.5t58.5 -17.5q33 0 63.5 22.5t52 58.5t35 79t13.5 84q0 18 -5.5 29.5t-9.5 11.5q-16 0 -16 -27q0 -25 -8 -57q-10 -45 -32 -68.5t-44 -23.5q-41 0 -57.5 44t-36.5 136l-62 268 q78 158 140.5 235t91.5 77q18 0 18 -23q0 -10 -3 -20.5t-3 -24.5q0 -27 16.5 -45t38.5 -18q35 0 57.5 33.5t22.5 95.5q0 43 -23.5 69.5t-58.5 26.5q-123 0 -309 -356l-55 186q-25 86 -53.5 130t-84.5 44q-31 0 -64.5 -20.5t-61 -56.5t-45 -85t-17.5 -106q0 -35 16 -35 q18 0 19 45q0 61 29.5 105t66.5 44q39 0 59.5 -34.5t38.5 -106.5l64 -235q-100 -211 -184 -311.5t-115 -100.5q-14 0 -15 20q0 10 4.5 22.5t4.5 29.5q0 35 -18.5 57.5t-45.5 22.5q-37 0 -61.5 -31t-24.5 -84z" />
<glyph unicode="y" horiz-adv-x="757" d="M-209 -362q0 -41 36 -73t89 -32q84 0 198.5 132t280.5 405q154 250 229.5 434t75.5 311q0 59 -18 93t-51 34q-25 0 -43.5 -22.5t-18.5 -59.5q0 -41 19.5 -87t19.5 -101q0 -94 -67.5 -254t-208.5 -379q2 68 2 129v115q0 328 -35 488.5t-117 160.5q-35 0 -70.5 -31 t-63.5 -73t-45 -85t-17 -65q0 -20 14 -21q18 0 23.5 22.5t21.5 57.5q49 102 80 103q49 0 67.5 -162t18.5 -506q0 -68 -4 -141.5t-10 -153.5q-23 -70 -55.5 -122t-65.5 -88t-61.5 -53t-43.5 -17q-12 0 -24.5 16t-26.5 34.5t-32.5 35t-43.5 16.5q-23 0 -38 -16.5t-15 -44.5z " />
<glyph unicode="z" horiz-adv-x="780" d="M-104 12q0 -14 11 -23t25 -9q33 0 148 116q51 -16 96 -38.5t87 -44t84 -37t89 -15.5q45 0 87 20.5t73 54.5t49.5 78t18.5 91q0 88 -29 88q-16 0 -17 -21q0 -8 5.5 -20t5.5 -29q0 -47 -33 -78.5t-94 -31.5q-35 0 -68 6l-90 18q-27 4 -57.5 10.5t-69.5 6.5 q-29 0 -59.5 -5.5t-65.5 -15.5q293 293 598 641q143 74 144 133q0 37 -39 37q-27 0 -49.5 -22.5t-53.5 -63.5l-35 -45q-10 -2 -20 -3t-21 -1q-43 0 -87 20.5t-89 46t-90 46t-86 20.5q-88 0 -148.5 -70.5t-60.5 -187.5q0 -53 17 -53q8 0 11 6t3 16t1 23.5t5 30.5 q29 88 113 88q33 0 74 -11l129 -30q23 -4 45 -8.5t45 -4.5q41 0 73.5 8.5t63.5 24.5q-162 -139 -310.5 -299t-285.5 -348q-143 -31 -143 -115z" />
<glyph unicode="{" horiz-adv-x="1024" d="M176 608q84 -6 139.5 -23.5t87 -51t45 -86t13.5 -128.5v-217q0 -98 17.5 -163.5t60.5 -106.5t114.5 -58.5t182.5 -17.5h10v49q-78 0 -128 13.5t-78 44.5t-38 81t-10 124v145q0 98 -10.5 170t-42 122t-90 80.5t-154.5 49.5q96 18 154.5 49t90 81t42 121.5t10.5 170.5v145 q0 74 10 124t38 81t78 45t128 14v50h-10q-111 0 -182.5 -17.5t-114.5 -58.5t-60.5 -106.5t-17.5 -164.5v-217q0 -78 -12.5 -129t-45 -83.5t-87 -50t-140.5 -25.5v-56z" />
<glyph unicode="|" horiz-adv-x="1024" d="M459 -483h108v2048h-108v-2048z" />
<glyph unicode="}" horiz-adv-x="1024" d="M178 -195v-49h10q111 0 183.5 17.5t115.5 58.5t60.5 106.5t17.5 163.5v217q0 76 12.5 128.5t44 86t87 51t139.5 23.5v56q-86 8 -140.5 25.5t-86 50t-44 83.5t-12.5 129v217q0 98 -17.5 164t-60.5 107t-115.5 58.5t-183.5 17.5h-10v-50q78 0 127 -14t78 -45t40 -81 t11 -124v-145q0 -98 10.5 -170t41 -122t89 -81t154.5 -49q-96 -18 -154.5 -49t-89 -81t-41 -122t-10.5 -170v-145q0 -74 -10 -124t-39 -81t-79 -44.5t-128 -13.5z" />
<glyph unicode="~" horiz-adv-x="1705" d="M178 471q111 78 203 119t184 41q78 0 147.5 -21.5t141.5 -48.5q66 -23 135.5 -45t153.5 -22q186 0 387 143v113q-109 -78 -202 -119t-185 -41q-76 0 -145.5 22.5t-143.5 49.5q-68 25 -136.5 46t-152.5 21q-176 0 -387 -145v-113z" />
<glyph unicode="&#xa1;" horiz-adv-x="454" d="M-12 45q0 -31 16 -48t41 -17q51 0 73.5 58t45.5 175l137 686q2 10 3 18.5t1 12.5q0 27 -16 26q-12 0 -16.5 -9t-10.5 -27l-260 -809q-6 -23 -10 -38.5t-4 -27.5zM272 1178q0 -76 58 -76q33 0 56.5 31.5t23.5 78.5q0 78 -58 78q-35 0 -57.5 -32.5t-22.5 -79.5z" />
<glyph unicode="&#xa2;" d="M123 543q0 -104 46 -174t128 -93l-64 -276h39l62 274h6q53 0 102.5 29t86 66t59 73.5t22.5 53.5q0 16 -10 16q-16 0 -24.5 -23.5t-43.5 -58.5q-74 -78 -145 -78q-8 0 -15 1t-18 3l148 641q20 -8 32.5 -23.5t24.5 -31.5t26.5 -28.5t37.5 -12.5q47 0 47 43q0 39 -35 64.5 t-96 25.5q-20 0 -31 -2l57 258h-37l-61 -266q-78 -29 -141.5 -80t-108.5 -115.5t-69.5 -138.5t-24.5 -147zM236 563q0 70 17 137.5t47 124t71 98t90 64.5l-142 -618q-39 18 -61 68t-22 126z" />
<glyph unicode="&#xa3;" d="M-115 133q0 -68 45 -112t121 -44q72 0 127 31t117 92q59 -66 112.5 -100.5t118.5 -34.5q49 0 90 22.5t72 62.5t47.5 95.5t16.5 120.5q0 55 -21 56q-14 0 -14 -19q0 -4 1 -11t1 -18q0 -94 -40 -144t-99 -50q-47 0 -97.5 32.5t-117.5 86.5q106 172 106 385h162q8 14 8 28 q0 10 -2 17h-172q-16 115 -26.5 194.5t-10.5 126.5q0 66 14.5 122t36 97t49 63.5t52.5 22.5q20 0 37.5 -15t34 -34.5t34 -35t37.5 -15.5q23 0 37 18.5t14 47.5q0 41 -34.5 67.5t-90.5 26.5q-59 0 -119.5 -38t-108.5 -102.5t-79 -151.5t-31 -185q0 -104 19 -209h-137 q-14 -23 -15 -39v-6h160q25 -84 25 -168q0 -49 -7.5 -94.5t-35.5 -92.5q-63 41 -116.5 67t-113.5 26q-92 0 -149.5 -51.5t-57.5 -137.5zM4 143q0 51 27.5 83t70.5 32q39 0 80 -28t80 -85q-76 -119 -158 -118q-45 0 -72.5 30.5t-27.5 85.5z" />
<glyph unicode="&#xa4;" horiz-adv-x="1241" d="M90 420l66 -66l204 207q117 -90 261 -90q147 0 262 90l204 -207l66 66l-207 207q90 119 90 258q0 141 -90 260l207 205l-66 65l-204 -207q-115 92 -262 92q-143 0 -261 -92l-204 207l-66 -65l207 -205q-90 -119 -90 -260q0 -139 90 -258zM301 887q0 66 25.5 124t68.5 102 t101.5 69.5t126.5 25.5t127 -25.5t102 -68.5t68.5 -101.5t25.5 -125.5q0 -66 -25.5 -125.5t-68.5 -103.5t-102.5 -69.5t-126.5 -25.5q-68 0 -126.5 25.5t-101.5 69.5t-68.5 102.5t-25.5 126.5z" />
<glyph unicode="&#xa5;" d="M-53 596h360l-114 -455q-12 -47 -27.5 -64.5t-48.5 -25.5q-35 -8 -60 -8q-23 0 -22 -25q0 -25 28 -24q23 0 68 7t107 7q63 0 103 -5t60 -5q37 0 37 22q0 14 -7 19.5t-19.5 7.5t-28.5 2q-14 0 -29 4q-43 12 -43 60q0 33 15 92l92 364l16 27h385l8 45h-358l119 158h276 l10 45h-251l147 196q63 84 107.5 132.5t78.5 62.5q27 10 48.5 12t21.5 25q0 25 -27 24q-6 0 -40.5 -4t-100.5 -4q-53 0 -86 4t-49 4q-37 0 -37 -26q0 -16 17.5 -19.5t39 -6.5t40 -10t18.5 -34q0 -29 -38 -86t-106 -151l-247 -342l-131 518q-8 31 -9 57q0 31 19.5 39t42 10 t42 6t19.5 23q0 23 -31 22q-8 0 -44.5 -5t-110.5 -5q-43 0 -70.5 5t-38.5 5q-33 0 -32 -26q0 -16 9 -18.5t23.5 -8.5t28.5 -21.5t27 -56.5l88 -321h-240l-10 -45h260l43 -158h-340z" />
<glyph unicode="&#xa6;" horiz-adv-x="1024" d="M459 -350h108v758h-108v-758zM459 674h108v758h-108v-758z" />
<glyph unicode="&#xa7;" d="M25 -135q0 -90 60 -151.5t155 -61.5q102 0 169.5 69.5t67.5 182.5q0 137 -112 295q39 -12 69 -13q37 0 73 16.5t63.5 47.5t44 71.5t16.5 90.5q0 88 -33 161.5t-84 151.5l-82 127q-53 80 -86 141.5t-33 124.5q0 78 45 124t117 46q43 0 71.5 -21.5t28.5 -43.5 q0 -12 -8 -24.5t-17 -26t-16.5 -31t-7.5 -39.5q0 -33 20.5 -53.5t49.5 -20.5q33 0 53.5 26.5t20.5 80.5q0 39 -14.5 73.5t-40 61t-60.5 42t-76 15.5q-115 0 -180.5 -70.5t-65.5 -187.5q0 -121 113 -276q-53 12 -67 12q-86 0 -141.5 -68.5t-55.5 -179.5q0 -74 30.5 -140.5 t80.5 -144.5l81 -127q53 -86 87 -150.5t34 -125.5q0 -76 -47 -127t-115 -51q-47 0 -82.5 20.5t-35.5 48.5q0 14 9 28.5t19.5 30t19.5 32t9 36.5q0 41 -20.5 62.5t-49.5 21.5q-33 0 -55 -29.5t-22 -76.5zM164 608q0 68 37 112t90 44q61 0 99 -46t85 -132q31 -55 51.5 -103.5 t20.5 -99.5q0 -66 -37 -110t-90 -44t-95 43t-92 134q-35 59 -52 108t-17 94z" />
<glyph unicode="&#xa8;" horiz-adv-x="1024" d="M377 1202q0 -37 25.5 -63.5t60.5 -26.5q37 0 62.5 25.5t25.5 64.5q0 35 -26.5 60.5t-61.5 25.5t-60.5 -26.5t-25.5 -59.5zM719 1200q0 -35 25.5 -61.5t60.5 -26.5q37 0 62.5 25.5t25.5 64.5q0 35 -26.5 60.5t-61.5 25.5t-60.5 -26.5t-25.5 -61.5z" />
<glyph unicode="&#xa9;" horiz-adv-x="1683" d="M145 678q0 -141 52.5 -267t152.5 -225q102 -100 226 -152t266 -52q141 0 267 53t224 151q100 102 152.5 228.5t52.5 263.5q0 139 -53 269t-152 227q-98 98 -225 150t-264 52q-141 0 -269.5 -53t-226.5 -152q-100 -100 -151.5 -227t-51.5 -266zM227 678q0 125 46 235.5 t135 202.5q86 88 199.5 136t236.5 48q121 0 233.5 -47t198.5 -133t134 -201.5t48 -240.5q0 -123 -47 -234.5t-135 -203.5q-86 -90 -197.5 -136.5t-236.5 -46.5q-250 0 -432 183q-88 88 -135.5 199.5t-47.5 238.5zM428 664q0 -86 32 -163t86 -133.5t125.5 -89t153.5 -32.5 q227 0 342 207l-32 22q-111 -174 -285 -174q-272 0 -272 383q0 375 253 375q217 0 283 -275h37v310h-31q-10 -61 -65 -62q-14 0 -34 10.5t-47.5 23.5t-64.5 23.5t-84 10.5q-82 0 -154.5 -33t-125.5 -91t-85 -138t-32 -174z" />
<glyph unicode="&#xaa;" horiz-adv-x="720" d="M-18 766q0 -76 33.5 -117t90.5 -41q76 0 164 93.5t203 279.5l-45 -160q-14 -41 -23.5 -80t-9.5 -73q0 -61 49 -62q66 0 150 115q49 68 49 94q0 10 -8 10q-12 0 -18.5 -14t-26.5 -41q-23 -29 -40.5 -44t-31.5 -15q-16 0 -16 30q0 4 2 23.5t12 48.5l129 438q4 10 6 18.5 t2 12.5q0 16 -8 20.5t-29 4.5q-35 0 -48 -21.5t-23 -21.5t-37 15t-68 15q-59 0 -140 -44t-159 -134q-160 -188 -159 -350zM80 768q0 49 26.5 119.5t79.5 159.5q70 111 138.5 165t115.5 54q86 0 86 -88q0 -82 -159 -304q-70 -94 -122 -142t-93 -48q-31 0 -51.5 21.5 t-20.5 62.5z" />
<glyph unicode="&#xab;" horiz-adv-x="602" d="M6 461q51 -74 84 -131.5t53.5 -95t32.5 -58t25 -20.5q12 0 12 20v8q0 6 -2 13l-76 256l172 247q4 4 7 15.5t3 23.5q0 10 -14 11q-18 0 -82.5 -76t-214.5 -213zM223 461q51 -74 84 -131.5t54.5 -95t34 -58t22.5 -20.5q14 0 14 22q0 2 -4 19l-74 256l172 247q2 4 5.5 15.5 t3.5 23.5q0 10 -13 11q-18 0 -83.5 -76t-215.5 -213z" />
<glyph unicode="&#xac;" horiz-adv-x="1705" d="M254 758h1102v-402h96v502h-1198v-100z" />
<glyph unicode="&#xad;" horiz-adv-x="448" d="M-14 399q0 -12 14 -12h301q14 0 27 27l32 75q2 4 2 13q0 12 -12 12h-303q-14 0 -27 -27l-32 -75q-2 -4 -2 -13z" />
<glyph unicode="&#xae;" horiz-adv-x="1683" d="M145 678q0 -141 52.5 -267t152.5 -225q100 -100 225 -152t263 -52q143 0 269 52t224 150q102 102 154.5 229.5t52.5 264.5q0 141 -53 269t-150 224q-98 98 -226 151.5t-265 53.5q-141 0 -269.5 -53t-226.5 -152q-100 -100 -151.5 -227t-51.5 -266zM227 678 q0 123 46 235.5t135 202.5q86 88 199.5 136t236.5 48q121 0 233.5 -47t198.5 -133t134 -202.5t48 -239.5t-47 -234.5t-135 -203.5q-86 -90 -197.5 -136.5t-236.5 -46.5q-250 0 -432 183q-88 88 -135.5 199.5t-47.5 238.5zM469 291h385v41q-72 2 -101.5 23.5t-29.5 78.5v246 q10 0 18.5 1t18.5 1q88 0 140 -30.5t75 -98.5q6 -23 7 -48.5t1 -53.5q0 -27 3 -54.5t15 -54.5q14 -33 47 -51.5t80 -18.5q156 0 156 177v12h-41q0 -131 -72 -131q-23 0 -34 12t-16 31.5t-9 47.5t-12 58q-23 86 -70 134.5t-141 78.5q147 29 218 75t71 124q0 90 -82 144.5 t-234 54.5h-393v-41q74 -2 102.5 -22.5t28.5 -78.5v-514q0 -57 -28.5 -78.5t-102.5 -23.5v-41zM723 717v264q0 74 108 74q100 0 153.5 -45t53.5 -117q0 -84 -62.5 -130t-184.5 -46h-68z" />
<glyph unicode="&#xaf;" horiz-adv-x="1024" d="M397 1147h410l18 106h-409z" />
<glyph unicode="&#xb0;" horiz-adv-x="673" d="M59 1174q0 -59 21.5 -109.5t58.5 -88.5t87 -59.5t110 -21.5q57 0 108.5 22.5t89 60.5t59 88t21.5 108q0 57 -21.5 108t-59 89t-88 59.5t-107.5 21.5t-108.5 -21.5t-89.5 -59.5t-59.5 -89t-21.5 -108zM129 1174q0 43 16.5 80.5t45 66.5t66.5 45t81 16t81 -16t65.5 -45 t44 -66.5t16.5 -80.5t-16.5 -81t-44 -66t-65.5 -44t-81 -16t-81 16t-66.5 44t-45 65.5t-16.5 81.5z" />
<glyph unicode="&#xb1;" horiz-adv-x="1705" d="M254 51h1198v99h-1198v-99zM254 723h551v-348h98v348h549v98h-549v348h-98v-348h-551v-98z" />
<glyph unicode="&#xb2;" horiz-adv-x="540" d="M-72 528q0 -16 37 -16h393q16 0 21.5 14.5t11.5 38.5q12 47 24.5 75t12.5 40q0 14 -8 14q-14 0 -18.5 -19.5t-26.5 -41.5q-31 -33 -99 -33h-241q90 98 185 166t179 129q123 92 123 219q0 90 -52 143.5t-130 53.5q-100 0 -176 -82q-35 -37 -52.5 -66.5t-17.5 -40.5 q0 -10 10 -10t21.5 21.5t48.5 68.5q27 35 62.5 52.5t68.5 17.5q53 0 88 -40t35 -104q0 -55 -22.5 -103t-60.5 -94t-88 -92t-107 -98l-205 -182q-16 -16 -17 -31z" />
<glyph unicode="&#xb3;" horiz-adv-x="540" d="M-88 463q0 -37 41 -60.5t108 -23.5q139 0 267 113q66 57 100.5 121.5t34.5 129.5q0 88 -59.5 137.5t-165.5 49.5h-23q141 59 211 118.5t70 125.5q0 63 -41 99t-107 36q-43 0 -83 -15.5t-70.5 -37t-49 -44t-18.5 -34.5q0 -6 8 -7q12 0 21.5 14.5t36.5 37.5q35 27 61.5 40 t54.5 13q41 0 66.5 -26.5t25.5 -78.5q0 -84 -56 -134t-157 -95q-53 -25 -87.5 -38t-34.5 -32q0 -8 8 -8q10 0 49 20.5t92 20.5q72 0 115 -46t43 -132q0 -68 -25.5 -126t-65.5 -101t-89.5 -67.5t-94.5 -24.5q-41 0 -57 17t-33 40q-29 37 -57 37q-16 0 -27.5 -11.5 t-11.5 -27.5z" />
<glyph unicode="&#xb4;" horiz-adv-x="1024" d="M487 1049h45l218 223q23 25 36 42t13 40t-11.5 38t-27.5 15t-30.5 -15.5t-33.5 -41.5z" />
<glyph unicode="&#xb6;" horiz-adv-x="1024" d="M84 1130q0 -150 99.5 -244.5t277.5 -103.5v-782h82v1409h188v-1409h82v1409h127v70h-463q-90 0 -162.5 -26t-124 -72t-79 -110.5t-27.5 -140.5z" />
<glyph unicode="&#xb7;" horiz-adv-x="409" d="M121 645q0 -41 23.5 -68.5t52.5 -27.5q31 0 53 27.5t22 68.5q0 43 -22 68.5t-53 25.5q-29 0 -52.5 -26.5t-23.5 -67.5z" />
<glyph unicode="&#xb8;" horiz-adv-x="1024" d="M164 -373q66 -33 119 -50t100 -17q76 0 122 45t46 116q0 74 -37 118t-96 44h-23q-12 0 -28 -4l28 121h-43l-51 -190q23 4 40 6t30 2q45 0 69.5 -24.5t24.5 -67.5q0 -100 -103 -101q-25 0 -70.5 15.5t-105.5 52.5z" />
<glyph unicode="&#xb9;" horiz-adv-x="540" d="M25 526q0 -18 22 -18q6 0 47 4t117 4q41 0 68.5 -4t37.5 -4q27 0 27 16t-19.5 15.5t-41.5 3.5q-35 6 -35 43q0 27 10 63l164 555q8 29 16 49.5t8 34.5q0 12 -16 12q-6 0 -33.5 -18t-93.5 -47q-33 -14 -55.5 -21.5t-36.5 -12.5t-20.5 -10t-6.5 -13q0 -14 15 -15 q20 0 56 18.5t62 18.5q8 0 9 -16q0 -2 -4 -23l-146 -493q-8 -31 -15 -54.5t-18.5 -40t-29 -24.5t-45.5 -8h-15q-29 0 -28 -15z" />
<glyph unicode="&#xba;" horiz-adv-x="661" d="M-4 885q0 -125 67.5 -200t167.5 -75q63 0 129 32t117 87t84 128t33 155q0 63 -18.5 115.5t-51 89t-76 56t-94.5 19.5q-61 0 -125.5 -30.5t-116 -85t-84 -129t-32.5 -162.5zM90 842q0 72 22.5 147.5t67.5 145.5q39 59 87 90.5t95 31.5q63 0 99.5 -46t36.5 -134 q0 -90 -24.5 -168t-63.5 -136t-87.5 -92t-95.5 -34q-61 0 -99 51.5t-38 143.5z" />
<glyph unicode="&#xbb;" horiz-adv-x="602" d="M-35 164q0 -8 12 -8q18 0 83.5 75.5t215.5 212.5q-51 74 -83.5 131.5t-53 95.5t-33 58.5t-22.5 20.5q-14 0 -14 -23q0 -12 2 -18l75 -256l-172 -248q-2 -2 -6 -15.5t-4 -25.5zM182 164q0 -8 15 -8q18 0 83.5 75.5t215.5 212.5q-51 74 -84 131.5t-53.5 95.5t-33 58.5 t-24.5 20.5q-14 0 -14 -23q0 -6 4 -18l74 -256l-172 -248q-4 -4 -7.5 -16.5t-3.5 -24.5z" />
<glyph unicode="&#xbc;" horiz-adv-x="1304" d="M23 575q0 -16 22 -16q6 0 45 4t111 4q41 0 66.5 -4t35.5 -4q25 0 25 16t-18.5 14.5t-39.5 2.5q-35 6 -34 41q0 23 10 59l155 516q8 29 15.5 48.5t7.5 29.5q0 12 -14 12q-6 0 -32 -16t-89 -45q-61 -27 -87 -31t-26 -20q0 -14 12 -15q20 0 54 17.5t61 17.5q6 0 6 -16 q0 -10 -4 -21l-137 -460q-16 -55 -33.5 -87t-68.5 -32h-15q-29 0 -28 -15zM244 -39h59l760 1366h-62zM770 250q0 -25 29 -25h258q23 0 22 -8q0 -2 -4 -14l-31 -115q-6 -29 -15 -39t-34 -16q-29 -6 -49 -5t-20 -16q0 -16 24 -16q10 0 40 4t77 4q41 0 65.5 -4t36.5 -4 q25 0 25 16q0 12 -13.5 15.5t-28.5 5.5t-27.5 7t-12.5 21l4 21l35 123q6 20 25 20h59q10 0 15 2t7 13l3 8q0 2 1 4t1 4q0 8 -11 8h-59q-18 0 -18 17v10l67 248q2 4 2 12q0 4 -6 4h-4l-47 -14q-12 -4 -15.5 -8.5t-7.5 -12.5l-63 -235q-4 -10 -9.5 -15.5t-21.5 -5.5h-258 q121 131 216 225.5t160.5 155t100.5 90t35 31.5q0 4 -7 6t-18 2q-12 0 -18 -3t-16 -11l-451 -447q-43 -41 -43 -63z" />
<glyph unicode="&#xbd;" horiz-adv-x="1304" d="M23 575q0 -16 22 -16q6 0 45 4t111 4q41 0 66.5 -4t35.5 -4q25 0 25 16t-18.5 14.5t-39.5 2.5q-35 6 -34 41q0 23 10 59l155 516q8 29 15.5 48.5t7.5 29.5q0 12 -14 12q-6 0 -32 -16t-89 -45q-61 -27 -87 -31t-26 -20q0 -14 12 -15q20 0 54 17.5t61 17.5q6 0 6 -16 q0 -10 -4 -21l-137 -460q-16 -55 -33.5 -87t-68.5 -32h-15q-29 0 -28 -15zM244 -39h59l760 1366h-62zM721 14q0 -14 35 -14h374q14 0 19.5 13.5t13.5 37.5q10 41 22.5 67.5t12.5 39.5q0 12 -8 12q-14 0 -18.5 -17.5t-24.5 -39.5q-31 -31 -94 -31h-232q86 92 177.5 154.5 t170.5 121.5q119 88 119 203q0 84 -50 134t-126 50q-94 0 -168 -75q-35 -35 -50 -62.5t-15 -38.5q0 -10 10 -10t20.5 20.5t44.5 63.5q27 33 61 50.5t64 17.5q51 0 85 -38t34 -98q0 -53 -21.5 -98t-58.5 -88t-85 -85t-101 -89l-197 -172q-14 -12 -14 -29z" />
<glyph unicode="&#xbe;" horiz-adv-x="1304" d="M-84 518q0 -35 39 -57.5t104 -22.5q131 0 254 105q63 53 95 114.5t32 120.5q0 82 -55 128t-160 46h-20q268 115 268 230q0 59 -39 92t-100 33q-41 0 -79 -14.5t-67.5 -35t-48 -41t-18.5 -32.5q0 -4 8 -4q12 0 21.5 13t33.5 34q31 23 57.5 36t53.5 13q41 0 64.5 -25.5 t23.5 -72.5q0 -78 -53.5 -125t-149.5 -88q-51 -23 -85 -35t-34 -29q0 -8 11 -8q10 0 46 18.5t87 18.5q72 0 110.5 -44t38.5 -122q0 -61 -24.5 -116.5t-62.5 -95.5t-84 -63.5t-89 -23.5q-39 0 -54 15.5t-32 37.5q-27 37 -55 37q-16 0 -26.5 -10t-10.5 -27zM244 -39h59 l760 1366h-62zM770 250q0 -25 29 -25h258q23 0 22 -8q0 -2 -4 -14l-31 -115q-6 -29 -15 -39t-34 -16q-29 -6 -49 -5t-20 -16q0 -16 24 -16q10 0 40 4t77 4q41 0 65.5 -4t36.5 -4q25 0 25 16q0 12 -13.5 15.5t-28.5 5.5t-27.5 7t-12.5 21l4 21l35 123q6 20 25 20h59 q10 0 15 2t7 13l3 8q0 2 1 4t1 4q0 8 -11 8h-59q-18 0 -18 17v10l67 248q2 4 2 12q0 4 -6 4h-4l-47 -14q-12 -4 -15.5 -8.5t-7.5 -12.5l-63 -235q-4 -10 -9.5 -15.5t-21.5 -5.5h-258q121 131 216 225.5t160.5 155t100.5 90t35 31.5q0 4 -7 6t-18 2q-12 0 -18 -3t-16 -11 l-451 -447q-43 -41 -43 -63z" />
<glyph unicode="&#xbf;" horiz-adv-x="538" d="M-33 258q0 -57 18.5 -108.5t50.5 -89t73 -60.5t86 -23q90 0 135 49.5t45 137.5q0 16 -9.5 26.5t-25.5 10.5q-18 0 -37.5 -25.5t-44.5 -56.5t-53.5 -56.5t-65.5 -25.5q-41 0 -72.5 43t-31.5 113q0 78 56 150.5t169 152.5q29 20 52.5 34.5t42 33t30.5 43t21 67.5l40 219 q4 14 5 20v9q0 10 -4.5 17t-10.5 7q-16 0 -21 -24.5t-14.5 -61.5t-28 -81t-63.5 -81q-43 -37 -104.5 -76.5t-120.5 -103t-88 -126t-29 -134.5zM420 1176q0 -76 57 -76q35 0 57.5 31.5t22.5 78.5q0 78 -57 78q-33 0 -56.5 -32.5t-23.5 -79.5z" />
<glyph unicode="&#xc0;" horiz-adv-x="935" d="M-143 18q0 -23 18 -22q10 0 53 6t117 6q72 0 112 -4t54 -4q29 0 29 29q0 27 -19.5 28.5t-48.5 8.5q-68 14 -68 88q0 37 23 92l106 246h367l49 -322q2 -12 3 -23.5t1 -21.5q0 -37 -19.5 -48t-42 -16.5t-42 -11.5t-19.5 -31t37 -24q41 0 81 6t83 6q41 0 70.5 -5t48.5 -5 q35 0 35 24q0 14 -11.5 19.5t-27 13.5t-29.5 24.5t-20 55.5l-187 1141q-4 20 -6 30.5t-16 10.5q-16 0 -21.5 -12.5t-9.5 -22.5l-485 -1010q-35 -74 -66 -120t-65 -64q-39 -20 -61.5 -30.5t-22.5 -37.5zM260 553l254 530l78 -530h-332zM432 1739q0 -23 12.5 -40.5t34.5 -43.5 l180 -223h46l-160 282q-41 74 -70 74q-18 0 -30.5 -13.5t-12.5 -35.5z" />
<glyph unicode="&#xc1;" horiz-adv-x="935" d="M-143 18q0 -23 18 -22q10 0 53 6t117 6q72 0 112 -4t54 -4q29 0 29 29q0 27 -19.5 28.5t-48.5 8.5q-68 14 -68 88q0 37 23 92l106 246h367l49 -322q2 -12 3 -23.5t1 -21.5q0 -37 -19.5 -48t-42 -16.5t-42 -11.5t-19.5 -31t37 -24q41 0 81 6t83 6q41 0 70.5 -5t48.5 -5 q35 0 35 24q0 14 -11.5 19.5t-27 13.5t-29.5 24.5t-20 55.5l-187 1141q-4 20 -6 30.5t-16 10.5q-16 0 -21.5 -12.5t-9.5 -22.5l-485 -1010q-35 -74 -66 -120t-65 -64q-39 -20 -61.5 -30.5t-22.5 -37.5zM260 553l254 530l78 -530h-332zM487 1432h45l218 223q23 25 36 42 t13 40t-11.5 38t-27.5 15t-30.5 -15.5t-33.5 -41.5z" />
<glyph unicode="&#xc2;" horiz-adv-x="935" d="M-143 18q0 -23 18 -22q10 0 53 6t117 6q72 0 112 -4t54 -4q29 0 29 29q0 27 -19.5 28.5t-48.5 8.5q-68 14 -68 88q0 37 23 92l106 246h367l49 -322q2 -12 3 -23.5t1 -21.5q0 -37 -19.5 -48t-42 -16.5t-42 -11.5t-19.5 -31t37 -24q41 0 81 6t83 6q41 0 70.5 -5t48.5 -5 q35 0 35 24q0 14 -11.5 19.5t-27 13.5t-29.5 24.5t-20 55.5l-187 1141q-4 20 -6 30.5t-16 10.5q-16 0 -21.5 -12.5t-9.5 -22.5l-485 -1010q-35 -74 -66 -120t-65 -64q-39 -20 -61.5 -30.5t-22.5 -37.5zM260 553l254 530l78 -530h-332zM369 1432h43l217 243l139 -243h35 l-125 350h-84z" />
<glyph unicode="&#xc3;" horiz-adv-x="935" d="M-143 18q0 -23 18 -22q10 0 53 6t117 6q72 0 112 -4t54 -4q29 0 29 29q0 27 -19.5 28.5t-48.5 8.5q-68 14 -68 88q0 37 23 92l106 246h367l49 -322q2 -12 3 -23.5t1 -21.5q0 -37 -19.5 -48t-42 -16.5t-42 -11.5t-19.5 -31t37 -24q41 0 81 6t83 6q41 0 70.5 -5t48.5 -5 q35 0 35 24q0 14 -11.5 19.5t-27 13.5t-29.5 24.5t-20 55.5l-187 1141q-4 20 -6 30.5t-16 10.5q-16 0 -21.5 -12.5t-9.5 -22.5l-485 -1010q-35 -74 -66 -120t-65 -64q-39 -20 -61.5 -30.5t-22.5 -37.5zM260 553l254 530l78 -530h-332zM383 1495h33q18 80 80 80q12 0 26.5 -4 t30.5 -10l106 -33q25 -8 50 -8q98 0 135 180h-33q-18 -86 -82 -86q-18 0 -41 8l-110 35q-41 12 -62 12q-106 0 -133 -174z" />
<glyph unicode="&#xc4;" horiz-adv-x="935" d="M-143 18q0 -23 18 -22q10 0 53 6t117 6q72 0 112 -4t54 -4q29 0 29 29q0 27 -19.5 28.5t-48.5 8.5q-68 14 -68 88q0 37 23 92l106 246h367l49 -322q2 -12 3 -23.5t1 -21.5q0 -37 -19.5 -48t-42 -16.5t-42 -11.5t-19.5 -31t37 -24q41 0 81 6t83 6q41 0 70.5 -5t48.5 -5 q35 0 35 24q0 14 -11.5 19.5t-27 13.5t-29.5 24.5t-20 55.5l-187 1141q-4 20 -6 30.5t-16 10.5q-16 0 -21.5 -12.5t-9.5 -22.5l-485 -1010q-35 -74 -66 -120t-65 -64q-39 -20 -61.5 -30.5t-22.5 -37.5zM260 553l254 530l78 -530h-332zM377 1585q0 -37 25.5 -63.5t60.5 -26.5 q37 0 62.5 25.5t25.5 64.5q0 35 -26.5 60.5t-61.5 25.5t-60.5 -26.5t-25.5 -59.5zM719 1583q0 -35 25.5 -61.5t60.5 -26.5q37 0 62.5 25.5t25.5 64.5q0 35 -26.5 60.5t-61.5 25.5t-60.5 -26.5t-25.5 -61.5z" />
<glyph unicode="&#xc5;" horiz-adv-x="935" d="M-143 18q0 -23 18 -22q10 0 53 6t117 6q72 0 112 -4t54 -4q29 0 29 29q0 27 -19.5 28.5t-48.5 8.5q-68 14 -68 88q0 37 23 92l106 246h367l49 -322q2 -12 3 -23.5t1 -21.5q0 -37 -19.5 -48t-42 -16.5t-42 -11.5t-19.5 -31t37 -24q41 0 81 6t83 6q41 0 70.5 -5t48.5 -5 q35 0 35 24q0 14 -11.5 19.5t-27 13.5t-29.5 24.5t-20 55.5l-187 1141q-4 20 -6 30.5t-16 10.5q-16 0 -21.5 -12.5t-9.5 -22.5l-485 -1010q-35 -74 -66 -120t-65 -64q-39 -20 -61.5 -30.5t-22.5 -37.5zM260 553l254 530l78 -530h-332zM385 1626q0 -49 18.5 -92t50 -73.5 t73.5 -49t91 -18.5t92.5 18.5t74 50t49 73.5t18.5 91t-18.5 91t-49 74t-74 50.5t-92.5 18.5t-91 -18.5t-73.5 -49.5t-50 -74t-18.5 -92zM459 1626q0 66 45.5 112t111.5 46t112 -46t46 -112t-46 -112t-112 -46t-111.5 46.5t-45.5 111.5z" />
<glyph unicode="&#xc6;" horiz-adv-x="1392" d="M-193 29q0 -27 35 -27q16 0 39 3t56 3q92 0 144 -7t64 -7q35 0 35 33q0 12 -20.5 18t-44 15.5t-44 25.5t-20.5 47q0 29 18.5 63.5t53.5 82.5l268 374h266l-112 -452q-16 -61 -28.5 -97t-45.5 -47q-16 -6 -34.5 -7t-34 -2t-24.5 -7t-9 -23q0 -27 34 -26q12 0 122 7t339 7 q164 0 232.5 -8t77.5 -8q16 0 25 22.5t20 61.5l43 157q4 12 4 21v12q0 12 -6.5 19.5t-12.5 7.5q-14 0 -21 -11.5t-16.5 -32t-26 -49t-46.5 -61.5q-82 -88 -219 -88h-152q-47 0 -68.5 18.5t-21.5 63.5q0 23 7 56.5t17 80.5l99 389h172q72 0 95.5 -23.5t23.5 -78.5 q0 -41 -1.5 -64.5t-1.5 -29.5q0 -33 27 -33q25 0 31 44t26 132q27 117 48.5 177.5t21.5 74.5q0 27 -16 27q-12 0 -20.5 -11.5t-16.5 -29t-20.5 -40t-30.5 -42.5q-31 -35 -66 -43t-90 -8h-168l129 518q41 4 85 6t91 2q98 0 145.5 -37t47.5 -123q0 -6 -1 -15t-1 -22 q0 -53 24 -53q14 0 20.5 10.5t12.5 32.5l51 191q4 18 7 28l3 10q0 20 -9 25.5t-32 5.5q-10 0 -69.5 -2t-175.5 -2h-146q-147 0 -222 4t-85 4q-33 0 -33 -26q0 -16 11.5 -19.5t23.5 -4.5t23.5 -4t11.5 -17q0 -8 -8 -19l-672 -930q-47 -66 -88 -114.5t-86 -77.5 q-27 -16 -45.5 -25.5t-18.5 -25.5zM430 709l381 520l-137 -520h-244z" />
<glyph unicode="&#xc7;" horiz-adv-x="999" d="M43 471q0 -117 30.5 -210t88 -158.5t138.5 -100.5t183 -35q61 0 116.5 10.5t99.5 28t73 37.5t39 41q6 14 9 47t14 82q12 61 20 95t8 42q0 25 -16 25q-23 0 -33 -38t-39 -99q-47 -102 -127 -158.5t-166 -56.5q-61 0 -116.5 29.5t-96.5 86t-64.5 136t-23.5 182.5 q0 182 78 346t225 293q98 84 206 125t190 41q39 0 53 -19.5t14 -83.5q0 -55 -1 -87t-1 -40q0 -23 2 -34t17 -11q18 0 24 19.5t14 60.5q18 90 32 141.5t14 67.5q0 31 -24 43t-77 12q-137 0 -297 -59.5t-307 -179.5q-147 -123 -223 -279t-76 -342zM219 -373q66 -33 119 -50 t100 -17q76 0 122 45t46 116q0 74 -37 118t-96 44h-23q-12 0 -28 -4l28 121h-43l-51 -190q23 4 40 6t30 2q45 0 69.5 -24.5t24.5 -67.5q0 -100 -103 -101q-25 0 -70.5 15.5t-105.5 52.5z" />
<glyph unicode="&#xc8;" horiz-adv-x="921" d="M-102 18q0 -27 34 -26q12 0 122 7t339 7q164 0 232.5 -8t76.5 -8q18 0 25.5 22.5t17.5 61.5l43 157q6 25 7 33q0 12 -7.5 19.5t-13.5 7.5q-14 0 -21.5 -12.5t-16.5 -33t-24.5 -48t-45.5 -60.5q-82 -88 -220 -88h-151q-47 0 -68.5 18.5t-21.5 63.5q0 23 7 56.5t17 80.5 l99 389h170q45 0 69.5 -8t35.5 -24.5t13 -42t2 -62.5v-10q0 -10 -1 -22.5t-1 -26.5q0 -33 25 -33t31 43t26 129q29 123 50.5 184.5t21.5 71.5q0 27 -16 27q-12 0 -20.5 -11.5t-16.5 -30t-20.5 -40t-30.5 -41.5q-29 -33 -65 -42t-91 -9h-164l115 518q47 4 93 6t93 2 q98 0 145.5 -37t47.5 -123q0 -4 -1 -18.5t-1 -36.5q0 -16 7 -25.5t17 -9.5q14 0 20.5 10.5t12.5 32.5l51 191q8 33 8 38q0 23 -8 27t-33 4q-10 0 -74.5 -2t-187.5 -2q-209 0 -306 4t-107 4q-33 0 -33 -26q0 -18 14 -21.5t32.5 -6.5t33 -13.5t14.5 -42.5q0 -18 -3 -45t-9 -52 l-213 -884q-16 -63 -29.5 -98t-44.5 -46q-16 -6 -34.5 -7t-34 -3t-24.5 -8t-9 -21zM483 1739q0 -23 12.5 -40.5t34.5 -43.5l180 -223h46l-160 282q-41 74 -70 74q-18 0 -30.5 -13.5t-12.5 -35.5z" />
<glyph unicode="&#xc9;" horiz-adv-x="921" d="M-102 18q0 -27 34 -26q12 0 122 7t339 7q164 0 232.5 -8t76.5 -8q18 0 25.5 22.5t17.5 61.5l43 157q6 25 7 33q0 12 -7.5 19.5t-13.5 7.5q-14 0 -21.5 -12.5t-16.5 -33t-24.5 -48t-45.5 -60.5q-82 -88 -220 -88h-151q-47 0 -68.5 18.5t-21.5 63.5q0 23 7 56.5t17 80.5 l99 389h170q45 0 69.5 -8t35.5 -24.5t13 -42t2 -62.5v-10q0 -10 -1 -22.5t-1 -26.5q0 -33 25 -33t31 43t26 129q29 123 50.5 184.5t21.5 71.5q0 27 -16 27q-12 0 -20.5 -11.5t-16.5 -30t-20.5 -40t-30.5 -41.5q-29 -33 -65 -42t-91 -9h-164l115 518q47 4 93 6t93 2 q98 0 145.5 -37t47.5 -123q0 -4 -1 -18.5t-1 -36.5q0 -16 7 -25.5t17 -9.5q14 0 20.5 10.5t12.5 32.5l51 191q8 33 8 38q0 23 -8 27t-33 4q-10 0 -74.5 -2t-187.5 -2q-209 0 -306 4t-107 4q-33 0 -33 -26q0 -18 14 -21.5t32.5 -6.5t33 -13.5t14.5 -42.5q0 -18 -3 -45t-9 -52 l-213 -884q-16 -63 -29.5 -98t-44.5 -46q-16 -6 -34.5 -7t-34 -3t-24.5 -8t-9 -21zM538 1432h45l218 223q23 25 36 42t13 40t-11.5 38t-27.5 15t-30.5 -15.5t-33.5 -41.5z" />
<glyph unicode="&#xca;" horiz-adv-x="921" d="M-102 18q0 -27 34 -26q12 0 122 7t339 7q164 0 232.5 -8t76.5 -8q18 0 25.5 22.5t17.5 61.5l43 157q6 25 7 33q0 12 -7.5 19.5t-13.5 7.5q-14 0 -21.5 -12.5t-16.5 -33t-24.5 -48t-45.5 -60.5q-82 -88 -220 -88h-151q-47 0 -68.5 18.5t-21.5 63.5q0 23 7 56.5t17 80.5 l99 389h170q45 0 69.5 -8t35.5 -24.5t13 -42t2 -62.5v-10q0 -10 -1 -22.5t-1 -26.5q0 -33 25 -33t31 43t26 129q29 123 50.5 184.5t21.5 71.5q0 27 -16 27q-12 0 -20.5 -11.5t-16.5 -30t-20.5 -40t-30.5 -41.5q-29 -33 -65 -42t-91 -9h-164l115 518q47 4 93 6t93 2 q98 0 145.5 -37t47.5 -123q0 -4 -1 -18.5t-1 -36.5q0 -16 7 -25.5t17 -9.5q14 0 20.5 10.5t12.5 32.5l51 191q8 33 8 38q0 23 -8 27t-33 4q-10 0 -74.5 -2t-187.5 -2q-209 0 -306 4t-107 4q-33 0 -33 -26q0 -18 14 -21.5t32.5 -6.5t33 -13.5t14.5 -42.5q0 -18 -3 -45t-9 -52 l-213 -884q-16 -63 -29.5 -98t-44.5 -46q-16 -6 -34.5 -7t-34 -3t-24.5 -8t-9 -21zM420 1432h43l217 243l139 -243h35l-125 350h-84z" />
<glyph unicode="&#xcb;" horiz-adv-x="921" d="M-102 18q0 -27 34 -26q12 0 122 7t339 7q164 0 232.5 -8t76.5 -8q18 0 25.5 22.5t17.5 61.5l43 157q6 25 7 33q0 12 -7.5 19.5t-13.5 7.5q-14 0 -21.5 -12.5t-16.5 -33t-24.5 -48t-45.5 -60.5q-82 -88 -220 -88h-151q-47 0 -68.5 18.5t-21.5 63.5q0 23 7 56.5t17 80.5 l99 389h170q45 0 69.5 -8t35.5 -24.5t13 -42t2 -62.5v-10q0 -10 -1 -22.5t-1 -26.5q0 -33 25 -33t31 43t26 129q29 123 50.5 184.5t21.5 71.5q0 27 -16 27q-12 0 -20.5 -11.5t-16.5 -30t-20.5 -40t-30.5 -41.5q-29 -33 -65 -42t-91 -9h-164l115 518q47 4 93 6t93 2 q98 0 145.5 -37t47.5 -123q0 -4 -1 -18.5t-1 -36.5q0 -16 7 -25.5t17 -9.5q14 0 20.5 10.5t12.5 32.5l51 191q8 33 8 38q0 23 -8 27t-33 4q-10 0 -74.5 -2t-187.5 -2q-209 0 -306 4t-107 4q-33 0 -33 -26q0 -18 14 -21.5t32.5 -6.5t33 -13.5t14.5 -42.5q0 -18 -3 -45t-9 -52 l-213 -884q-16 -63 -29.5 -98t-44.5 -46q-16 -6 -34.5 -7t-34 -3t-24.5 -8t-9 -21zM428 1585q0 -37 25.5 -63.5t60.5 -26.5q37 0 62.5 25.5t25.5 64.5q0 35 -26.5 60.5t-61.5 25.5t-60.5 -26.5t-25.5 -59.5zM770 1583q0 -35 25.5 -61.5t60.5 -26.5q37 0 62.5 25.5t25.5 64.5 q0 35 -26.5 60.5t-61.5 25.5t-60.5 -26.5t-25.5 -61.5z" />
<glyph unicode="&#xcc;" horiz-adv-x="524" d="M-92 18q0 -23 24 -22q20 0 67.5 6t123.5 6q90 0 136 -6t54 -6q12 0 20.5 7t8.5 17q0 27 -25.5 25t-54.5 4q-51 12 -51 64q0 18 5 40.5t11 51.5l222 952q12 49 33.5 65.5t43 20.5t37 6t15.5 21q0 20 -25 20q-16 0 -42 -4t-62 -4q-88 0 -137.5 5t-61.5 5q-35 0 -35 -24 q0 -16 14.5 -20.5t33 -8.5t32.5 -14.5t14 -36.5q0 -10 -1 -25.5t-5 -32.5l-233 -989q-10 -47 -27.5 -64.5t-52.5 -25.5t-58 -8q-25 0 -24 -25zM287 1739q0 -23 12.5 -40.5t34.5 -43.5l180 -223h46l-160 282q-41 74 -70 74q-18 0 -30.5 -13.5t-12.5 -35.5z" />
<glyph unicode="&#xcd;" horiz-adv-x="524" d="M-92 18q0 -23 24 -22q20 0 67.5 6t123.5 6q90 0 136 -6t54 -6q12 0 20.5 7t8.5 17q0 27 -25.5 25t-54.5 4q-51 12 -51 64q0 18 5 40.5t11 51.5l222 952q12 49 33.5 65.5t43 20.5t37 6t15.5 21q0 20 -25 20q-16 0 -42 -4t-62 -4q-88 0 -137.5 5t-61.5 5q-35 0 -35 -24 q0 -16 14.5 -20.5t33 -8.5t32.5 -14.5t14 -36.5q0 -10 -1 -25.5t-5 -32.5l-233 -989q-10 -47 -27.5 -64.5t-52.5 -25.5t-58 -8q-25 0 -24 -25zM342 1432h45l218 223q23 25 36 42t13 40t-11.5 38t-27.5 15t-30.5 -15.5t-33.5 -41.5z" />
<glyph unicode="&#xce;" horiz-adv-x="524" d="M-92 18q0 -23 24 -22q20 0 67.5 6t123.5 6q90 0 136 -6t54 -6q12 0 20.5 7t8.5 17q0 27 -25.5 25t-54.5 4q-51 12 -51 64q0 18 5 40.5t11 51.5l222 952q12 49 33.5 65.5t43 20.5t37 6t15.5 21q0 20 -25 20q-16 0 -42 -4t-62 -4q-88 0 -137.5 5t-61.5 5q-35 0 -35 -24 q0 -16 14.5 -20.5t33 -8.5t32.5 -14.5t14 -36.5q0 -10 -1 -25.5t-5 -32.5l-233 -989q-10 -47 -27.5 -64.5t-52.5 -25.5t-58 -8q-25 0 -24 -25zM224 1432h43l217 243l139 -243h35l-125 350h-84z" />
<glyph unicode="&#xcf;" horiz-adv-x="524" d="M-92 18q0 -23 24 -22q20 0 67.5 6t123.5 6q90 0 136 -6t54 -6q12 0 20.5 7t8.5 17q0 27 -25.5 25t-54.5 4q-51 12 -51 64q0 18 5 40.5t11 51.5l222 952q12 49 33.5 65.5t43 20.5t37 6t15.5 21q0 20 -25 20q-16 0 -42 -4t-62 -4q-88 0 -137.5 5t-61.5 5q-35 0 -35 -24 q0 -16 14.5 -20.5t33 -8.5t32.5 -14.5t14 -36.5q0 -10 -1 -25.5t-5 -32.5l-233 -989q-10 -47 -27.5 -64.5t-52.5 -25.5t-58 -8q-25 0 -24 -25zM232 1585q0 -37 25.5 -63.5t60.5 -26.5q37 0 62.5 25.5t25.5 64.5q0 35 -26.5 60.5t-61.5 25.5t-60.5 -26.5t-25.5 -59.5z M574 1583q0 -35 25.5 -61.5t60.5 -26.5q37 0 62.5 25.5t25.5 64.5q0 35 -26.5 60.5t-61.5 25.5t-60.5 -26.5t-25.5 -61.5z" />
<glyph unicode="&#xd0;" horiz-adv-x="1183" d="M-96 18q0 -16 9 -20t28 -4q16 0 74.5 7t158.5 7q61 0 119.5 -3t116.5 -3q150 0 268.5 47t222.5 156q111 113 171.5 261t60.5 310q0 246 -117 379t-346 133q-86 0 -153.5 -3t-115.5 -3h-24q-55 0 -87 5t-44 5q-35 0 -35 -26q0 -18 14.5 -20.5t32.5 -5.5t32.5 -15.5 t14.5 -46.5q0 -51 -10 -93l-88 -370h-193l-14 -56h197l-101 -430q-14 -57 -27.5 -94t-56.5 -59q-29 -14 -49 -19.5t-33.5 -9.5t-19.5 -9t-6 -20zM211 152q0 12 4 28.5t8 34.5l107 444h301l14 56h-301l102 430q14 59 43 76.5t93 17.5q94 0 161.5 -10t125 -57.5t91 -134.5 t33.5 -201q0 -82 -16 -170t-43 -169t-61.5 -149.5t-73.5 -114.5q-78 -90 -184.5 -138t-227.5 -48h-25q-41 0 -69.5 2t-47 12.5t-26.5 32t-8 58.5z" />
<glyph unicode="&#xd1;" horiz-adv-x="1128" d="M-123 14q0 -20 23 -20q12 0 53 7t106 7q53 0 86 -4t50 -4q16 0 26 8t10 19q0 20 -17 24t-38.5 8t-39 17.5t-17.5 50.5q0 57 46 266t142 574l47 184l408 -1171l29 6q125 555 206.5 846.5t96.5 326.5q16 43 40.5 59.5t48 22.5t41 9t17.5 22q0 20 -31 20q-16 0 -52 -6 t-91 -6q-66 0 -99.5 4t-43.5 4q-14 0 -24.5 -9t-10.5 -19q0 -20 16.5 -24.5t38.5 -8.5q31 -6 46.5 -22.5t15.5 -51.5q0 -27 -47.5 -246t-157.5 -626l-336 976q-10 33 -45 33q-10 0 -27.5 -1t-40.5 -1q-37 0 -64.5 4t-45.5 4q-31 0 -31 -24q0 -18 15.5 -21.5t32.5 -5.5 t32.5 -10t15.5 -37q0 -27 -6 -51l-192 -733q-41 -156 -66 -242t-61 -104q-18 -10 -37 -14.5t-34 -9.5t-24.5 -11t-9.5 -19zM567 1495h33q18 80 80 80q12 0 26.5 -4t30.5 -10l106 -33q25 -8 50 -8q98 0 135 180h-33q-18 -86 -82 -86q-18 0 -41 8l-110 35q-41 12 -62 12 q-106 0 -133 -174z" />
<glyph unicode="&#xd2;" horiz-adv-x="1175" d="M55 563q0 -141 36 -252.5t97.5 -189.5t145.5 -119t182 -41q117 0 228.5 60.5t201.5 177.5q84 109 128 246t44 294q0 133 -35.5 243t-97 186.5t-144.5 118.5t-177 42q-117 0 -226.5 -58.5t-194.5 -160.5t-136.5 -242.5t-51.5 -304.5zM195 465q0 135 35.5 279.5t97.5 265.5 q68 129 149.5 194.5t184.5 65.5q139 0 228 -113.5t89 -322.5q0 -137 -38 -291t-103 -287q-57 -115 -141.5 -174t-180.5 -59q-141 0 -231 115.5t-90 326.5zM579 1739q0 -23 12.5 -40.5t34.5 -43.5l180 -223h46l-160 282q-41 74 -70 74q-18 0 -30.5 -13.5t-12.5 -35.5z" />
<glyph unicode="&#xd3;" horiz-adv-x="1175" d="M55 563q0 -141 36 -252.5t97.5 -189.5t145.5 -119t182 -41q117 0 228.5 60.5t201.5 177.5q84 109 128 246t44 294q0 133 -35.5 243t-97 186.5t-144.5 118.5t-177 42q-117 0 -226.5 -58.5t-194.5 -160.5t-136.5 -242.5t-51.5 -304.5zM195 465q0 135 35.5 279.5t97.5 265.5 q68 129 149.5 194.5t184.5 65.5q139 0 228 -113.5t89 -322.5q0 -137 -38 -291t-103 -287q-57 -115 -141.5 -174t-180.5 -59q-141 0 -231 115.5t-90 326.5zM634 1432h45l218 223q23 25 36 42t13 40t-11.5 38t-27.5 15t-30.5 -15.5t-33.5 -41.5z" />
<glyph unicode="&#xd4;" horiz-adv-x="1175" d="M55 563q0 -141 36 -252.5t97.5 -189.5t145.5 -119t182 -41q117 0 228.5 60.5t201.5 177.5q84 109 128 246t44 294q0 133 -35.5 243t-97 186.5t-144.5 118.5t-177 42q-117 0 -226.5 -58.5t-194.5 -160.5t-136.5 -242.5t-51.5 -304.5zM195 465q0 135 35.5 279.5t97.5 265.5 q68 129 149.5 194.5t184.5 65.5q139 0 228 -113.5t89 -322.5q0 -137 -38 -291t-103 -287q-57 -115 -141.5 -174t-180.5 -59q-141 0 -231 115.5t-90 326.5zM516 1432h43l217 243l139 -243h35l-125 350h-84z" />
<glyph unicode="&#xd5;" horiz-adv-x="1175" d="M55 563q0 -141 36 -252.5t97.5 -189.5t145.5 -119t182 -41q117 0 228.5 60.5t201.5 177.5q84 109 128 246t44 294q0 133 -35.5 243t-97 186.5t-144.5 118.5t-177 42q-117 0 -226.5 -58.5t-194.5 -160.5t-136.5 -242.5t-51.5 -304.5zM195 465q0 135 35.5 279.5t97.5 265.5 q68 129 149.5 194.5t184.5 65.5q139 0 228 -113.5t89 -322.5q0 -137 -38 -291t-103 -287q-57 -115 -141.5 -174t-180.5 -59q-141 0 -231 115.5t-90 326.5zM530 1495h33q18 80 80 80q12 0 26.5 -4t30.5 -10l106 -33q25 -8 50 -8q98 0 135 180h-33q-18 -86 -82 -86 q-18 0 -41 8l-110 35q-41 12 -62 12q-106 0 -133 -174z" />
<glyph unicode="&#xd6;" horiz-adv-x="1175" d="M55 563q0 -141 36 -252.5t97.5 -189.5t145.5 -119t182 -41q117 0 228.5 60.5t201.5 177.5q84 109 128 246t44 294q0 133 -35.5 243t-97 186.5t-144.5 118.5t-177 42q-117 0 -226.5 -58.5t-194.5 -160.5t-136.5 -242.5t-51.5 -304.5zM195 465q0 135 35.5 279.5t97.5 265.5 q68 129 149.5 194.5t184.5 65.5q139 0 228 -113.5t89 -322.5q0 -137 -38 -291t-103 -287q-57 -115 -141.5 -174t-180.5 -59q-141 0 -231 115.5t-90 326.5zM524 1585q0 -37 25.5 -63.5t60.5 -26.5q37 0 62.5 25.5t25.5 64.5q0 35 -26.5 60.5t-61.5 25.5t-60.5 -26.5 t-25.5 -59.5zM866 1583q0 -35 25.5 -61.5t60.5 -26.5q37 0 62.5 25.5t25.5 64.5q0 35 -26.5 60.5t-61.5 25.5t-60.5 -26.5t-25.5 -61.5z" />
<glyph unicode="&#xd7;" horiz-adv-x="1705" d="M305 129l70 -68l481 482l481 -482l70 68l-481 481l481 484l-70 67l-481 -481l-481 481l-70 -67l481 -484z" />
<glyph unicode="&#xd8;" horiz-adv-x="1175" d="M-121 -199h72l246 318q61 -76 145 -116t174 -40q111 0 224.5 61.5t205.5 178.5q86 109 129 245t43 293q0 141 -34.5 241.5t-86.5 172.5l254 330h-59l-227 -291q-53 59 -128 97t-171 38q-117 0 -226.5 -57.5t-194.5 -158.5t-136.5 -241.5t-51.5 -308.5q0 -244 105 -399z M197 481q0 238 110 488q68 154 156 227.5t205 73.5q72 0 135 -36t108 -108l-682 -880q-33 106 -32 235zM252 193l684 882q43 -121 43 -241q0 -66 -9 -138.5t-27.5 -147.5t-45.5 -148.5t-59 -141.5q-57 -115 -141.5 -174t-182.5 -59q-174 0 -262 168z" />
<glyph unicode="&#xd9;" horiz-adv-x="1079" d="M92 264q0 -145 89 -225t249 -80q104 0 175 29.5t120 87t81 142.5t58 198l154 639q16 68 28.5 108.5t45.5 59.5q14 8 29.5 11t29.5 6t23.5 9t9.5 21q0 10 -6.5 17t-16.5 7q-16 0 -46 -6t-77 -6q-59 0 -94 6t-49 6q-16 0 -23.5 -8t-7.5 -18q0 -16 18.5 -20.5t41 -9.5 t41 -19.5t18.5 -51.5q0 -14 -3 -39.5t-11 -60.5l-142 -616q-23 -100 -49 -182.5t-68 -140.5t-102.5 -90t-150.5 -32q-121 0 -185.5 59.5t-64.5 161.5q0 35 14.5 124t52.5 233l148 561q10 35 25.5 57.5t50.5 32.5q14 4 29.5 5t27.5 3t20.5 7t8.5 20q0 25 -49 24q-16 0 -37 -5 t-49 -5q-111 0 -165.5 6t-64.5 6q-33 0 -33 -28q0 -27 23.5 -26t54.5 -5q12 -2 21.5 -16.5t9.5 -36.5q0 -20 -14 -78l-142 -571q-18 -74 -32.5 -140.5t-14.5 -130.5zM586 1739q0 -23 12.5 -40.5t34.5 -43.5l180 -223h46l-160 282q-41 74 -70 74q-18 0 -30.5 -13.5 t-12.5 -35.5z" />
<glyph unicode="&#xda;" horiz-adv-x="1079" d="M92 264q0 -145 89 -225t249 -80q104 0 175 29.5t120 87t81 142.5t58 198l154 639q16 68 28.5 108.5t45.5 59.5q14 8 29.5 11t29.5 6t23.5 9t9.5 21q0 10 -6.5 17t-16.5 7q-16 0 -46 -6t-77 -6q-59 0 -94 6t-49 6q-16 0 -23.5 -8t-7.5 -18q0 -16 18.5 -20.5t41 -9.5 t41 -19.5t18.5 -51.5q0 -14 -3 -39.5t-11 -60.5l-142 -616q-23 -100 -49 -182.5t-68 -140.5t-102.5 -90t-150.5 -32q-121 0 -185.5 59.5t-64.5 161.5q0 35 14.5 124t52.5 233l148 561q10 35 25.5 57.5t50.5 32.5q14 4 29.5 5t27.5 3t20.5 7t8.5 20q0 25 -49 24q-16 0 -37 -5 t-49 -5q-111 0 -165.5 6t-64.5 6q-33 0 -33 -28q0 -27 23.5 -26t54.5 -5q12 -2 21.5 -16.5t9.5 -36.5q0 -20 -14 -78l-142 -571q-18 -74 -32.5 -140.5t-14.5 -130.5zM641 1432h45l218 223q23 25 36 42t13 40t-11.5 38t-27.5 15t-30.5 -15.5t-33.5 -41.5z" />
<glyph unicode="&#xdb;" horiz-adv-x="1079" d="M92 264q0 -145 89 -225t249 -80q104 0 175 29.5t120 87t81 142.5t58 198l154 639q16 68 28.5 108.5t45.5 59.5q14 8 29.5 11t29.5 6t23.5 9t9.5 21q0 10 -6.5 17t-16.5 7q-16 0 -46 -6t-77 -6q-59 0 -94 6t-49 6q-16 0 -23.5 -8t-7.5 -18q0 -16 18.5 -20.5t41 -9.5 t41 -19.5t18.5 -51.5q0 -14 -3 -39.5t-11 -60.5l-142 -616q-23 -100 -49 -182.5t-68 -140.5t-102.5 -90t-150.5 -32q-121 0 -185.5 59.5t-64.5 161.5q0 35 14.5 124t52.5 233l148 561q10 35 25.5 57.5t50.5 32.5q14 4 29.5 5t27.5 3t20.5 7t8.5 20q0 25 -49 24q-16 0 -37 -5 t-49 -5q-111 0 -165.5 6t-64.5 6q-33 0 -33 -28q0 -27 23.5 -26t54.5 -5q12 -2 21.5 -16.5t9.5 -36.5q0 -20 -14 -78l-142 -571q-18 -74 -32.5 -140.5t-14.5 -130.5zM523 1432h43l217 243l139 -243h35l-125 350h-84z" />
<glyph unicode="&#xdc;" horiz-adv-x="1079" d="M92 264q0 -145 89 -225t249 -80q104 0 175 29.5t120 87t81 142.5t58 198l154 639q16 68 28.5 108.5t45.5 59.5q14 8 29.5 11t29.5 6t23.5 9t9.5 21q0 10 -6.5 17t-16.5 7q-16 0 -46 -6t-77 -6q-59 0 -94 6t-49 6q-16 0 -23.5 -8t-7.5 -18q0 -16 18.5 -20.5t41 -9.5 t41 -19.5t18.5 -51.5q0 -14 -3 -39.5t-11 -60.5l-142 -616q-23 -100 -49 -182.5t-68 -140.5t-102.5 -90t-150.5 -32q-121 0 -185.5 59.5t-64.5 161.5q0 35 14.5 124t52.5 233l148 561q10 35 25.5 57.5t50.5 32.5q14 4 29.5 5t27.5 3t20.5 7t8.5 20q0 25 -49 24q-16 0 -37 -5 t-49 -5q-111 0 -165.5 6t-64.5 6q-33 0 -33 -28q0 -27 23.5 -26t54.5 -5q12 -2 21.5 -16.5t9.5 -36.5q0 -20 -14 -78l-142 -571q-18 -74 -32.5 -140.5t-14.5 -130.5zM531 1585q0 -37 25.5 -63.5t60.5 -26.5q37 0 62.5 25.5t25.5 64.5q0 35 -26.5 60.5t-61.5 25.5 t-60.5 -26.5t-25.5 -59.5zM873 1583q0 -35 25.5 -61.5t60.5 -26.5q37 0 62.5 25.5t25.5 64.5q0 35 -26.5 60.5t-61.5 25.5t-60.5 -26.5t-25.5 -61.5z" />
<glyph unicode="&#xdd;" horiz-adv-x="833" d="M35 18q0 -25 28 -24q23 0 69 7t114 7q70 0 112.5 -5t61.5 -5q37 0 37 22q0 14 -7.5 19.5t-19.5 7.5t-29 2q-14 0 -28 4q-43 12 -43 60q0 33 14 92l92 364l352 471q63 84 107.5 132.5t79.5 62.5q27 10 48 12t21 25q0 18 -26 18q-6 0 -41 -1t-100 -1q-53 0 -86 1t-50 1 q-37 0 -36 -20q0 -16 17 -19.5t38.5 -6.5t40 -10t18.5 -34q0 -29 -38 -86t-105 -151l-248 -342l-131 518q-8 31 -8 57q0 31 19.5 39t42 10t42 4t19.5 19q0 23 -29 22q-8 0 -46 -2t-110 -2q-59 0 -91 2t-38 2q-33 0 -32 -20q0 -16 9 -18.5t23.5 -8.5t28.5 -21.5t27 -56.5 l153 -565l-114 -459q-10 -47 -26.5 -64.5t-49.5 -25.5q-35 -8 -60 -8q-23 0 -22 -25zM495 1432h45l218 223q23 25 36 42t13 40t-11.5 38t-27.5 15t-30.5 -15.5t-33.5 -41.5z" />
<glyph unicode="&#xde;" horiz-adv-x="931" d="M-84 18q0 -23 25 -22q20 0 63 6t109 6q78 0 120.5 -6t57.5 -6q20 0 30.5 7t10.5 17q0 14 -8.5 19.5t-20.5 7.5t-29 2q-14 0 -28 4q-45 14 -45 58q0 8 3 32.5t13 65.5l16 74q27 -2 52 -2h47q131 0 230.5 31.5t166 90t100 139.5t33.5 179q0 154 -85 215t-253 61 q-25 0 -55.5 -2t-67.5 -6l35 148q12 49 37 67.5t49.5 23.5t43 8t18.5 21q0 16 -9.5 19.5t-25.5 3.5h-88q-102 0 -155.5 5t-63.5 5q-39 0 -39 -22q0 -18 14 -21.5t32.5 -6.5t33 -17.5t14.5 -53.5q0 -16 -2 -37.5t-8 -46.5l-228 -944q-12 -51 -35.5 -68.5t-48 -23.5t-42 -8 t-17.5 -23zM246 330l141 610q39 6 82 6q131 0 196.5 -49t65.5 -166q0 -82 -29.5 -155.5t-83 -129t-127 -88t-159.5 -32.5q-23 0 -44.5 1t-41.5 3z" />
<glyph unicode="&#xdf;" horiz-adv-x="946" d="M-354 -360q0 -49 35.5 -81t95.5 -32q88 0 147.5 51t103.5 149.5t78.5 242t75.5 327.5l131 604q51 238 140.5 356.5t208.5 118.5q92 0 143 -57t51 -160q0 -172 -194 -237q-41 -14 -77 -26.5t-63.5 -32t-44 -50.5t-16.5 -80q0 -59 31.5 -112.5t80.5 -118.5l91 -117 q39 -49 56 -94t17 -105q0 -72 -41 -124t-100 -52q-94 0 -162 137q-18 39 -27.5 73t-35.5 34q-16 0 -30.5 -39t-14.5 -111q0 -20 21.5 -44.5t55 -46t76.5 -36t86 -14.5q53 0 101.5 23.5t85 66.5t58 101.5t21.5 126.5q0 133 -90 243l-88 109q-41 51 -63.5 85t-22.5 62 q0 53 42 78t122 49q117 37 177.5 110t60.5 167q0 111 -72 175t-213 64q-195 0 -308.5 -128t-176.5 -394h-105q-31 0 -31 -39q0 -14 15 -14h108l-209 -940q-39 -174 -73.5 -258t-75.5 -84q-23 0 -31 8t-11 22.5t-3 34.5q0 18 -4 41t-22.5 40.5t-41.5 17.5q-29 0 -49 -24.5 t-20 -65.5z" />
<glyph unicode="&#xe0;" horiz-adv-x="960" d="M-25 186q0 -109 45.5 -166t120.5 -57q102 0 219 133t271 398l-62 -228q-16 -59 -29.5 -113.5t-13.5 -105.5q0 -88 66 -88q86 0 199 164q66 92 65 135q0 14 -10 14q-16 0 -24.5 -20.5t-35.5 -56.5q-61 -86 -96 -86q-23 0 -22 43q0 8 4 34.5t16 69.5l172 625q10 31 10 45 q0 23 -10 27.5t-39 4.5q-23 0 -38 -9t-25 -20t-17.5 -20.5t-15.5 -9.5q-14 0 -48 21.5t-89 21.5q-82 0 -189.5 -62.5t-210.5 -191.5q-109 -135 -161 -262t-52 -240zM106 190q0 70 35 171.5t107 226.5q92 160 185.5 236.5t152.5 76.5q55 0 85.5 -32.5t30.5 -92.5 q0 -119 -215 -434q-92 -135 -160.5 -203.5t-125.5 -68.5q-41 0 -68 30.5t-27 89.5zM459 1356q0 -23 12.5 -40.5t34.5 -43.5l180 -223h46l-160 282q-41 74 -70 74q-18 0 -30.5 -13.5t-12.5 -35.5z" />
<glyph unicode="&#xe1;" horiz-adv-x="960" d="M-25 186q0 -109 45.5 -166t120.5 -57q102 0 219 133t271 398l-62 -228q-16 -59 -29.5 -113.5t-13.5 -105.5q0 -88 66 -88q86 0 199 164q66 92 65 135q0 14 -10 14q-16 0 -24.5 -20.5t-35.5 -56.5q-61 -86 -96 -86q-23 0 -22 43q0 8 4 34.5t16 69.5l172 625q10 31 10 45 q0 23 -10 27.5t-39 4.5q-23 0 -38 -9t-25 -20t-17.5 -20.5t-15.5 -9.5q-14 0 -48 21.5t-89 21.5q-82 0 -189.5 -62.5t-210.5 -191.5q-109 -135 -161 -262t-52 -240zM106 190q0 70 35 171.5t107 226.5q92 160 185.5 236.5t152.5 76.5q55 0 85.5 -32.5t30.5 -92.5 q0 -119 -215 -434q-92 -135 -160.5 -203.5t-125.5 -68.5q-41 0 -68 30.5t-27 89.5zM514 1049h45l218 223q23 25 36 42t13 40t-11.5 38t-27.5 15t-30.5 -15.5t-33.5 -41.5z" />
<glyph unicode="&#xe2;" horiz-adv-x="960" d="M-25 186q0 -109 45.5 -166t120.5 -57q102 0 219 133t271 398l-62 -228q-16 -59 -29.5 -113.5t-13.5 -105.5q0 -88 66 -88q86 0 199 164q66 92 65 135q0 14 -10 14q-16 0 -24.5 -20.5t-35.5 -56.5q-61 -86 -96 -86q-23 0 -22 43q0 8 4 34.5t16 69.5l172 625q10 31 10 45 q0 23 -10 27.5t-39 4.5q-23 0 -38 -9t-25 -20t-17.5 -20.5t-15.5 -9.5q-14 0 -48 21.5t-89 21.5q-82 0 -189.5 -62.5t-210.5 -191.5q-109 -135 -161 -262t-52 -240zM106 190q0 70 35 171.5t107 226.5q92 160 185.5 236.5t152.5 76.5q55 0 85.5 -32.5t30.5 -92.5 q0 -119 -215 -434q-92 -135 -160.5 -203.5t-125.5 -68.5q-41 0 -68 30.5t-27 89.5zM396 1049h43l217 243l139 -243h35l-125 350h-84z" />
<glyph unicode="&#xe3;" horiz-adv-x="960" d="M-25 186q0 -109 45.5 -166t120.5 -57q102 0 219 133t271 398l-62 -228q-16 -59 -29.5 -113.5t-13.5 -105.5q0 -88 66 -88q86 0 199 164q66 92 65 135q0 14 -10 14q-16 0 -24.5 -20.5t-35.5 -56.5q-61 -86 -96 -86q-23 0 -22 43q0 8 4 34.5t16 69.5l172 625q10 31 10 45 q0 23 -10 27.5t-39 4.5q-23 0 -38 -9t-25 -20t-17.5 -20.5t-15.5 -9.5q-14 0 -48 21.5t-89 21.5q-82 0 -189.5 -62.5t-210.5 -191.5q-109 -135 -161 -262t-52 -240zM106 190q0 70 35 171.5t107 226.5q92 160 185.5 236.5t152.5 76.5q55 0 85.5 -32.5t30.5 -92.5 q0 -119 -215 -434q-92 -135 -160.5 -203.5t-125.5 -68.5q-41 0 -68 30.5t-27 89.5zM410 1112h33q18 80 80 80q12 0 26.5 -4t30.5 -10l106 -33q25 -8 50 -8q98 0 135 180h-33q-18 -86 -82 -86q-18 0 -41 8l-110 35q-41 12 -62 12q-106 0 -133 -174z" />
<glyph unicode="&#xe4;" horiz-adv-x="960" d="M-25 186q0 -109 45.5 -166t120.5 -57q102 0 219 133t271 398l-62 -228q-16 -59 -29.5 -113.5t-13.5 -105.5q0 -88 66 -88q86 0 199 164q66 92 65 135q0 14 -10 14q-16 0 -24.5 -20.5t-35.5 -56.5q-61 -86 -96 -86q-23 0 -22 43q0 8 4 34.5t16 69.5l172 625q10 31 10 45 q0 23 -10 27.5t-39 4.5q-23 0 -38 -9t-25 -20t-17.5 -20.5t-15.5 -9.5q-14 0 -48 21.5t-89 21.5q-82 0 -189.5 -62.5t-210.5 -191.5q-109 -135 -161 -262t-52 -240zM106 190q0 70 35 171.5t107 226.5q92 160 185.5 236.5t152.5 76.5q55 0 85.5 -32.5t30.5 -92.5 q0 -119 -215 -434q-92 -135 -160.5 -203.5t-125.5 -68.5q-41 0 -68 30.5t-27 89.5zM404 1202q0 -37 25.5 -63.5t60.5 -26.5q37 0 62.5 25.5t25.5 64.5q0 35 -26.5 60.5t-61.5 25.5t-60.5 -26.5t-25.5 -59.5zM746 1200q0 -35 25.5 -61.5t60.5 -26.5q37 0 62.5 25.5t25.5 64.5 q0 35 -26.5 60.5t-61.5 25.5t-60.5 -26.5t-25.5 -61.5z" />
<glyph unicode="&#xe5;" horiz-adv-x="960" d="M-25 186q0 -109 45.5 -166t120.5 -57q102 0 219 133t271 398l-62 -228q-16 -59 -29.5 -113.5t-13.5 -105.5q0 -88 66 -88q86 0 199 164q66 92 65 135q0 14 -10 14q-16 0 -24.5 -20.5t-35.5 -56.5q-61 -86 -96 -86q-23 0 -22 43q0 8 4 34.5t16 69.5l172 625q10 31 10 45 q0 23 -10 27.5t-39 4.5q-23 0 -38 -9t-25 -20t-17.5 -20.5t-15.5 -9.5q-14 0 -48 21.5t-89 21.5q-82 0 -189.5 -62.5t-210.5 -191.5q-109 -135 -161 -262t-52 -240zM106 190q0 70 35 171.5t107 226.5q92 160 185.5 236.5t152.5 76.5q55 0 85.5 -32.5t30.5 -92.5 q0 -119 -215 -434q-92 -135 -160.5 -203.5t-125.5 -68.5q-41 0 -68 30.5t-27 89.5zM426 1237q0 -49 18.5 -92t50 -74t73.5 -49t91 -18t92.5 18t74 50t49 74t18.5 91t-18.5 91t-50 74t-74 50t-91.5 18t-92 -18t-73.5 -49t-49 -74t-18.5 -92zM500 1237q0 68 46.5 113t112.5 45 t111 -45t45 -113q0 -66 -44 -111t-112 -45t-113.5 45t-45.5 111z" />
<glyph unicode="&#xe6;" horiz-adv-x="1325" d="M-25 186q0 -111 44 -167t120 -56q188 0 463 477q-16 -88 -16 -153q0 -74 20.5 -134.5t55 -102.5t83 -65.5t103.5 -23.5q158 0 278 166q35 47 49.5 79t14.5 46q0 20 -12 20q-18 0 -26.5 -24.5t-39.5 -61.5q-53 -66 -108.5 -96.5t-122.5 -30.5q-33 0 -63 15.5t-53.5 45.5 t-36.5 70.5t-13 92.5q0 49 6 104q283 23 425 113t142 241q0 92 -57 148.5t-154 56.5q-113 0 -223 -90l10 37q6 14 6 35q0 33 -39 33q-25 0 -42 -9.5t-29 -21.5t-20.5 -21.5t-14.5 -9.5q-14 0 -47 21.5t-90 21.5q-82 0 -189.5 -62.5t-210.5 -191.5q-213 -268 -213 -502z M106 190q0 78 41 194t134 257q84 131 168 195.5t137 64.5q117 0 116 -123q0 -59 -51 -169.5t-162 -270.5q-182 -268 -288 -268q-39 0 -67 30.5t-28 89.5zM729 436q27 113 66 201t85 148.5t94 91t95 30.5t73.5 -34.5t26.5 -92.5q0 -70 -28.5 -130t-85 -106t-138.5 -74 t-188 -34z" />
<glyph unicode="&#xe7;" horiz-adv-x="768" d="M2 313q0 -80 21.5 -145.5t59.5 -111.5t88 -71.5t110 -25.5q72 0 138 38t132 114q45 51 66.5 88t21.5 53q0 20 -14 20q-18 0 -27.5 -24.5t-42.5 -61.5q-111 -123 -207 -123q-94 0 -146 70t-52 201q0 123 34.5 225.5t84.5 175t106.5 113.5t101.5 41q23 0 40.5 -18.5 t36.5 -40t43 -40t58 -18.5q29 0 45.5 18.5t16.5 38.5q0 55 -47 85t-129 30q-80 0 -177.5 -46t-183.5 -150q-88 -94 -133 -208t-45 -227zM39 -373q66 -33 119 -50t100 -17q76 0 122 45t46 116q0 74 -37 118t-96 44h-23q-12 0 -28 -4l28 121h-43l-51 -190q23 4 40 6t30 2 q45 0 69.5 -24.5t24.5 -67.5q0 -100 -103 -101q-25 0 -70.5 15.5t-105.5 52.5z" />
<glyph unicode="&#xe8;" horiz-adv-x="757" d="M2 313q0 -80 20.5 -145.5t56.5 -111.5t84 -71.5t103 -25.5q143 0 277 172q33 43 48 74t15 47q0 20 -12 20q-18 0 -26.5 -24.5t-39.5 -61.5q-104 -125 -215 -125q-80 0 -130 61.5t-50 176.5q0 22 6 88q281 23 423.5 113t142.5 241q0 90 -57.5 147.5t-149.5 57.5 q-78 0 -163 -47t-163 -143q-84 -102 -127 -216t-43 -227zM143 436q27 113 67 201t85 148.5t93 91t95 30.5t75 -34.5t28 -92.5q0 -141 -114 -237.5t-329 -106.5zM342 1356q0 -23 12.5 -40.5t34.5 -43.5l180 -223h46l-160 282q-41 74 -70 74q-18 0 -30.5 -13.5t-12.5 -35.5z " />
<glyph unicode="&#xe9;" horiz-adv-x="757" d="M2 313q0 -80 20.5 -145.5t56.5 -111.5t84 -71.5t103 -25.5q143 0 277 172q33 43 48 74t15 47q0 20 -12 20q-18 0 -26.5 -24.5t-39.5 -61.5q-104 -125 -215 -125q-80 0 -130 61.5t-50 176.5q0 22 6 88q281 23 423.5 113t142.5 241q0 90 -57.5 147.5t-149.5 57.5 q-78 0 -163 -47t-163 -143q-84 -102 -127 -216t-43 -227zM143 436q27 113 67 201t85 148.5t93 91t95 30.5t75 -34.5t28 -92.5q0 -141 -114 -237.5t-329 -106.5zM397 1049h45l218 223q23 25 36 42t13 40t-11.5 38t-27.5 15t-30.5 -15.5t-33.5 -41.5z" />
<glyph unicode="&#xea;" horiz-adv-x="757" d="M2 313q0 -80 20.5 -145.5t56.5 -111.5t84 -71.5t103 -25.5q143 0 277 172q33 43 48 74t15 47q0 20 -12 20q-18 0 -26.5 -24.5t-39.5 -61.5q-104 -125 -215 -125q-80 0 -130 61.5t-50 176.5q0 22 6 88q281 23 423.5 113t142.5 241q0 90 -57.5 147.5t-149.5 57.5 q-78 0 -163 -47t-163 -143q-84 -102 -127 -216t-43 -227zM143 436q27 113 67 201t85 148.5t93 91t95 30.5t75 -34.5t28 -92.5q0 -141 -114 -237.5t-329 -106.5zM279 1049h43l217 243l139 -243h35l-125 350h-84z" />
<glyph unicode="&#xeb;" horiz-adv-x="757" d="M2 313q0 -80 20.5 -145.5t56.5 -111.5t84 -71.5t103 -25.5q143 0 277 172q33 43 48 74t15 47q0 20 -12 20q-18 0 -26.5 -24.5t-39.5 -61.5q-104 -125 -215 -125q-80 0 -130 61.5t-50 176.5q0 22 6 88q281 23 423.5 113t142.5 241q0 90 -57.5 147.5t-149.5 57.5 q-78 0 -163 -47t-163 -143q-84 -102 -127 -216t-43 -227zM143 436q27 113 67 201t85 148.5t93 91t95 30.5t75 -34.5t28 -92.5q0 -141 -114 -237.5t-329 -106.5zM287 1202q0 -37 25.5 -63.5t60.5 -26.5q37 0 62.5 25.5t25.5 64.5q0 35 -26.5 60.5t-61.5 25.5t-60.5 -26.5 t-25.5 -59.5zM629 1200q0 -35 25.5 -61.5t60.5 -26.5q37 0 62.5 25.5t25.5 64.5q0 35 -26.5 60.5t-61.5 25.5t-60.5 -26.5t-25.5 -61.5z" />
<glyph unicode="&#xec;" horiz-adv-x="505" d="M29 68q0 -102 82 -103q41 0 88 36t94 108q82 125 82 159q0 14 -15 15q-8 0 -19 -26t-44 -81q-59 -104 -111 -104q-29 0 -28 43q0 18 18 80l146 454q20 61 34.5 112.5t14.5 94.5q0 41 -20.5 63.5t-55.5 22.5q-80 0 -184 -131q-37 -47 -53.5 -78t-16.5 -39q0 -18 10 -18 q8 0 25.5 25.5t39 57.5t46 57.5t49.5 25.5q18 0 23.5 -10.5t5.5 -32.5q0 -29 -12.5 -69t-30.5 -95l-84 -246q-39 -111 -61.5 -189.5t-22.5 -131.5zM176 1356q0 -23 12.5 -40.5t34.5 -43.5l180 -223h46l-160 282q-41 74 -70 74q-18 0 -30.5 -13.5t-12.5 -35.5z" />
<glyph unicode="&#xed;" horiz-adv-x="505" d="M29 68q0 -102 82 -103q41 0 88 36t94 108q82 125 82 159q0 14 -15 15q-8 0 -19 -26t-44 -81q-59 -104 -111 -104q-29 0 -28 43q0 18 18 80l146 454q20 61 34.5 112.5t14.5 94.5q0 41 -20.5 63.5t-55.5 22.5q-80 0 -184 -131q-37 -47 -53.5 -78t-16.5 -39q0 -18 10 -18 q8 0 25.5 25.5t39 57.5t46 57.5t49.5 25.5q18 0 23.5 -10.5t5.5 -32.5q0 -29 -12.5 -69t-30.5 -95l-84 -246q-39 -111 -61.5 -189.5t-22.5 -131.5zM231 1049h45l218 223q23 25 36 42t13 40t-11.5 38t-27.5 15t-30.5 -15.5t-33.5 -41.5z" />
<glyph unicode="&#xee;" horiz-adv-x="505" d="M29 68q0 -102 82 -103q41 0 88 36t94 108q82 125 82 159q0 14 -15 15q-8 0 -19 -26t-44 -81q-59 -104 -111 -104q-29 0 -28 43q0 18 18 80l146 454q20 61 34.5 112.5t14.5 94.5q0 41 -20.5 63.5t-55.5 22.5q-80 0 -184 -131q-37 -47 -53.5 -78t-16.5 -39q0 -18 10 -18 q8 0 25.5 25.5t39 57.5t46 57.5t49.5 25.5q18 0 23.5 -10.5t5.5 -32.5q0 -29 -12.5 -69t-30.5 -95l-84 -246q-39 -111 -61.5 -189.5t-22.5 -131.5zM113 1049h43l217 243l139 -243h35l-125 350h-84z" />
<glyph unicode="&#xef;" horiz-adv-x="505" d="M29 68q0 -102 82 -103q41 0 88 36t94 108q82 125 82 159q0 14 -15 15q-8 0 -19 -26t-44 -81q-59 -104 -111 -104q-29 0 -28 43q0 18 18 80l146 454q20 61 34.5 112.5t14.5 94.5q0 41 -20.5 63.5t-55.5 22.5q-80 0 -184 -131q-37 -47 -53.5 -78t-16.5 -39q0 -18 10 -18 q8 0 25.5 25.5t39 57.5t46 57.5t49.5 25.5q18 0 23.5 -10.5t5.5 -32.5q0 -29 -12.5 -69t-30.5 -95l-84 -246q-39 -111 -61.5 -189.5t-22.5 -131.5zM121 1202q0 -37 25.5 -63.5t60.5 -26.5q37 0 62.5 25.5t25.5 64.5q0 35 -26.5 60.5t-61.5 25.5t-60.5 -26.5t-25.5 -59.5z M463 1200q0 -35 25.5 -61.5t60.5 -26.5q37 0 62.5 25.5t25.5 64.5q0 35 -26.5 60.5t-61.5 25.5t-60.5 -26.5t-25.5 -61.5z" />
<glyph unicode="&#xf0;" horiz-adv-x="882" d="M-6 356q0 -90 24.5 -161.5t66.5 -123t99.5 -79t122.5 -27.5q88 0 175 45t156 128t111 202t42 264q0 154 -40 297t-118 289l256 121l-19 53l-272 -125q-51 78 -97 139.5t-87 110.5l-29 -25q41 -72 76 -135t63 -123l-262 -119l17 -55l268 119q29 -70 52.5 -133.5 t39.5 -126.5q-98 47 -164 47q-86 0 -171 -44t-154.5 -122t-112.5 -184.5t-43 -231.5zM119 295q0 102 30.5 210.5t90.5 209.5q51 86 116.5 130t126.5 44q86 0 133.5 -65.5t47.5 -192.5t-33 -238.5t-84 -194.5t-115.5 -131.5t-128.5 -48.5q-84 0 -134 72t-50 205z" />
<glyph unicode="&#xf1;" horiz-adv-x="1001" d="M2 672q0 -18 14 -19q10 0 30 29t44.5 62.5t53 62.5t57.5 29t28 -39q0 -37 -16 -104.5t-45 -168.5l-141 -475q-8 -25 -9 -31q0 -6 5.5 -12t11.5 -6h88q18 0 28.5 25.5t24.5 75t37 120t66 162.5q51 111 110.5 200t116.5 151.5t104 96t76 33.5q59 0 59 -65q0 -12 -4 -37 t-16 -60l-84 -245q-51 -147 -74.5 -244.5t-23.5 -144.5q0 -94 73 -95q41 0 96.5 38t108.5 116q47 68 68.5 110t21.5 52q0 18 -12 18q-10 0 -21.5 -23.5t-46.5 -74.5q-41 -61 -72.5 -93t-62.5 -32t-30 45q0 16 10 47l160 473q39 115 38 176q0 53 -32.5 84t-91.5 31 q-102 0 -223 -120t-259 -363l56 200q23 78 28.5 128.5t5.5 64.5q0 96 -69 96q-82 0 -201 -141q-47 -53 -66.5 -90t-19.5 -43zM414 1112h33q18 80 80 80q12 0 26.5 -4t30.5 -10l106 -33q25 -8 50 -8q98 0 135 180h-33q-18 -86 -82 -86q-18 0 -41 8l-110 35q-41 12 -62 12 q-106 0 -133 -174z" />
<glyph unicode="&#xf2;" horiz-adv-x="882" d="M-6 356q0 -88 24.5 -160.5t66.5 -124t99.5 -79t122.5 -27.5q86 0 173 45t156 124t112 183.5t43 221.5q0 92 -25 165.5t-67 126t-100 80t-126 27.5q-84 0 -169 -44t-154.5 -121t-112.5 -184.5t-43 -232.5zM119 295q0 102 30.5 210.5t90.5 209.5q51 86 116.5 130t126.5 44 q86 0 133.5 -65.5t47.5 -192.5t-33 -238.5t-84 -194.5t-115.5 -131.5t-128.5 -48.5q-84 0 -134 72t-50 205zM364 1356q0 -23 12.5 -40.5t34.5 -43.5l180 -223h46l-160 282q-41 74 -70 74q-18 0 -30.5 -13.5t-12.5 -35.5z" />
<glyph unicode="&#xf3;" horiz-adv-x="882" d="M-6 356q0 -88 24.5 -160.5t66.5 -124t99.5 -79t122.5 -27.5q86 0 173 45t156 124t112 183.5t43 221.5q0 92 -25 165.5t-67 126t-100 80t-126 27.5q-84 0 -169 -44t-154.5 -121t-112.5 -184.5t-43 -232.5zM119 295q0 102 30.5 210.5t90.5 209.5q51 86 116.5 130t126.5 44 q86 0 133.5 -65.5t47.5 -192.5t-33 -238.5t-84 -194.5t-115.5 -131.5t-128.5 -48.5q-84 0 -134 72t-50 205zM419 1049h45l218 223q23 25 36 42t13 40t-11.5 38t-27.5 15t-30.5 -15.5t-33.5 -41.5z" />
<glyph unicode="&#xf4;" horiz-adv-x="882" d="M-6 356q0 -88 24.5 -160.5t66.5 -124t99.5 -79t122.5 -27.5q86 0 173 45t156 124t112 183.5t43 221.5q0 92 -25 165.5t-67 126t-100 80t-126 27.5q-84 0 -169 -44t-154.5 -121t-112.5 -184.5t-43 -232.5zM119 295q0 102 30.5 210.5t90.5 209.5q51 86 116.5 130t126.5 44 q86 0 133.5 -65.5t47.5 -192.5t-33 -238.5t-84 -194.5t-115.5 -131.5t-128.5 -48.5q-84 0 -134 72t-50 205zM301 1049h43l217 243l139 -243h35l-125 350h-84z" />
<glyph unicode="&#xf5;" horiz-adv-x="882" d="M-6 356q0 -88 24.5 -160.5t66.5 -124t99.5 -79t122.5 -27.5q86 0 173 45t156 124t112 183.5t43 221.5q0 92 -25 165.5t-67 126t-100 80t-126 27.5q-84 0 -169 -44t-154.5 -121t-112.5 -184.5t-43 -232.5zM119 295q0 102 30.5 210.5t90.5 209.5q51 86 116.5 130t126.5 44 q86 0 133.5 -65.5t47.5 -192.5t-33 -238.5t-84 -194.5t-115.5 -131.5t-128.5 -48.5q-84 0 -134 72t-50 205zM315 1112h33q18 80 80 80q12 0 26.5 -4t30.5 -10l106 -33q25 -8 50 -8q98 0 135 180h-33q-18 -86 -82 -86q-18 0 -41 8l-110 35q-41 12 -62 12q-106 0 -133 -174z " />
<glyph unicode="&#xf6;" horiz-adv-x="882" d="M-6 356q0 -88 24.5 -160.5t66.5 -124t99.5 -79t122.5 -27.5q86 0 173 45t156 124t112 183.5t43 221.5q0 92 -25 165.5t-67 126t-100 80t-126 27.5q-84 0 -169 -44t-154.5 -121t-112.5 -184.5t-43 -232.5zM119 295q0 102 30.5 210.5t90.5 209.5q51 86 116.5 130t126.5 44 q86 0 133.5 -65.5t47.5 -192.5t-33 -238.5t-84 -194.5t-115.5 -131.5t-128.5 -48.5q-84 0 -134 72t-50 205zM309 1202q0 -37 25.5 -63.5t60.5 -26.5q37 0 62.5 25.5t25.5 64.5q0 35 -26.5 60.5t-61.5 25.5t-60.5 -26.5t-25.5 -59.5zM651 1200q0 -35 25.5 -61.5t60.5 -26.5 q37 0 62.5 25.5t25.5 64.5q0 35 -26.5 60.5t-61.5 25.5t-60.5 -26.5t-25.5 -61.5z" />
<glyph unicode="&#xf7;" horiz-adv-x="1705" d="M254 561h1198v98h-1198v-98zM748 258q0 -45 30.5 -75.5t75.5 -30.5q47 0 77 31.5t30 74.5q0 45 -31 76t-76 31q-43 0 -74.5 -31t-31.5 -76zM748 963q0 -45 29.5 -76t76.5 -31t77 32t30 75q0 45 -31 76.5t-76 31.5q-43 0 -74.5 -31.5t-31.5 -76.5z" />
<glyph unicode="&#xf8;" horiz-adv-x="882" d="M-57 -133h45l127 174q82 -76 190 -76q88 0 176 46t157 126t112 186.5t43 225.5q0 166 -93 282l154 218h-39l-141 -191q-90 80 -199 80q-86 0 -171 -44t-154.5 -122t-112.5 -184.5t-43 -231.5q0 -172 96 -290zM119 293q0 102 30.5 212.5t90.5 209.5q51 86 114.5 130 t132.5 44q95 0 142 -90l-486 -660q-25 76 -24 154zM160 102l487 656q10 -31 13.5 -66t3.5 -69q0 -121 -32 -230.5t-84 -192.5t-116.5 -132.5t-128.5 -49.5q-90 0 -143 84z" />
<glyph unicode="&#xf9;" horiz-adv-x="1001" d="M33 672q0 -16 14 -17q10 0 26.5 27t38 58.5t49 58t58.5 26.5q29 0 29 -45q0 -14 -10 -45l-160 -475q-39 -115 -39 -176q0 -51 32.5 -83t92.5 -32q102 0 223 120t258 364l-53 -199q-20 -76 -27.5 -125t-7.5 -70q0 -96 70 -96q82 0 198 139q45 53 65.5 90t20.5 44 q0 8 -4 14t-8 6q-12 0 -31.5 -28.5t-44 -62.5t-52.5 -62.5t-58 -28.5q-29 0 -29 43q0 66 61 268l148 492q4 16 4 20q0 6 -7 12t-16 6h-79q-18 0 -28.5 -25.5t-25 -74.5t-39 -121.5t-67.5 -167.5q-53 -111 -112.5 -199.5t-116 -151t-104.5 -96.5t-75 -34q-59 0 -59 66 q0 25 22 96l84 246q96 281 97 395q0 43 -19.5 66.5t-54.5 23.5q-90 0 -201 -150q-63 -88 -63 -116zM440 1356q0 -23 12.5 -40.5t34.5 -43.5l180 -223h46l-160 282q-41 74 -70 74q-18 0 -30.5 -13.5t-12.5 -35.5z" />
<glyph unicode="&#xfa;" horiz-adv-x="1001" d="M33 672q0 -16 14 -17q10 0 26.5 27t38 58.5t49 58t58.5 26.5q29 0 29 -45q0 -14 -10 -45l-160 -475q-39 -115 -39 -176q0 -51 32.5 -83t92.5 -32q102 0 223 120t258 364l-53 -199q-20 -76 -27.5 -125t-7.5 -70q0 -96 70 -96q82 0 198 139q45 53 65.5 90t20.5 44 q0 8 -4 14t-8 6q-12 0 -31.5 -28.5t-44 -62.5t-52.5 -62.5t-58 -28.5q-29 0 -29 43q0 66 61 268l148 492q4 16 4 20q0 6 -7 12t-16 6h-79q-18 0 -28.5 -25.5t-25 -74.5t-39 -121.5t-67.5 -167.5q-53 -111 -112.5 -199.5t-116 -151t-104.5 -96.5t-75 -34q-59 0 -59 66 q0 25 22 96l84 246q96 281 97 395q0 43 -19.5 66.5t-54.5 23.5q-90 0 -201 -150q-63 -88 -63 -116zM495 1049h45l218 223q23 25 36 42t13 40t-11.5 38t-27.5 15t-30.5 -15.5t-33.5 -41.5z" />
<glyph unicode="&#xfb;" horiz-adv-x="1001" d="M33 672q0 -16 14 -17q10 0 26.5 27t38 58.5t49 58t58.5 26.5q29 0 29 -45q0 -14 -10 -45l-160 -475q-39 -115 -39 -176q0 -51 32.5 -83t92.5 -32q102 0 223 120t258 364l-53 -199q-20 -76 -27.5 -125t-7.5 -70q0 -96 70 -96q82 0 198 139q45 53 65.5 90t20.5 44 q0 8 -4 14t-8 6q-12 0 -31.5 -28.5t-44 -62.5t-52.5 -62.5t-58 -28.5q-29 0 -29 43q0 66 61 268l148 492q4 16 4 20q0 6 -7 12t-16 6h-79q-18 0 -28.5 -25.5t-25 -74.5t-39 -121.5t-67.5 -167.5q-53 -111 -112.5 -199.5t-116 -151t-104.5 -96.5t-75 -34q-59 0 -59 66 q0 25 22 96l84 246q96 281 97 395q0 43 -19.5 66.5t-54.5 23.5q-90 0 -201 -150q-63 -88 -63 -116zM377 1049h43l217 243l139 -243h35l-125 350h-84z" />
<glyph unicode="&#xfc;" horiz-adv-x="1001" d="M33 672q0 -16 14 -17q10 0 26.5 27t38 58.5t49 58t58.5 26.5q29 0 29 -45q0 -14 -10 -45l-160 -475q-39 -115 -39 -176q0 -51 32.5 -83t92.5 -32q102 0 223 120t258 364l-53 -199q-20 -76 -27.5 -125t-7.5 -70q0 -96 70 -96q82 0 198 139q45 53 65.5 90t20.5 44 q0 8 -4 14t-8 6q-12 0 -31.5 -28.5t-44 -62.5t-52.5 -62.5t-58 -28.5q-29 0 -29 43q0 66 61 268l148 492q4 16 4 20q0 6 -7 12t-16 6h-79q-18 0 -28.5 -25.5t-25 -74.5t-39 -121.5t-67.5 -167.5q-53 -111 -112.5 -199.5t-116 -151t-104.5 -96.5t-75 -34q-59 0 -59 66 q0 25 22 96l84 246q96 281 97 395q0 43 -19.5 66.5t-54.5 23.5q-90 0 -201 -150q-63 -88 -63 -116zM385 1202q0 -37 25.5 -63.5t60.5 -26.5q37 0 62.5 25.5t25.5 64.5q0 35 -26.5 60.5t-61.5 25.5t-60.5 -26.5t-25.5 -59.5zM727 1200q0 -35 25.5 -61.5t60.5 -26.5 q37 0 62.5 25.5t25.5 64.5q0 35 -26.5 60.5t-61.5 25.5t-60.5 -26.5t-25.5 -61.5z" />
<glyph unicode="&#xfd;" horiz-adv-x="757" d="M-209 -362q0 -41 36 -73t89 -32q84 0 198.5 132t280.5 405q154 250 229.5 434t75.5 311q0 59 -18 93t-51 34q-25 0 -43.5 -22.5t-18.5 -59.5q0 -41 19.5 -87t19.5 -101q0 -94 -67.5 -254t-208.5 -379q2 68 2 129v115q0 328 -35 488.5t-117 160.5q-35 0 -70.5 -31 t-63.5 -73t-45 -85t-17 -65q0 -20 14 -21q18 0 23.5 22.5t21.5 57.5q49 102 80 103q49 0 67.5 -162t18.5 -506q0 -68 -4 -141.5t-10 -153.5q-23 -70 -55.5 -122t-65.5 -88t-61.5 -53t-43.5 -17q-12 0 -24.5 16t-26.5 34.5t-32.5 35t-43.5 16.5q-23 0 -38 -16.5t-15 -44.5z M356 1049h45l218 223q23 25 36 42t13 40t-11.5 38t-27.5 15t-30.5 -15.5t-33.5 -41.5z" />
<glyph unicode="&#xfe;" horiz-adv-x="874" d="M-242 -434q0 -16 35 -17q20 0 57 7.5t95 7.5q82 0 135 -7.5t76 -7.5t22 23q0 14 -18.5 19.5t-42 12.5t-42 20.5t-18.5 43.5q0 14 4 35l72 352q41 -45 83 -66.5t95 -21.5q160 0 312 195q80 104 121.5 223t41.5 236q0 154 -76.5 235.5t-217.5 81.5q-35 0 -73 -5t-79 -15 l123 479q4 10 5 15l1 5q0 18 -10 19q-18 0 -45 -20.5t-84 -31.5q-29 -6 -52.5 -7t-40 -3t-24.5 -7t-8 -17q0 -20 33 -21q6 0 12 1t12 1q23 0 35 -10t12 -27q0 -16 -4 -36.5t-10 -43.5l-80 -337q-72 -29 -106.5 -50.5t-34.5 -48.5q0 -10 16 -10q10 0 37 15.5t74 39.5 l-262 -1081q-8 -33 -13.5 -53.5t-13.5 -33.5t-21.5 -22.5t-37.5 -19.5q-43 -16 -69 -20.5t-26 -26.5zM168 160q0 35 8.5 78t22.5 100l129 522q78 23 127 23q104 0 159.5 -57.5t55.5 -163.5q0 -82 -33 -202t-102 -253q-96 -186 -242 -187q-57 0 -91 37t-34 103z" />
<glyph unicode="&#xff;" horiz-adv-x="757" d="M-209 -362q0 -41 36 -73t89 -32q84 0 198.5 132t280.5 405q154 250 229.5 434t75.5 311q0 59 -18 93t-51 34q-25 0 -43.5 -22.5t-18.5 -59.5q0 -41 19.5 -87t19.5 -101q0 -94 -67.5 -254t-208.5 -379q2 68 2 129v115q0 328 -35 488.5t-117 160.5q-35 0 -70.5 -31 t-63.5 -73t-45 -85t-17 -65q0 -20 14 -21q18 0 23.5 22.5t21.5 57.5q49 102 80 103q49 0 67.5 -162t18.5 -506q0 -68 -4 -141.5t-10 -153.5q-23 -70 -55.5 -122t-65.5 -88t-61.5 -53t-43.5 -17q-12 0 -24.5 16t-26.5 34.5t-32.5 35t-43.5 16.5q-23 0 -38 -16.5t-15 -44.5z M246 1202q0 -37 25.5 -63.5t60.5 -26.5q37 0 62.5 25.5t25.5 64.5q0 35 -26.5 60.5t-61.5 25.5t-60.5 -26.5t-25.5 -59.5zM588 1200q0 -35 25.5 -61.5t60.5 -26.5q37 0 62.5 25.5t25.5 64.5q0 35 -26.5 60.5t-61.5 25.5t-60.5 -26.5t-25.5 -61.5z" />
<glyph unicode="&#x152;" horiz-adv-x="1562" d="M59 588q0 -125 34 -235.5t94.5 -192.5t144.5 -129t186 -47q39 0 117 12t205 12q260 0 376.5 -9t126.5 -9q18 0 25.5 22.5t17.5 61.5l44 157q6 25 6 33q0 12 -7.5 19.5t-13.5 7.5q-14 0 -21.5 -12.5t-16.5 -33t-24.5 -48t-45.5 -60.5q-82 -88 -220 -88h-151 q-47 0 -68.5 18.5t-21.5 63.5q0 23 7 56.5t17 80.5l99 389h170q45 0 69.5 -8t35.5 -24.5t13.5 -42t2.5 -62.5v-10q0 -10 -1.5 -22.5t-1.5 -26.5q0 -33 25 -33t31 43t26 129q29 123 50.5 184.5t21.5 71.5q0 27 -16 27q-12 0 -20.5 -11.5t-16.5 -30t-20.5 -40t-30.5 -41.5 q-29 -33 -65 -42t-91 -9h-168l129 518q41 4 85 6t91 2q98 0 145.5 -37t47.5 -123q0 -4 -1 -18.5t-1 -36.5q0 -16 7 -25.5t17 -9.5q14 0 20.5 10.5t12.5 32.5l51 191q8 33 8 38q0 20 -8 25.5t-31 5.5q-16 0 -39.5 -3t-52.5 -3h-401q-66 0 -118 7t-97 14.5t-83 14.5t-75 7 q-129 0 -243.5 -60.5t-200.5 -162t-136.5 -234.5t-50.5 -280zM199 498q0 145 36.5 289.5t100.5 254.5q139 242 348 242q111 0 178.5 -47t67.5 -133q0 -16 -2 -34t-6 -36l-199 -805q-27 -109 -70 -151.5t-127 -42.5q-150 0 -238.5 122t-88.5 341z" />
<glyph unicode="&#x153;" horiz-adv-x="1368" d="M-6 356q0 -90 24.5 -161.5t66.5 -123t99.5 -79t122.5 -27.5q88 0 177 47t169 144q35 -98 96.5 -147.5t139.5 -49.5q141 0 276 172q66 84 66 121q0 20 -10 20q-20 0 -28.5 -24.5t-39.5 -61.5q-104 -125 -215 -125q-78 0 -129 62.5t-51 169.5q0 16 2 39.5t6 54.5 q281 23 422 113t141 241q0 90 -57.5 147.5t-149.5 57.5q-90 0 -182 -58.5t-176 -174.5q-35 109 -113 167t-176 58q-84 0 -170 -44t-155.5 -122t-112.5 -184.5t-43 -231.5zM119 295q0 102 30.5 210.5t90.5 209.5q51 86 116.5 130t126.5 44q86 0 133.5 -65.5t47.5 -192.5 t-33 -238.5t-84 -194.5t-115.5 -131.5t-128.5 -48.5q-84 0 -134 72t-50 205zM770 436q25 111 64.5 199t86 148.5t95.5 92t94 31.5q47 0 73.5 -34.5t26.5 -92.5q0 -70 -28.5 -130t-85 -106t-138.5 -74t-188 -34z" />
<glyph unicode="&#x178;" horiz-adv-x="833" d="M35 18q0 -25 28 -24q23 0 69 7t114 7q70 0 112.5 -5t61.5 -5q37 0 37 22q0 14 -7.5 19.5t-19.5 7.5t-29 2q-14 0 -28 4q-43 12 -43 60q0 33 14 92l92 364l352 471q63 84 107.5 132.5t79.5 62.5q27 10 48 12t21 25q0 18 -26 18q-6 0 -41 -1t-100 -1q-53 0 -86 1t-50 1 q-37 0 -36 -20q0 -16 17 -19.5t38.5 -6.5t40 -10t18.5 -34q0 -29 -38 -86t-105 -151l-248 -342l-131 518q-8 31 -8 57q0 31 19.5 39t42 10t42 4t19.5 19q0 23 -29 22q-8 0 -46 -2t-110 -2q-59 0 -91 2t-38 2q-33 0 -32 -20q0 -16 9 -18.5t23.5 -8.5t28.5 -21.5t27 -56.5 l153 -565l-114 -459q-10 -47 -26.5 -64.5t-49.5 -25.5q-35 -8 -60 -8q-23 0 -22 -25zM385 1585q0 -37 25.5 -63.5t60.5 -26.5q37 0 62.5 25.5t25.5 64.5q0 35 -26.5 60.5t-61.5 25.5t-60.5 -26.5t-25.5 -59.5zM727 1583q0 -35 25.5 -61.5t60.5 -26.5q37 0 62.5 25.5 t25.5 64.5q0 35 -26.5 60.5t-61.5 25.5t-60.5 -26.5t-25.5 -61.5z" />
<glyph unicode="&#x2c6;" horiz-adv-x="1024" d="M369 1049h43l217 243l139 -243h35l-125 350h-84z" />
<glyph unicode="&#x2dc;" horiz-adv-x="1024" d="M383 1112h33q18 80 80 80q12 0 26.5 -4t30.5 -10l106 -33q25 -8 50 -8q98 0 135 180h-33q-18 -86 -82 -86q-18 0 -41 8l-110 35q-41 12 -62 12q-106 0 -133 -174z" />
<glyph unicode="&#x2000;" horiz-adv-x="930" />
<glyph unicode="&#x2001;" horiz-adv-x="1860" />
<glyph unicode="&#x2002;" horiz-adv-x="930" />
<glyph unicode="&#x2003;" horiz-adv-x="1860" />
<glyph unicode="&#x2004;" horiz-adv-x="620" />
<glyph unicode="&#x2005;" horiz-adv-x="465" />
<glyph unicode="&#x2006;" horiz-adv-x="310" />
<glyph unicode="&#x2007;" horiz-adv-x="310" />
<glyph unicode="&#x2008;" horiz-adv-x="232" />
<glyph unicode="&#x2009;" horiz-adv-x="372" />
<glyph unicode="&#x200a;" horiz-adv-x="103" />
<glyph unicode="&#x2010;" horiz-adv-x="448" d="M-14 399q0 -12 14 -12h301q14 0 27 27l32 75q2 4 2 13q0 12 -12 12h-303q-14 0 -27 -27l-32 -75q-2 -4 -2 -13z" />
<glyph unicode="&#x2011;" horiz-adv-x="448" d="M-14 399q0 -12 14 -12h301q14 0 27 27l32 75q2 4 2 13q0 12 -12 12h-303q-14 0 -27 -27l-32 -75q-2 -4 -2 -13z" />
<glyph unicode="&#x2012;" horiz-adv-x="448" d="M-14 399q0 -12 14 -12h301q14 0 27 27l32 75q2 4 2 13q0 12 -12 12h-303q-14 0 -27 -27l-32 -75q-2 -4 -2 -13z" />
<glyph unicode="&#x2013;" d="M-61 416q0 -12 12 -13h790q6 0 14.5 6.5t12.5 20.5l16 43q2 4 2 12q0 12 -12 13h-790q-18 0 -27 -27l-16 -43q-2 -6 -2 -12z" />
<glyph unicode="&#x2014;" horiz-adv-x="1331" d="M-84 416q0 -12 16 -13h1332q20 0 32 27l21 43l4 12q0 12 -18 13h-1332q-20 0 -32 -27l-21 -43q-2 -4 -2 -12z" />
<glyph unicode="&#x2018;" horiz-adv-x="409" d="M184 1016q0 -72 30 -113t71 -41q29 0 49 24.5t20 65.5q0 37 -15 54.5t-34.5 26.5t-35 16.5t-15.5 23.5q0 41 22.5 78t49 67.5t49 53t22.5 35.5q0 18 -18 18q-16 0 -49 -24.5t-66 -67.5t-56.5 -99.5t-23.5 -117.5z" />
<glyph unicode="&#x2019;" horiz-adv-x="409" d="M186 883q0 -18 21 -19q16 0 49 25.5t64.5 68.5t55 99.5t23.5 118.5q0 72 -28.5 111.5t-69.5 39.5q-31 0 -51.5 -23.5t-20.5 -62.5q0 -37 15.5 -55.5t35 -27.5t35 -17t15.5 -25q0 -43 -22.5 -79t-49.5 -65.5t-49.5 -52t-22.5 -36.5z" />
<glyph unicode="&#x201a;" horiz-adv-x="409" d="M-61 -293q0 -18 20 -18q16 0 49 25.5t64.5 67.5t55.5 98.5t24 117.5q0 72 -30 113t-71 41q-31 0 -50 -25t-19 -64q0 -37 15 -55t34.5 -27.5t35 -16.5t15.5 -23q0 -43 -22.5 -79t-49 -65.5t-49 -52.5t-22.5 -37z" />
<glyph unicode="&#x201c;" horiz-adv-x="626" d="M150 1016q0 -72 29.5 -113t70.5 -41q29 0 49 24.5t20 65.5q0 37 -15 54.5t-33.5 26.5t-34 16.5t-15.5 23.5q0 41 22.5 78t49 67.5t49.5 53t23 35.5q-1 18 -21 18q-16 0 -49 -24.5t-65.5 -67.5t-56 -99.5t-23.5 -117.5zM420 1016q0 -72 29.5 -113t70.5 -41q29 0 49.5 24.5 t20.5 65.5q0 37 -15.5 54.5t-35 26.5t-35 16.5t-15.5 23.5q0 43 23 79t49.5 65.5t49 52t22.5 37.5q-1 20 -19 20q-16 0 -49 -25.5t-65.5 -68.5t-56 -99.5t-23.5 -117.5z" />
<glyph unicode="&#x201d;" horiz-adv-x="626" d="M168 883q0 -18 18 -19q16 0 49 24.5t65 67.5t56.5 99.5t24.5 120.5q0 72 -29.5 111.5t-70.5 39.5q-31 0 -50.5 -23.5t-19.5 -62.5q0 -37 15.5 -55.5t35 -27.5t34.5 -17t15 -25q0 -43 -22.5 -79t-49 -65.5t-49 -52t-22.5 -36.5zM438 883q0 -18 19 -19q16 0 49 24.5 t64.5 67.5t56 99.5t24.5 120.5q0 72 -29.5 111.5t-70.5 39.5q-29 0 -49.5 -23.5t-20.5 -64.5q0 -37 15.5 -54.5t35 -26.5t35 -17t15.5 -25q0 -43 -22.5 -79t-49.5 -65.5t-49.5 -52t-22.5 -36.5z" />
<glyph unicode="&#x201e;" horiz-adv-x="626" d="M-92 -291q0 -18 20 -18q16 0 49 24.5t65 67.5t55.5 99.5t23.5 117.5q0 72 -30 113t-71 41q-31 0 -50 -24.5t-19 -63.5q0 -37 15.5 -55.5t34.5 -28t34.5 -16.5t15.5 -23q0 -43 -22.5 -79t-49 -65.5t-49 -52t-22.5 -37.5zM178 -291q0 -18 21 -18q16 0 49 24.5t64.5 67.5 t55 99.5t23.5 119.5q0 72 -29.5 112t-70.5 40q-29 0 -49.5 -23.5t-20.5 -64.5q0 -37 15.5 -54.5t35 -27t35 -17.5t15.5 -24q0 -43 -23 -79t-49.5 -65.5t-49 -52t-22.5 -37.5z" />
<glyph unicode="&#x2022;" horiz-adv-x="1208" d="M307 762q0 -61 22.5 -115.5t62.5 -94.5t94.5 -63.5t115.5 -23.5t115.5 23.5t94.5 64.5t63.5 94t23.5 115q0 61 -23.5 114.5t-63.5 93.5t-93 63.5t-115 23.5q-61 0 -115.5 -23.5t-94.5 -63.5t-63.5 -93.5t-23.5 -114.5z" />
<glyph unicode="&#x2026;" horiz-adv-x="2048" d="M143 57q0 -80 58 -80q33 0 56.5 35t23.5 76q0 80 -58 80q-33 0 -56.5 -32t-23.5 -79zM825 57q0 -80 58 -80q33 0 56.5 35t23.5 76q0 80 -58 80q-33 0 -56.5 -32t-23.5 -79zM1509 57q0 -80 58 -80q33 0 56.5 35t23.5 76q0 80 -58 80q-33 0 -56.5 -32t-23.5 -79z" />
<glyph unicode="&#x202f;" horiz-adv-x="372" />
<glyph unicode="&#x2039;" horiz-adv-x="370" d="M6 461q51 -74 84 -131.5t53.5 -95t32.5 -58t25 -20.5q12 0 12 20v8q0 6 -2 13l-76 256l172 247q4 4 7 15.5t3 23.5q0 10 -14 11q-18 0 -82.5 -76t-214.5 -213z" />
<glyph unicode="&#x203a;" horiz-adv-x="370" d="M-43 164q0 -8 14 -8q18 0 82.5 75.5t214.5 212.5q-51 74 -83.5 131.5t-53 95.5t-33 58.5t-22.5 20.5q-14 0 -15 -23q0 -12 2 -18l76 -256l-172 -248q-2 -2 -6 -15.5t-4 -25.5z" />
<glyph unicode="&#x205f;" horiz-adv-x="465" />
<glyph unicode="&#x2122;" horiz-adv-x="1683" d="M250 1260h24q12 152 138 151h22v-426q0 -25 -12 -40t-33 -15l-33 -2v-25h246v25l-33 2q-23 0 -35 15.5t-12 39.5v426h23q125 0 139 -151h25l-11 174h-438zM795 903h198v25l-32 2q-23 0 -35.5 15.5t-12.5 39.5v399l174 -485h13l182 485v-399q0 -25 -12.5 -40t-34.5 -15 l-33 -2v-25h234v25l-31 2q-23 0 -35 15.5t-12 39.5v369q0 25 12 40t35 15l31 2v23h-168l-154 -406l-143 406h-176v-23l30 -2q23 0 36 -15.5t13 -39.5v-371q0 -25 -12 -40t-35 -15h-32v-25z" />
<glyph unicode="&#xe000;" horiz-adv-x="942" d="M0 0v942h942v-942h-942z" />
<glyph unicode="&#xfb01;" horiz-adv-x="901" d="M-348 -360q0 -49 37 -81t96 -32q86 0 144.5 50t103.5 148.5t81 242t76 329.5l117 551h201q59 0 83.5 -11.5t24.5 -54.5q0 -6 -1 -19t-7 -36l-127 -496q-16 -63 -26.5 -106t-10.5 -68q0 -45 22.5 -68.5t61.5 -23.5q86 0 181 144q82 127 82 159q0 14 -13 15q-8 0 -18 -22.5 t-39 -70.5q-70 -119 -119 -118q-27 0 -27 43q0 4 1.5 14t5.5 27l145 563q18 70 32.5 110.5t14.5 57.5q0 23 -20 22q-8 0 -23.5 -4t-38.5 -4h-370q59 242 142 358.5t202 116.5q35 0 57 -15t33 -52q14 -43 29.5 -65.5t48.5 -22.5q29 0 45 20.5t16 50.5q0 53 -53.5 91 t-145.5 38q-100 0 -177 -30.5t-136 -95t-102 -162t-76 -232.5h-105q-25 0 -24 -41q0 -12 14 -12h103l-207 -940q-39 -174 -74 -258t-76 -84q-20 0 -29.5 7t-12.5 20.5t-3 29.5t-2 35q-4 33 -23.5 50.5t-46.5 17.5q-31 0 -49 -22.5t-18 -63.5z" />
<glyph unicode="&#xfb02;" horiz-adv-x="907" d="M-348 -360q0 -49 37 -81t96 -32q86 0 145.5 50t104.5 148.5t80 242t75 329.5l119 551h135q25 0 25 41q0 12 -14 12h-133q59 238 142 356.5t185 118.5q47 0 76 -30.5t29 -77.5q0 -16 -4 -37l-252 -916q-43 -160 -43 -252q0 -90 69 -90q41 0 92.5 37t104.5 115 q43 59 62.5 99t19.5 57q0 14 -12 14q-8 0 -15.5 -13.5t-25.5 -45.5q-88 -152 -136 -152q-29 0 -28 39q0 27 14 82l315 1192q4 10 5 15l2 5q0 18 -13 19q-16 0 -36.5 -16.5t-63.5 -30.5q-55 35 -129 34q-178 0 -300 -130t-175 -392h-105q-25 0 -24 -41q0 -12 14 -12h105 l-209 -940q-39 -174 -74 -258t-76 -84q-23 0 -31 8t-11 22.5t-3 34.5t-4 43q-4 20 -23.5 37t-42.5 17q-31 0 -50 -23.5t-19 -64.5z" />
</font>
</defs>
</svg>
